<svg xmlns="http://www.w3.org/2000/svg" width="824.8" height="438.3" xmlns:v="https://vecta.io/nano"><path d="M819.5 437.2H360.2c-3 0-5.3-2.4-5.3-5.3V5.3c0-3 2.4-5.3 5.3-5.3h459.3c3 0 5.3 2.4 5.3 5.3v426.5c0 3-2.4 5.3-5.3 5.3zM360.2 2c-1.8 0-3.2 1.4-3.2 3.2v426.5c0 1.8 1.4 3.2 3.2 3.2h459.3c1.8 0 3.2-1.4 3.2-3.2V5.3c0-1.8-1.4-3.2-3.2-3.2zm217 108.8c-2 0-3.6 1.6-3.6 3.6s1.6 3.6 3.6 3.6h199c2 0 3.6-1.6 3.6-3.6s-1.6-3.6-3.6-3.6zm0 21.8c-2 0-3.6 1.6-3.6 3.6s1.6 3.6 3.6 3.6h101.5c2 0 3.6-1.6 3.6-3.6s-1.6-3.6-3.6-3.6zM403.4 237.8c-2 0-3.6 1.6-3.6 3.6s1.6 3.6 3.6 3.6h373c2 0 3.6-1.6 3.6-3.6s-1.6-3.6-3.6-3.6zm0 21.8c-2 0-3.6 1.6-3.6 3.6s1.6 3.6 3.6 3.6H679c2 0 3.6-1.6 3.6-3.6s-1.6-3.6-3.6-3.6zm0 21.2c-2 0-3.6 1.6-3.6 3.6s1.6 3.6 3.6 3.6h373c2 0 3.6-1.6 3.6-3.6s-1.6-3.6-3.6-3.6zm0 21.8c-2 0-3.6 1.6-3.6 3.6s1.6 3.6 3.6 3.6H679c2 0 3.6-1.6 3.6-3.6s-1.6-3.6-3.6-3.6z" fill="#e6e6e6"/><path d="M527 187.2H238.7c-3 0-5.3-2.4-5.3-5.3V55.3c0-3 2.4-5.3 5.3-5.3H527c3 0 5.3 2.4 5.3 5.3v126.5c0 3-2.4 5.3-5.3 5.3zm247 200H664.7c-3 0-5.3-2.4-5.3-5.3v-17.5c0-3 2.4-5.3 5.3-5.3H774c3 0 5.3 2.4 5.3 5.3V382c0 3-2.4 5.3-5.3 5.3z" fill="#372ac1"/><path d="M126.4 214c-4.7-3.5-6-10-3-14.7.3-.4.6-1 1-1.3l.3-93.5 14 2.6.6 92c3.2 3.7 3.8 9 1.2 13-3 4.6-9.3 5.5-14 2zm72.3 209.3H213l6.8-55.2h-21v55.2z" fill="#ffb8b8"/><path d="M195 418.6h28.2 0a18 18 0 0 1 18 18v.6H195z" fill="#2f2e41"/><path fill="#ffb8b8" d="M65.5 423.3h14.3l6.8-55.2h-21v55.2z"/><path d="M62 418.6h28 0a18 18 0 0 1 18 18v.6H62zM197.8 408l-1.2-7.2c-1.2-.4-2.3-1.3-3-2.4-1.3-2-1.5-5-.6-8.5l-9.7-81.6-50.5-52.3-32.4 78-12.8 61.8v9L62.2 408l1.2-8.4c-1-.4-1.8-1-2.3-2-1.5-2.4-1.4-6.2.1-11.3h.1l-.1-.8c-.1-.5.3-51 15.3-76l15-76c-.4-1-2.3-7.3 1.2-17.8 3.5-10.4 13.2-27 40-47.8h.1.1c.3-.1 29.7-6 45 14h.1v.2l-2.3 36.2 36 66.3c.7.7 7 8 4.8 27.2l5.8 65.3c.7 1.3 6.7 13.3.1 18l1.2 8.2z" fill="#2f2e41"/><g fill="#372ac1"><path d="M137.5 133.6c-6.8 0-15.8-2.4-21.3-13.4l-.1-.2 13.6-28.8c3.7-7.8 12.8-11.2 20.7-7.7s11.5 12.6 8.2 20.5l-11.7 28-.2.1c-3 1-6 1.4-9 1.4z"/><path d="M175 190.6l-42.8-20.2 6-71.8 10.7-13 2-.4c9.5-2 19.5-1.5 28.7 1.6l.2.1 17.6 37.6c.1.2 12.8 22.6-4.7 34.4z"/></g><path d="M234 167.8l-1.5.8-45-20.6-1.2-12-18.3-.6v21.4a8 8 0 0 0 5.8 7.7l54 15.8c1 4.2 4.8 7.3 9 7.7s8.5-2 10.4-5.8 1.2-8.6-1.7-11.8-7.6-4.2-11.7-2.6z" fill="#ffb8b8"/><path d="M178.8 141c-5 0-11-1.8-16.5-7.3l-.2-.2L166 102c1-8.5 8.6-14.7 17.2-13.8s15 8.3 14.2 17l-2.2 30.4v.1c-.1.1-7 5.6-16 5.6z" fill="#372ac1"/><circle cx="354.9" cy="277.7" r="28.7" transform="matrix(.48 -.88 .88 .48 -246.53 225.08)" fill="#ffb8b8"/><path d="M196.6 31.6c-1.4-8.3-8-15-16-18s-16.8-2-24.6 1.3l-3.8 1.8c-2.8-5.4-9.8-8.5-16-8.2-7.7.4-14.6 4.5-21.3 8.3s-13.8 7.6-21.5 7.5c-14-.3-24.2-13.2-37.6-17a30 30 0 0 0-33.1 45.9C28.3 43 41.7 39.6 53.3 41S75.7 47.4 87 50s24.6 2.6 33.4-5c5-4.4 8-10.6 12.3-15.6 3-3.4 7-6.2 11.4-7-4.2 3.8-7.4 8.6-9.4 14-3.4 9.8-1.6 21.5 5.5 29 7.6 8 19.6 10.2 30.7 10l.2-.2c-3.4-5-6-12-2.3-17 3.7-4.8 11-4 16.6-6.2 8-3 12.4-12.2 11-20.5z" fill="#2f2e41"/><path d="M274 438.3H1a1 1 0 1 1 0-2h273a1 1 0 1 1 0 2z" fill="#ccc"/><g fill="#fff"><path d="M370 94.4c-1.3 0-2.3 1.6-2.3 3.6s1 3.6 2.3 3.6h107c1.3 0 2.3-1.6 2.3-3.6s-1-3.6-2.3-3.6zm0 21c-1.3 0-2.3 1.6-2.3 3.6s1 3.6 2.3 3.6h107c1.3 0 2.3-1.6 2.3-3.6s-1-3.6-2.3-3.6zm0 20.6c-1.3 0-2.3 1.6-2.3 3.6s1 3.6 2.3 3.6h46c1.3 0 2.3-1.6 2.3-3.6s-1-3.6-2.3-3.6z"/><circle cx="315.6" cy="118.6" r="29"/></g></svg>