<svg xmlns="http://www.w3.org/2000/svg" viewBox="0 0 342 306" width="456" height="408" xmlns:v="https://vecta.io/nano"><defs><clipPath id="A"><path d="M0 0h342v306H0z"/></clipPath></defs><g clip-path="url(#A)"><g opacity=".2"><path d="M304.6 153c-.4 84-68.6 151.8-152.6 151.7S0 236.3 0 152.3 68 .2 152 0s152.3 67.7 152.6 151.7v1.3z" fill="#3628c1"/></g><g fill="#f7af87"><path d="M107.3 110.8c-1.4-1-3-1.6-4.7-1.6-1 .1-2 .5-2.8 1-3.2 2.2-5 6-4.8 9.7.2 3.8 1.8 7.4 4.5 10.2 2 2.5 5 4 8 4.2.5 0 1-.1 1.6-.4.8-.8 1.2-2 1-3l.7-12.3c.2-4 .3-5.3-3.5-7.7zm88.7-.1c1.4-1 3-1.6 4.7-1.6 1 .1 2 .4 2.8 1 3 2.2 5 5.8 4.8 9.5-.2 3.8-1.7 7.4-4.3 10.2-2 2.5-5 4-8 4.2a3 3 0 0 1-1.6-.4c-.8-.7-1.2-1.8-1-2.8l-.7-12.3c-.2-4-.3-5.4 3.5-7.8z"/></g><path d="M259.3 257.2v4.5a153 153 0 0 1-215.2 0v-17.3s13.4-50.5 60-56.2 97 2 97 2 49.2 6.4 58 67z" fill="#3628c1"/><path d="M123 183.8c-1 2-1.7 4-2 6 .1 1.3.4 2.5 1 3.7 4.2 9.6 12.6 16.7 22.8 19.2 2.7.8 5.5 1.3 8.4 1.4 8.4 0 17-5.8 22-15.2.3-.5.5-1 .6-1.6 0-.7-.2-1.4-.6-2-3.2-6.8-2.6-15.6-1.8-23.7.1-.7.1-1.4-.1-2-.3-.5-.7-.8-1.2-1-5.6-2.3-11.4-1-17.2-1-8-.3-15.8-4-23.8-4-3.6 0-3.8 1.3-4.3 5.8a47 47 0 0 1-3.8 14.5h0z" fill="#f7af87"/><linearGradient id="B" x1=".2" y1="1.2" x2="1.1" y2="-.2" gradientTransform="matrix(52.597,0,0,33.887,123.041,160.687)" gradientUnits="userSpaceOnUse"><stop offset="0%" stop-color="#000"/></linearGradient><path d="M123 160.7s4.6 18 15.8 30c0 0 37.6 9.6 34.5-1-2.8-9 2.3-29 2.3-29H123z" fill="url(#B)"/><path d="M196.7 126.6c-3.5 29.7-20 54-44.5 54s-44.8-24.2-44.8-54S123.2 63 148 63s56 3 48.8 63.6z" fill="#f7af87"/><path d="M97.3 81.5c-.2-5.2 0-11 3.4-15a18 18 0 0 0 2.5-2.8c.6-1.3 1-2.7 1-4.2 1.3-11 9.4-20.6 18.7-27a72 72 0 0 1 34.3-12.3c4-.4 8-.2 12 .5 4 1 7.6 2.5 11 4.5A48 48 0 0 1 195 37c4 5 6.2 11.2 5.6 17.6 5.5 2.3 9.7 7 11.6 12.6 1.8 5.8 2.4 12 1.7 18-1.2 14.4-6.7 29-18.2 37.8.2-10-2-20-6.5-29-1.6-3-3.4-6.2-4.7-9.5-1.3-3.5-2-7-2-10.8-4.8 2.6-7.6 7.8-12 10.8a26 26 0 0 1-9.4 3.5c-10.8 2-22 1.7-32.4-1-4.2-1-9.5-2.3-12 1-1.3 2.4-1.8 5-1.6 7.7-.4 3-1 5.8-2 8.5l-6.5 19.7a165 165 0 0 1-9-42.4z" fill="#404040"/><linearGradient id="C" x1="99.2" y1="124.7" x2="107.3" y2="124" gradientUnits="userSpaceOnUse"><stop offset="100%" stop-color="#000"/></linearGradient><path d="M103.5 123.7c-.3-1.8-.8-3.5-1.5-5-.2-.3-.4-.6-.8-.7-.5-.1-1 .1-1.3.5-.3.4-.5 1-.6 1.4-.7 4 .7 8 3.7 10.7.5.5 1 .8 1.7 1 .7.2 1.4 0 1.8-.5 2.4-2.7-2.5-4.8-3-7.2z" fill="url(#C)"/><linearGradient id="D" x1="196.4" y1="123.3" x2="204.5" y2="122.7" gradientUnits="userSpaceOnUse"><stop offset="100%" stop-color="#000"/></linearGradient><path d="M200 122.3c.2-1.8.8-3.5 1.5-5 .2-.3.4-.5.8-.7.5-.1 1 .1 1.3.4.3.4.5 1 .6 1.4.7 4-.7 8-3.7 10.7-.5.5-1 .8-1.7 1-.7.2-1.4 0-1.8-.5-2.4-2.7 2.4-4.8 3-7.2z" fill="url(#D)"/><g opacity=".2"><circle vector-effect="non-scaling-stroke" cx="276" cy="222.4" r="64.8" fill="#3628c1"/></g><g fill="#fff"><circle vector-effect="non-scaling-stroke" cx="266.3" cy="214.7" r="64.8"/><path d="M139.2 230.3H157V284h-17.7z"/><path d="M121.5 248.3h53.8V266h-53.8z"/></g><path d="M276.5 225.5c-2.2 0-4 1-5.6 2.2l-20.5-12 .3-2c0-.7-.1-1.4-.3-2l20.3-11.8c1.6 1.4 3.6 2.3 6 2.3 4.8 0 8.6-4 8.6-8.6s-4-8.6-8.6-8.6-8.6 4-8.6 8.6c0 .7.1 1.4.3 2L248 207.4c-1.6-1.4-3.6-2.3-6-2.3-4.8 0-8.6 4-8.6 8.6s4 8.6 8.6 8.6c2.3 0 4.3-1 6-2.3l20.5 12c-.1.6-.2 1.2-.2 2 0 4.6 3.8 8.4 8.4 8.4s8.4-3.7 8.4-8.4c0-2.2-1-4.4-2.5-6s-3.7-2.5-6-2.5z"/></g></svg>