<svg id="Layer_1" data-name="Layer 1" xmlns="http://www.w3.org/2000/svg" xmlns:xlink="http://www.w3.org/1999/xlink" viewBox="0 0 394.1 345.82" width="406" height="306" class="illustration styles_illustrationTablet__1DWOa"><defs><linearGradient id="linear-gradient" x1="142.53" y1="216.82" x2="173.38" y2="194.58" gradientUnits="userSpaceOnUse"><stop offset="0.01"></stop><stop offset="1" stop-opacity="0"></stop></linearGradient><linearGradient id="linear-gradient-2" x1="84.67" y1="248.68" x2="129.72" y2="185.05" xlink:href="#linear-gradient"></linearGradient><linearGradient id="linear-gradient-3" x1="202.56" y1="378.41" x2="212.21" y2="254.51" xlink:href="#linear-gradient"></linearGradient><linearGradient id="linear-gradient-4" x1="123.99" y1="259.39" x2="122.91" y2="300.7" xlink:href="#linear-gradient"></linearGradient><linearGradient id="linear-gradient-5" x1="115.13" y1="240.82" x2="76.23" y2="190.11" xlink:href="#linear-gradient"></linearGradient><linearGradient id="linear-gradient-6" x1="145.25" y1="182.02" x2="104.49" y2="205.09" xlink:href="#linear-gradient"></linearGradient><linearGradient id="linear-gradient-7" x1="117.72" y1="191.57" x2="155.78" y2="207.11" xlink:href="#linear-gradient"></linearGradient><linearGradient id="linear-gradient-8" x1="141.82" y1="171.46" x2="116.17" y2="91.34" xlink:href="#linear-gradient"></linearGradient><linearGradient id="linear-gradient-9" x1="138.78" y1="131.72" x2="119.72" y2="160.71" xlink:href="#linear-gradient"></linearGradient><linearGradient id="linear-gradient-10" x1="248.24" y1="279.4" x2="233.78" y2="240.84" xlink:href="#linear-gradient"></linearGradient><linearGradient id="linear-gradient-11" x1="229.67" y1="244.3" x2="330.35" y2="244.3" xlink:href="#linear-gradient"></linearGradient><linearGradient id="linear-gradient-12" x1="64.86" y1="254.05" x2="80.94" y2="224.56" xlink:href="#linear-gradient"></linearGradient><linearGradient id="linear-gradient-13" x1="39.02" y1="298.88" x2="93.37" y2="298.88" xlink:href="#linear-gradient"></linearGradient><linearGradient id="linear-gradient-14" x1="41.28" y1="315.68" x2="90.58" y2="315.68" xlink:href="#linear-gradient"></linearGradient><linearGradient id="linear-gradient-15" x1="41.28" y1="311.56" x2="90.58" y2="311.56" xlink:href="#linear-gradient"></linearGradient><linearGradient id="linear-gradient-16" x1="40.94" y1="306.65" x2="87.1" y2="306.65" xlink:href="#linear-gradient"></linearGradient><linearGradient id="linear-gradient-17" x1="40.7" y1="302.33" x2="85.76" y2="302.33" xlink:href="#linear-gradient"></linearGradient><linearGradient id="linear-gradient-18" x1="40.56" y1="297.99" x2="84.97" y2="297.99" xlink:href="#linear-gradient"></linearGradient><linearGradient id="linear-gradient-19" x1="40.57" y1="294.13" x2="83.89" y2="294.13" xlink:href="#linear-gradient"></linearGradient><linearGradient id="linear-gradient-20" x1="40.57" y1="290.39" x2="82.95" y2="290.39" xlink:href="#linear-gradient"></linearGradient><linearGradient id="linear-gradient-21" x1="40.44" y1="286.59" x2="81.62" y2="286.59" xlink:href="#linear-gradient"></linearGradient><linearGradient id="linear-gradient-22" x1="40.2" y1="283.13" x2="80.27" y2="283.13" xlink:href="#linear-gradient"></linearGradient><linearGradient id="linear-gradient-23" x1="39.95" y1="279.39" x2="79.33" y2="279.39" xlink:href="#linear-gradient"></linearGradient><linearGradient id="linear-gradient-24" x1="42.8" y1="298.51" x2="46.4" y2="298.51" xlink:href="#linear-gradient"></linearGradient><linearGradient id="linear-gradient-25" x1="55.7" y1="298.02" x2="62.82" y2="298.02" xlink:href="#linear-gradient"></linearGradient><linearGradient id="linear-gradient-26" x1="70.78" y1="297.84" x2="83.51" y2="297.84" xlink:href="#linear-gradient"></linearGradient><linearGradient id="linear-gradient-27" x1="110.79" y1="276.05" x2="111.09" y2="272.23" xlink:href="#linear-gradient"></linearGradient><linearGradient id="linear-gradient-28" x1="107.14" y1="272.99" x2="107.43" y2="269.17" xlink:href="#linear-gradient"></linearGradient><linearGradient id="linear-gradient-29" x1="116.67" y1="275.03" x2="116.97" y2="271.21" xlink:href="#linear-gradient"></linearGradient><linearGradient id="linear-gradient-30" x1="113.02" y1="271.97" x2="113.32" y2="268.14" xlink:href="#linear-gradient"></linearGradient><linearGradient id="linear-gradient-31" x1="122.56" y1="274.01" x2="122.85" y2="270.19" xlink:href="#linear-gradient"></linearGradient><linearGradient id="linear-gradient-32" x1="118.9" y1="270.94" x2="119.2" y2="267.12" xlink:href="#linear-gradient"></linearGradient><linearGradient id="linear-gradient-33" x1="128.44" y1="272.99" x2="128.74" y2="269.17" xlink:href="#linear-gradient"></linearGradient><linearGradient id="linear-gradient-34" x1="124.79" y1="269.92" x2="125.08" y2="266.1" xlink:href="#linear-gradient"></linearGradient><linearGradient id="linear-gradient-35" x1="134.32" y1="271.97" x2="134.62" y2="268.14" xlink:href="#linear-gradient"></linearGradient><linearGradient id="linear-gradient-36" x1="130.67" y1="268.9" x2="130.97" y2="265.08" xlink:href="#linear-gradient"></linearGradient></defs><title>Accountant</title><path d="M49.81,292.93A126.12,126.12,0,0,1,7.89,200.88C7.57,166.14,27.63,137.43,53.2,114,71.41,97.24,135.94-38.95,258.44,12.88c40,16.93,38.32,77.54,65,111.91,8,10.33,17.93,19,27.19,28.25,16.45,16.39,31.28,35.16,38.73,57.18s6.58,47.74-6.5,66.93c-11.15,16.36-29.59,26.19-48.12,33.11-47.4,17.69-99.06,20.2-149.61,18.61C139,327.42,84.4,323.56,49.81,292.93Z" transform="translate(-7.88 -1.18)" fill="#10569a" opacity="0.18" style="isolation: isolate;"></path><path d="M192.52,226a2.92,2.92,0,0,1-.57,1.19q-6.24,9.12-13.34,17.59a1.52,1.52,0,0,1-.62.51,1.5,1.5,0,0,1-1.37-.49c-.24-.2-.47-.39-.7-.61-6.08-5.28-10-12.64-13.78-19.8-1.65-3.12-3.28-6.24-4.93-9.35a54.42,54.42,0,0,1-3.74-8.14c-1.49-4.47-1.82-9.22-2.14-13.92-.66-9.48-3.42-19.65-6.92-28.94-.93-2.49-1.92-4.91-2.94-7.23a206.26,206.26,0,0,1,22.78,4.8,12,12,0,0,1,3.58,1.4c2.27,1.5,3.32,4.27,4.12,6.88,1.42,4.64,2.49,9.36,3.45,14.12,2.79,14.08,7.68,28.32,16.3,40A3,3,0,0,1,192.52,226Z" transform="translate(-7.88 -1.18)" fill="#10569a"></path><path d="M185,231.35a2.84,2.84,0,0,1-.56,1.19q-4.08,6-8.54,11.64c-6.08-5.28-10-12.64-13.78-19.8-1.65-3.12-3.28-6.24-4.93-9.35a54.42,54.42,0,0,1-3.74-8.14c-1.49-4.47-1.82-9.22-2.14-13.92-.66-9.48-3.42-19.65-6.92-28.94,4.41.92,8.87,2,12.34,2.93a12.41,12.41,0,0,1,3.57,1.4c2.28,1.51,3.34,4.27,4.14,6.88a143,143,0,0,1,3.43,14.12c2.81,14.09,7.7,28.33,16.31,40A3,3,0,0,1,185,231.35Z" transform="translate(-7.88 -1.18)" fill="url(#linear-gradient)"></path><path d="M154.4,166.75c3.53,5.68,5,12.41,5.73,19.06s.65,13.38,1.41,20c.54,4.8,1.5,9.61,1.05,14.42-.9,9.64-9.78,15.49-8.45,28.91.2,2-7.39-.43-9.11.58-2.08,1.23-4.57,1.5-7,1.73-12.25,1.17-24.92,2.23-36.59-1.66A8.75,8.75,0,0,1,98,248a9.39,9.39,0,0,1-2-3.57,115.35,115.35,0,0,1-5.09-18.54c-1.06-5.75-1.69-11.57-2.81-17.31a102.84,102.84,0,0,0-5.31-18.12c-1.34-3.38-2.88-6.74-3.35-10.35-.85-6.4-7-16.1-1.76-19.93,2.14-1.58,22.66-3.75,26-5.23a42.78,42.78,0,0,1,5.24-2,37.12,37.12,0,0,1,11-1.09,52.79,52.79,0,0,1,10.42,1c3.2.7,6,2.51,9.06,3.22A23.46,23.46,0,0,1,154.4,166.75Z" transform="translate(-7.88 -1.18)" fill="#10569a"></path><path d="M154.4,166.75c3.53,5.68,5,12.41,5.73,19.06s.65,13.38,1.41,20c.54,4.8,1.5,9.61,1.05,14.42-.9,9.64-9.78,15.49-8.45,28.91.2,2-7.39-.43-9.11.58-2.08,1.23-4.57,1.5-7,1.73-12.25,1.17-24.92,2.23-36.59-1.66A8.75,8.75,0,0,1,98,248a9.39,9.39,0,0,1-2-3.57,115.35,115.35,0,0,1-5.09-18.54c-1.06-5.75-1.69-11.57-2.81-17.31a102.84,102.84,0,0,0-5.31-18.12c-1.34-3.38-2.88-6.74-3.35-10.35-.85-6.4-7-16.1-1.76-19.93,2.14-1.58,22.66-3.75,26-5.23a42.78,42.78,0,0,1,5.24-2,37.12,37.12,0,0,1,11-1.09,52.79,52.79,0,0,1,10.42,1c3.2.7,6,2.51,9.06,3.22A23.46,23.46,0,0,1,154.4,166.75Z" transform="translate(-7.88 -1.18)" fill="url(#linear-gradient-2)"></path><polygon points="22.04 345.82 394.1 345.82 315.08 247.62 23.75 247.62 22.04 345.82" fill="#3f3d56"></polygon><polygon points="22.04 345.82 394.1 345.82 315.08 247.62 23.75 247.62 22.04 345.82" fill="url(#linear-gradient-3)"></polygon><polygon points="99.81 268.37 99.81 271.45 112.89 288.69 147.12 282.72 147.5 275.63 133.97 262.89 99.81 268.37" fill="#10569a"></polygon><polygon points="99.81 268.37 99.81 271.45 112.89 288.69 147.12 282.72 147.5 275.63 133.97 262.89 99.81 268.37" fill="url(#linear-gradient-4)"></polygon><path d="M91.78,192.1a23.87,23.87,0,0,1-1,5.82c-.78,2.39-2.13,4.55-3,6.9a20.23,20.23,0,0,0-1.3,9.62,16.48,16.48,0,0,1,.25,4.08c-.13,1-.5,1.91-.72,2.88-.73,3.32.4,6.73,1.52,9.94a45.78,45.78,0,0,0-8.71,3.75l-.75.47a14.24,14.24,0,0,0-6.21,8.05c-.29,1.17-.61,2.63-1.78,2.89a2.16,2.16,0,0,1-1.58-.39c-2-1.32-2.42-4-2.62-6.4-.69-8.29-4.5-54.9,6-73.05,1.2-2.08,3.74-7.9,9.37-7.59,4.37.24,7.06,3.11,8.68,7.23C92.72,173.48,92.29,184.47,91.78,192.1Z" transform="translate(-7.88 -1.18)" fill="#10569a"></path><path d="M91.78,192.1a23.87,23.87,0,0,1-1,5.82c-.78,2.39-2.13,4.55-3,6.9a20.23,20.23,0,0,0-1.3,9.62,16.48,16.48,0,0,1,.25,4.08c-.13,1-.5,1.91-.72,2.88-.73,3.32.4,6.73,1.52,9.94a45.78,45.78,0,0,0-8.71,3.75c-1-17.07-1.48-48.62,6.73-62.8.77-1.33,2.08-4.18,4.39-6C92.72,173.48,92.29,184.47,91.78,192.1Z" transform="translate(-7.88 -1.18)" fill="url(#linear-gradient-5)"></path><path d="M111.77,152.74a51.29,51.29,0,0,1,.48,6.2c.88,18.75,7.22,36.83,15.1,53.86a45.06,45.06,0,0,1,3.46,9,40.28,40.28,0,0,1,.73,6.58l.77,13.22a40.1,40.1,0,0,1,3.62-19.25c2.3-5,5.61-9.42,7.52-14.54,3.45-9.24,2-19.52.14-29.21-1.3-6.91-3.74-15.25-3.1-22.26.29-.07-16.06-5.22-24.43-5.85A4.26,4.26,0,0,0,111.77,152.74Z" transform="translate(-7.88 -1.18)" fill="#fff"></path><path d="M106.35,154.08,97.62,182l11.28,5.12-3.83,12.16,15.37,15.74a24.68,24.68,0,0,1,5.26,8.13l6.4,16.24s2.06-14.59-6.25-31.66-14.08-55-14.08-55Z" transform="translate(-7.88 -1.18)" fill="#10569a"></path><path d="M106.35,154.08,97.62,182l11.28,5.12-3.83,12.16,15.37,15.74a24.68,24.68,0,0,1,5.26,8.13l6.4,16.24s2.06-14.59-6.25-31.66-14.08-55-14.08-55Z" transform="translate(-7.88 -1.18)" fill="url(#linear-gradient-6)"></path><path d="M140.49,156.38l3,1,11.63,22.09s-4.69,10.88-4.69,10,5.12,11.74,5.12,11.74-8.31,17.49-14.06,20.05-9.29,20.91-9.29,20.91-2.14-16.36,11.26-34.34c.78-1,2.29-8.76.8-21.56S138.56,160.18,140.49,156.38Z" transform="translate(-7.88 -1.18)" fill="#10569a"></path><path d="M140.49,156.38l3,1,11.63,22.09s-4.69,10.88-4.69,10,5.12,11.74,5.12,11.74-8.31,17.49-14.06,20.05-9.29,20.91-9.29,20.91-2.14-16.36,11.26-34.34c.78-1,2.29-8.76.8-21.56S138.56,160.18,140.49,156.38Z" transform="translate(-7.88 -1.18)" fill="url(#linear-gradient-7)"></path><path d="M98.05,135.46c-1.24-8.22-4.49-31,7.87-42.74,15.21-14.48,31.2-12.31,42.4-4a27.2,27.2,0,0,1,9.46,11.66c1.75,4.41,2.16,9.21,2.41,13.91a49.3,49.3,0,0,1,.06,9.64,23.08,23.08,0,0,1-3.15,8.8c-.58.95-1.23,1.85-1.79,2.82a22.1,22.1,0,0,0-2.68,9.14,55,55,0,0,0,.18,9.6c.05.53.38.54-.19.76a3.29,3.29,0,0,1-1.39-.09c-.85-.13-1.68-.37-2.52-.49-2.68-.37-5.35-.77-8-1.17l-30.15-.39-14-2.34A29.47,29.47,0,0,0,98.05,135.46Z" transform="translate(-7.88 -1.18)" fill="#ff979a"></path><path d="M98.05,135.46c-1.24-8.22-4.49-31,7.87-42.74,15.21-14.48,31.2-12.31,42.4-4a29.58,29.58,0,0,1,11.14,18.07,48.36,48.36,0,0,1,.94,9.06c.07,3.75,0,8.32-1.35,11.85-.86,2.34-2.4,4.36-3.48,6.61a37.23,37.23,0,0,0-2.73,10.26,28,28,0,0,0,.23,10.37c-2.15.27-4.85-.53-7-.85-1.79-.25-3.58-.52-5.37-.79l-30.15-.39-14-2.34A29.47,29.47,0,0,0,98.05,135.46Z" transform="translate(-7.88 -1.18)" fill="url(#linear-gradient-8)"></path><path d="M137.29,165.54a10.8,10.8,0,0,1-7.78,4.81,5.35,5.35,0,0,1-.69,0,9,9,0,0,1-2.37-.35,16,16,0,0,1-5.72-3.19,30.84,30.84,0,0,1-8.79-11.7,3.71,3.71,0,0,1-.35-1.25c0-.27.77-.78,1.78-2.05a17.89,17.89,0,0,0,3.29-7.23c.47-1.94-.24-6.73-.31-9.38,0-1.12,0-1.86.34-1.87a3.88,3.88,0,0,1,2.16.86,29.59,29.59,0,0,1,8.79,9.5l.49.89a24.58,24.58,0,0,1,2.59,6.59c.46,2.45,2.87,1.27,5.68,2,.38.1.69.75.94,1.7C138.14,157.94,138.28,164.16,137.29,165.54Z" transform="translate(-7.88 -1.18)" fill="#ffdad2"></path><path d="M137.34,154.89c0,.34,0,.7,0,1-.1,2.4-.18,4.8-.28,7.2-.05,1.28-.19,2.74-1.22,3.47a41.3,41.3,0,0,1-7,3.76,2.17,2.17,0,0,1-1.45.2,7.18,7.18,0,0,1-.92-.55c-4.12-3-10.37-12.82-13.08-18.19a17.89,17.89,0,0,0,3.29-7.23c.47-1.94-.24-6.73-.31-9.38,1.83,1.38,6.92,5.23,11.29,8.49,3.08,2.31,5.8,4.33,6.75,5a8.13,8.13,0,0,1,1.74,1.46A7.34,7.34,0,0,1,137.34,154.89Z" transform="translate(-7.88 -1.18)" fill="url(#linear-gradient-9)"></path><path d="M120.11,246c1.26.69,2.35,1.66,3.56,2.44.59.38,1.21.71,1.81,1a35.53,35.53,0,0,1,5.38,3.72,1.88,1.88,0,0,1,.82,1.24,1.43,1.43,0,0,1-.79,1.16,4.56,4.56,0,0,1-3.74,0,13.69,13.69,0,0,0-3.69-1.09c-.51,0-1,0-1.52,0a4.58,4.58,0,0,1-1.54-.62,17.87,17.87,0,0,1-5.68-6.07,4.32,4.32,0,0,1-.89-2.18c0-.79.79-.7,1.43-.73A9.43,9.43,0,0,1,120.11,246Z" transform="translate(-7.88 -1.18)" fill="#ffdad2"></path><path d="M191.21,228a115.25,115.25,0,0,0,28.48,6.71c4.34.45,8.83.69,12.75,2.62,4.72,2.33,8,6.79,11,11.1a2.87,2.87,0,0,1,.76,2.38c-.33,1-1.65,1.31-2.73,1.27-6.11-.23-11.09-5.15-17.08-6.37a2.65,2.65,0,0,0,1.27,2.76,24.87,24.87,0,0,1,2.72,1.77c.29.27.56.67.41,1a1,1,0,0,1-.45.44c-1.38.78-3.1.32-4.6-.19-3.2-1.07-6.48-2.36-8.74-4.88-1-1.16-1.88-2.6-3.29-3.26a7.5,7.5,0,0,0-3.86-.37c-8.9.7-20.26,4.51-28.94,2.42a4.42,4.42,0,0,1-1.61-.64c-1.1-.81-2.21-4-2.14-5.4a12.61,12.61,0,0,1,3-7.88c1.94-2.11,10.36-4.46,13.06-3.52" transform="translate(-7.88 -1.18)" fill="#ffdad2"></path><polygon points="176.05 267.97 229.67 288.69 310.85 272.45 258.36 251.91 176.05 264.39 176.05 267.97" fill="#10569a"></polygon><polygon points="176.05 264.39 229.67 285.12 310.85 268.88 258.36 248.33 176.05 264.39" fill="#10569a"></polygon><polygon points="176.05 264.39 229.67 285.12 310.85 268.88 258.36 248.33 176.05 264.39" fill="url(#linear-gradient-10)"></polygon><polygon points="113.6 281.68 147.5 275.63 133.97 262.89 100.67 268.33 113.6 281.68" fill="#10569a"></polygon><polygon points="79.5 271.98 99.2 324.34 35.05 326.65 35.41 272.67 79.5 271.98" fill="#fff"></polygon><path d="M96.64,239.65c3,1.65,6.16,3.31,9.57,3.92,2.76.5,5.62.28,8.34.94,4.69,1.14,8.5,4.83,10.63,9.17S127.94,263,128,267.8c0,.42-.11,1-.52,1a.87.87,0,0,1-.57-.21c-3.28-2.34-3.74-7.33-7-9.71l2.32,8.39c.21.77.3,1.82-.44,2.12a1.35,1.35,0,0,1-.93,0c-2.41-.7-4-2.9-5.34-5s-2.59-4.46-4.75-5.72q1.82,5,3.43,10c-1.12.47-2.37-.27-3.27-1.09-2.68-2.48-4.27-5.89-5.79-9.21a29.47,29.47,0,0,1,1.22,8.39c-1.24.15-2.1-1.16-2.65-2.29L97.8,252.26a3.22,3.22,0,0,0-.66-1,3.15,3.15,0,0,0-1.17-.55c-7.57-2.32-15.65-1.1-23.23-3.42a12.21,12.21,0,0,1-3.1-1.28c-1.7-1.1-2.28-6.63-2.28-8.65a6.23,6.23,0,0,1,2.79-5.13c2.08-1.34,4.63-1.25,7-1.34,2-.07,5.79-.93,7.54.12C89.36,233.81,91.86,237.08,96.64,239.65Z" transform="translate(-7.88 -1.18)" fill="#ffdad2"></path><polygon points="111.1 276.29 113.86 279.73 144.16 274.36 139.48 270.97 111.1 276.29" fill="#fff"></polygon><polygon points="229.67 288.7 310.85 272.45 330.35 199.91 249.18 216.15 229.67 288.7" fill="#10569a"></polygon><polygon points="229.67 288.7 310.85 272.45 330.35 199.91 249.18 216.15 229.67 288.7" fill="url(#linear-gradient-11)"></polygon><polygon points="231.88 288.33 313.06 272.08 332.56 199.54 251.38 215.78 231.88 288.33" fill="#10569a"></polygon><path d="M88.74,231.5a7.47,7.47,0,0,0-1.61-2.39,6.11,6.11,0,0,0-1.82-1.58,6.1,6.1,0,0,0-2.76-.38l-10.12.16c-2,0-4.17.11-5.8,1.31-1.87,1.38-2.52,3.94-2.38,6.26a52.36,52.36,0,0,0,1.41,6.85,12,12,0,0,0,1.39,4.51c.89,1.3,2.81,2.09,4.09,1.17a23.11,23.11,0,0,1-.21-9.07,5.13,5.13,0,0,1,2.52-3.74,6.21,6.21,0,0,1,2.47-.37l8.49-.11C86.42,234.09,89.86,234.74,88.74,231.5Z" transform="translate(-7.88 -1.18)" fill="#10569a"></path><path d="M88.74,231.5a7.47,7.47,0,0,0-1.61-2.39,6.11,6.11,0,0,0-1.82-1.58,6.1,6.1,0,0,0-2.76-.38l-10.12.16c-2,0-4.17.11-5.8,1.31-1.87,1.38-2.52,3.94-2.38,6.26a52.36,52.36,0,0,0,1.41,6.85,12,12,0,0,0,1.39,4.51c.89,1.3,2.81,2.09,4.09,1.17a23.11,23.11,0,0,1-.21-9.07,5.13,5.13,0,0,1,2.52-3.74,6.21,6.21,0,0,1,2.47-.37l8.49-.11C86.42,234.09,89.86,234.74,88.74,231.5Z" transform="translate(-7.88 -1.18)" fill="url(#linear-gradient-12)"></path><polygon points="41.3 321.22 92.71 318.72 78.07 276.51 39.51 276.51 41.3 321.22" fill="none" stroke-miterlimit="10" stroke-width="0.95" stroke="url(#linear-gradient-13)"></polygon><line x1="41.3" y1="316.57" x2="90.57" y2="314.78" fill="none" stroke-miterlimit="10" stroke-width="0.95" stroke="url(#linear-gradient-14)"></line><line x1="41.3" y1="312.46" x2="90.57" y2="310.67" fill="none" stroke-miterlimit="10" stroke-width="0.95" stroke="url(#linear-gradient-15)"></line><line x1="40.96" y1="307.54" x2="87.09" y2="305.75" fill="none" stroke-miterlimit="10" stroke-width="0.92" stroke="url(#linear-gradient-16)"></line><line x1="40.71" y1="303.02" x2="85.75" y2="301.64" fill="none" stroke-miterlimit="10" stroke-width="0.92" stroke="url(#linear-gradient-17)"></line><line x1="40.59" y1="299.18" x2="84.94" y2="296.81" fill="none" stroke-miterlimit="10" stroke-width="0.92" stroke="url(#linear-gradient-18)"></line><line x1="40.59" y1="295.07" x2="83.87" y2="293.19" fill="none" stroke-miterlimit="10" stroke-width="0.92" stroke="url(#linear-gradient-19)"></line><line x1="40.59" y1="291.22" x2="82.94" y2="289.57" fill="none" stroke-miterlimit="10" stroke-width="0.92" stroke="url(#linear-gradient-20)"></line><line x1="40.46" y1="287.38" x2="81.6" y2="285.81" fill="none" stroke-miterlimit="10" stroke-width="0.92" stroke="url(#linear-gradient-21)"></line><line x1="40.21" y1="283.66" x2="80.26" y2="282.59" fill="none" stroke-miterlimit="10" stroke-width="0.92" stroke="url(#linear-gradient-22)"></line><line x1="39.96" y1="279.68" x2="79.32" y2="279.1" fill="none" stroke-miterlimit="10" stroke-width="0.92" stroke="url(#linear-gradient-23)"></line><line x1="45.94" y1="320.51" x2="43.26" y2="276.51" fill="none" stroke-miterlimit="10" stroke-width="0.92" stroke="url(#linear-gradient-24)"></line><line x1="56.16" y1="276.42" x2="62.36" y2="319.61" fill="none" stroke-miterlimit="10" stroke-width="0.92" stroke="url(#linear-gradient-25)"></line><line x1="71.22" y1="276.42" x2="83.07" y2="319.25" fill="none" stroke-miterlimit="10" stroke-width="0.92" stroke="url(#linear-gradient-26)"></line><path d="M152.64,145a30.55,30.55,0,0,1-4.18,5.31c-2.76,3-5.63,6.11-9.35,7.81a9,9,0,0,1-3.89.91c-2.33-.08-4.41-1.47-6.19-3-11.27-9.47-16.21-25.34-14-39.91a23.56,23.56,0,0,1,3.5-9.91c3.21-4.65,8.83-7.2,14.44-7.86A24.11,24.11,0,0,1,145.47,100a18.54,18.54,0,0,1,9.17,8.45,32.62,32.62,0,0,1,2,5.69C157.66,117.66,154,142.69,152.64,145Z" transform="translate(-7.88 -1.18)" fill="#ffdad2"></path><path d="M148.45,110.13a25.13,25.13,0,0,1-8.82,5A48.13,48.13,0,0,1,133.2,117c-3.49.75-7.13,1.14-10.26,2.85-4.38,2.38-7.11,7-8.72,11.73a13.07,13.07,0,0,1-3.79-5,18.36,18.36,0,0,1-1.36-6.68,31.59,31.59,0,0,1,3.05-14.85A22.13,22.13,0,0,1,121.19,95a25.84,25.84,0,0,1,7.07-2.37,30.5,30.5,0,0,1,10.2-.63,21.61,21.61,0,0,1,12.59,6.37c1.86,1.93,2,3,1.29,5.51A13.88,13.88,0,0,1,148.45,110.13Z" transform="translate(-7.88 -1.18)" fill="#ff979a"></path><polygon points="109.92 275.42 107.01 272.77 111.93 271.84 114.97 274.3 109.92 275.42" fill="url(#linear-gradient-27)"></polygon><polygon points="106.26 272.35 103.35 269.7 108.28 268.77 111.31 271.24 106.26 272.35" fill="url(#linear-gradient-28)"></polygon><polygon points="115.8 274.39 112.89 271.75 117.81 270.82 120.85 273.28 115.8 274.39" fill="url(#linear-gradient-29)"></polygon><polygon points="112.15 271.33 109.24 268.68 114.16 267.75 117.19 270.21 112.15 271.33" fill="url(#linear-gradient-30)"></polygon><polygon points="121.68 273.37 118.77 270.73 123.7 269.79 126.73 272.26 121.68 273.37" fill="url(#linear-gradient-31)"></polygon><polygon points="118.03 270.31 115.12 267.66 120.04 266.73 123.08 269.19 118.03 270.31" fill="url(#linear-gradient-32)"></polygon><polygon points="127.57 272.35 124.66 269.7 129.58 268.77 132.62 271.24 127.57 272.35" fill="url(#linear-gradient-33)"></polygon><polygon points="123.91 269.28 121 266.64 125.93 265.71 128.96 268.17 123.91 269.28" fill="url(#linear-gradient-34)"></polygon><polygon points="133.45 271.33 130.54 268.68 135.46 267.75 138.5 270.21 133.45 271.33" fill="url(#linear-gradient-35)"></polygon><polygon points="129.8 268.26 126.89 265.62 131.81 264.69 134.84 267.15 129.8 268.26" fill="url(#linear-gradient-36)"></polygon></svg>