<?xml version="1.0" encoding="UTF-8" standalone="no"?><!-- Generator: Gravit.io --><svg xmlns="http://www.w3.org/2000/svg" xmlns:xlink="http://www.w3.org/1999/xlink" style="isolation:isolate" viewBox="0 0 342 306" width="342pt" height="306pt"><defs><clipPath id="_clipPath_ldGtYfVSH26ZQRR3iFj6VjDJMmaba3vY"><rect width="342" height="306"/></clipPath></defs><g clip-path="url(#_clipPath_ldGtYfVSH26ZQRR3iFj6VjDJMmaba3vY)"><g opacity="0.18"><path d=" M 304.611 152.947 C 304.258 236.938 235.978 304.789 151.986 304.613 C 67.995 304.436 0 236.298 0 152.306 C 0 68.315 67.995 0.177 151.986 0 C 235.978 -0.176 304.258 67.675 304.611 151.666 L 304.611 152.947 Z " fill="rgb(54,40,193)"/></g><path d=" M 107.309 110.819 C 105.943 109.815 104.299 109.261 102.604 109.232 C 101.609 109.338 100.654 109.682 99.819 110.234 C 96.658 112.421 94.847 116.084 95.03 119.924 C 95.27 123.731 96.848 127.33 99.485 130.087 C 101.441 132.543 104.343 134.06 107.476 134.264 C 108.023 134.29 108.565 134.154 109.036 133.874 C 109.81 133.074 110.197 131.975 110.094 130.867 C 110.316 126.774 110.567 122.513 110.79 118.56 C 111.012 114.606 111.096 113.214 107.309 110.819 Z " fill="rgb(247,175,135)"/><path d=" M 196.104 110.735 C 197.456 109.729 199.095 109.182 200.781 109.176 C 201.783 109.253 202.745 109.599 203.566 110.179 C 206.685 112.339 208.489 115.938 208.355 119.729 C 208.155 123.519 206.627 127.117 204.039 129.892 C 202.083 132.348 199.181 133.865 196.048 134.069 C 195.502 134.083 194.963 133.948 194.489 133.679 C 193.724 132.948 193.308 131.924 193.347 130.867 C 193.096 126.774 192.874 122.513 192.623 118.56 C 192.373 114.606 192.317 113.13 196.104 110.735 Z " fill="rgb(247,175,135)"/><path d=" M 259.282 257.195 L 259.282 261.733 C 199.676 320.756 103.653 320.756 44.048 261.733 L 44.048 244.442 C 44.048 244.442 57.469 193.989 104.107 188.253 C 150.746 182.517 201.171 190.146 201.171 190.146 C 201.171 190.146 250.371 196.55 259.282 257.195 Z " fill="rgb(54,40,193)"/><path d=" M 122.93 183.77 C 121.844 185.631 121.206 187.718 121.064 189.868 C 121.145 191.139 121.456 192.384 121.983 193.543 C 126.147 203.172 134.591 210.287 144.787 212.756 C 147.494 213.599 150.306 214.058 153.14 214.12 C 161.494 214.12 170.014 208.301 175.109 198.889 C 175.417 198.411 175.608 197.868 175.666 197.302 C 175.64 196.57 175.439 195.854 175.081 195.214 C 171.907 188.392 172.464 179.566 173.327 171.547 C 173.435 170.877 173.388 170.191 173.188 169.542 C 172.931 169.067 172.503 168.709 171.991 168.539 C 166.422 166.228 160.575 167.648 154.839 167.426 C 146.848 167.119 139.079 163.472 131.088 163.444 C 127.524 163.444 127.246 164.781 126.744 169.236 C 126.261 174.254 124.973 179.161 122.93 183.77 L 122.93 183.77 Z " fill="rgb(247,175,135)"/><linearGradient id="_lgradient_3" x1="0.1736368448914769" y1="1.1503478355925267" x2="1.1307570142932764" y2="-0.20698408605914143" gradientTransform="matrix(52.597,0,0,33.887,123.041,160.687)" gradientUnits="userSpaceOnUse"><stop offset="0%" stop-opacity="1" style="stop-color:rgb(0,0,0)"/><stop offset="100%" stop-opacity="1" style="stop-color:rgb(0,0,0)"/></linearGradient><path d=" M 123.041 160.687 C 123.041 160.687 127.635 178.758 138.829 190.592 C 138.829 190.592 176.474 200.17 173.355 189.617 C 170.571 180.735 175.638 160.687 175.638 160.687 L 123.041 160.687 Z " fill="url(#_lgradient_3)"/><path d=" M 196.688 126.634 C 193.18 156.288 176.696 180.707 152.138 180.707 C 127.58 180.707 107.309 156.511 107.309 126.634 C 107.309 96.758 123.18 63.039 147.85 63.039 C 172.52 63.039 203.928 65.99 196.688 126.634 Z " fill="rgb(247,175,135)"/><path d=" M 97.313 81.471 C 97.091 76.237 97.313 70.334 100.682 66.547 C 101.593 65.706 102.414 64.773 103.133 63.763 C 103.712 62.444 104.033 61.026 104.079 59.586 C 105.416 48.448 113.518 39.009 122.818 32.633 C 133.014 25.677 144.826 21.458 157.122 20.382 C 161.079 19.963 165.076 20.132 168.984 20.883 C 172.886 21.855 176.634 23.363 180.121 25.366 C 185.798 28.213 190.852 32.159 194.99 36.977 C 199.137 41.855 201.144 48.198 200.559 54.574 C 206.038 56.911 210.254 61.482 212.142 67.132 C 213.955 72.924 214.534 79.033 213.84 85.063 C 212.643 99.431 207.158 114.188 195.686 122.903 C 195.878 112.87 193.653 102.938 189.198 93.946 C 187.639 90.799 185.801 87.764 184.548 84.479 C 183.264 81.024 182.632 77.361 182.683 73.675 C 177.894 76.237 175.081 81.471 170.543 84.506 C 167.65 86.259 164.444 87.432 161.104 87.959 C 150.347 90.075 139.247 89.685 128.666 86.817 C 124.489 85.676 119.171 84.506 116.526 87.959 C 115.269 90.335 114.718 93.021 114.938 95.7 C 114.588 98.611 113.897 101.471 112.878 104.22 L 106.335 123.906 C 104.135 121.984 97.814 93.305 97.313 81.471 Z " fill="rgb(64,64,64)"/><linearGradient id="_lgradient_4" x1="0" y1="0.5" x2="0.9989534918582199" y2="0.45426247597137215" gradientTransform="matrix(8.087,0,0,13.61,99.186,117.847)" gradientUnits="userSpaceOnUse"><stop offset="100%" stop-opacity="1" style="stop-color:rgb(0,0,0)"/><stop offset="100%" stop-opacity="1" style="stop-color:rgb(0,0,0)"/></linearGradient><path d=" M 103.522 123.711 C 103.251 121.949 102.735 120.234 101.991 118.615 C 101.829 118.296 101.564 118.041 101.239 117.891 C 100.747 117.753 100.221 117.944 99.931 118.365 C 99.626 118.761 99.433 119.232 99.374 119.729 C 98.652 123.682 100.045 127.725 103.049 130.393 C 103.539 130.857 104.13 131.2 104.775 131.396 C 105.434 131.565 106.132 131.375 106.613 130.894 C 109.008 128.221 104.163 126.105 103.522 123.711 Z " fill="url(#_lgradient_4)"/><linearGradient id="_lgradient_5" x1="0" y1="0.5" x2="0.9989548954718123" y2="0.45429314260528697" gradientTransform="matrix(8.085,0,0,13.598,196.388,116.494)" gradientUnits="userSpaceOnUse"><stop offset="100%" stop-opacity="1" style="stop-color:rgb(0,0,0)"/><stop offset="100%" stop-opacity="1" style="stop-color:rgb(0,0,0)"/></linearGradient><path d=" M 200.141 122.346 C 200.386 120.574 200.893 118.847 201.645 117.223 C 201.823 116.923 202.084 116.682 202.396 116.527 C 202.89 116.416 203.404 116.588 203.733 116.972 C 204.042 117.377 204.235 117.858 204.29 118.365 C 205.005 122.322 203.601 126.366 200.586 129.029 C 200.111 129.497 199.528 129.842 198.888 130.031 C 198.23 130.201 197.531 130.01 197.05 129.53 C 194.656 126.801 199.473 124.685 200.141 122.346 Z " fill="url(#_lgradient_5)"/><g opacity="0.18"><circle vector-effect="non-scaling-stroke" cx="275.9879125204004" cy="222.41750124951574" r="64.82072182661695" fill="rgb(54,40,193)"/></g><circle vector-effect="non-scaling-stroke" cx="266.3260609422922" cy="214.70472635863385" r="64.82072182661695" fill="rgb(255,255,255)"/><rect x="139.225" y="230.316" width="17.702" height="53.757" transform="matrix(1,0,0,1,0,0)" fill="rgb(255,255,255)"/><rect x="121.486" y="248.335" width="53.757" height="17.702" transform="matrix(1,0,0,1,0,0)" fill="rgb(255,255,255)"/><path d=" M 276.521 225.457 C 274.338 225.457 272.384 226.319 270.89 227.67 L 250.403 215.745 C 250.547 215.085 250.662 214.424 250.662 213.734 C 250.662 213.045 250.547 212.384 250.403 211.723 L 270.66 199.914 C 272.211 201.35 274.251 202.241 276.521 202.241 C 281.282 202.241 285.141 198.382 285.141 193.621 C 285.141 188.861 281.282 185.001 276.521 185.001 C 271.761 185.001 267.901 188.861 267.901 193.621 C 267.901 194.311 268.016 194.972 268.16 195.633 L 247.903 207.442 C 246.352 206.005 244.312 205.114 242.042 205.114 C 237.281 205.114 233.422 208.974 233.422 213.734 C 233.422 218.495 237.281 222.354 242.042 222.354 C 244.312 222.354 246.352 221.463 247.903 220.027 L 268.361 231.951 C 268.217 232.554 268.131 233.186 268.131 233.847 C 268.131 238.473 271.895 242.208 276.521 242.208 C 281.147 242.208 284.911 238.473 284.911 233.847 C 284.911 231.622 284.027 229.488 282.454 227.915 C 280.88 226.341 278.746 225.457 276.521 225.457 Z " fill="rgb(0,0,0)"/></g></svg>