<svg xmlns="http://www.w3.org/2000/svg" xmlns:xlink="http://www.w3.org/1999/xlink" viewBox="0 0 414.1 349.7" width="406" height="306" xmlns:v="https://vecta.io/nano"><defs><linearGradient id="A" x1="362" y1="-94.8" x2="341.4" y2="280.9" gradientUnits="userSpaceOnUse"><stop offset="0" stop-color="#fff" stop-opacity="0"/><stop offset=".1" stop-color="#fff" stop-opacity=".1"/><stop offset=".3" stop-color="#fff" stop-opacity=".4"/><stop offset=".7" stop-color="#fff" stop-opacity=".7"/><stop offset="1" stop-color="#fff"/></linearGradient><linearGradient id="B" x1="276.7" y1="-291.9" x2="256.2" y2="83.8" gradientUnits="userSpaceOnUse"><stop offset="0" stop-color="#fff" stop-opacity="0"/><stop offset=".3" stop-color="#fff" stop-opacity=".4"/><stop offset=".7" stop-color="#fff" stop-opacity=".7"/><stop offset="1" stop-color="#fff"/></linearGradient><linearGradient id="C" x1="99.6" y1="-203.9" x2="79" y2="171.7" xlink:href="#B"/><linearGradient id="D" x1="78.9" y1="-97.1" x2="58.3" y2="278.5" xlink:href="#B"/><linearGradient id="E" x1="172" y1="198.1" x2="209.5" y2="249.9" xlink:href="#B"/><linearGradient id="F" x1="136.7" y1="253.9" x2="91" y2="293.6" gradientUnits="userSpaceOnUse"><stop offset="0" stop-opacity="0"/><stop offset="1"/></linearGradient></defs><g fill="#68e1fd"><path d="M406 215c-7.3 13.8-20.6 24.6-24.2 39.7-1.6 6.6-1.2 13.4-2 20-3 23.5-20.5 43-41.5 54a74 74 0 0 1-2.7 1.4 150 150 0 0 1-43.9 12.7l-28 3q-58 4.6-116 3.3c-18.7-.4-37.8-1.3-55.4-7.5l-2.7-1a122 122 0 0 1-38.2-25.1l-.5-.5a165 165 0 0 1-39.5-55.6 145 145 0 0 1-6.4-95.2c5.3-18.7 14.5-36.6 16-56 1-14.6-2.4-29.4-.1-43.8C25.7 36 52.4 15 80.5 7.8s57.8-3 86.6 1c14 2 30.5 7.4 44.4 3 17-5.3 31.5-11.8 50-12a55 55 0 0 1 22.1 3.8c8.4 3.6 15 10.3 21.8 16.4 19 17 40.6 30.7 60 47.2s37 36.6 44 61a147 147 0 0 1 4.7 36.9c.5 17 0 34.7-8 49.7z" opacity=".2"/><rect x="96.3" y="113.1" width="226.9" height="161.6" rx="15.3"/></g><path fill="#fff" d="M110.2 124.6h199.2V260H110.2z"/><path d="M201.6 187.6h6V242h-6zm10.4 9h6V242h-6zm10 8h6V242h-6zm10.3-8h6V242h-6zm10 18.2h6V242h-6zm10.4-18.2h6V242h-6zM263 210h6v32h-6zm10.2-6h6v38h-6zM132 220.6h34v2h-34zm0 5.4h34v2h-34zm0 5.6h34v2h-34zm0 5.4h34v2h-34zm0 5.6h34v2h-34zm34.6-91.6a22.1 22.1 0 1 0-.1 44.2v-7.7h-.1c-8 0-14.6-6.5-14.6-14.6s6.5-14.6 14.6-14.6S181 165 181 173v2h7.8l.1-2a22 22 0 0 0-22.1-22.1z" fill="#68e1fd"/><rect x="312.4" y="132.9" width="70.4" height="69.1" rx="7.5" fill="url(#A)"/><rect x="221.9" y="33.1" width="70.4" height="69.1" rx="7.5" fill="url(#B)"/><rect x="49.9" y="25.4" width="70.4" height="69.1" rx="7.5" fill="url(#C)"/><rect x="29.5" y="128.9" width="70.4" height="69.1" rx="7.5" fill="url(#D)"/><g fill="#68e1fd"><path d="M277 210.3l-.8-.2 13-50.3H313v.8h-23l-13 49.7zm-55-128h-11l-29.5 99-.7-.1 29.5-100H222v.8zm-57 76l-26-81.4h-20.3V76h21l.1.3 26 81.7-.8.3zM135 189l-18.5-20.6h-18v-.8H117l18.7 20.8-.6.5z"/><path d="M188.6 175.3a22 22 0 0 1-22 20.2h-.1V188c7.2 0 13.3-5.4 14.4-12.5z"/></g><path d="M198.6 209.5a22 22 0 0 1-22 20.2h-.1V222c7.2 0 13.3-5.4 14.4-12.5z" transform="translate(-10 -34.4)" fill="url(#E)"/><path fill="#68e1fd" d="M112 198l10.3-21.6 23.8 14-16.4 33.8-12.8-7-5-19z"/><path fill="#fff" d="M114 196l8.7-16.8 19.6 11.4-14.8 29.7-10-7.7L114 196z"/><path d="M113.2 249l6.8 42.3-6.8 42.2 3.8 3-6.3-.3.5-43.6L99.5 262l1.4 32-7 41 3 1.6-7-.3 3-42.7-5.3-25.5s-4.7-18.5 0-21.6 25.4 2.5 25.4 2.5z" fill="#3e3e54"/><path d="M88.2 185.7s16.6 2 20.7 5 8.4 7.8 8.4 11.6A616 616 0 0 0 119 225l7-16 3.8 2.2s-4.4 27.6-7 28.4-9.2-1-9.2-1l-.4 10.4s-22.5 2.2-25.5-2.5-10-53.2.5-61z" fill="#68e1fd"/><g fill="#eea886"><path d="M102.5 180.5s-2 4.2-1 7.7c0 0-6.2-.8-6.3-1.6s.8-7.2.1-9.2 7.2 3 7.2 3z"/><path d="M96 163.3c2.4-1 9-2.5 11.5 7.4s-1.3 10.4-5.2 10.4a18 18 0 0 1-11-8.3c-.6-2-2.3-6.6 4.6-9.6zm30.2 41c0-.3 0-.5.1-.8.2-.7 1-1 1.4-1.8.2-.4.4-1 .4-1.3 0-.4.1-.8.3-1.2s.6-.6 1-.6c.6.1.8.7 1 1.2 1 3.3.8 6.8-.4 10-.2.5-.5 1-1 1-.2 0-.3-.1-.5-.2-1-.5-2.4-1-2.5-2.2-.1-1.4.1-2.8.1-4.2z"/></g><path d="M128.5 201l-4.7-4.4-.4.8 4.3 4.5s1-.3.8-1z" fill="#68e1fd"/><path d="M123.6 273s-2.4-1-3.2-8l-1.8-14.2v33h5.5z" transform="translate(-10 -34.4)" fill="url(#F)"/><path d="M103.3 161c-.4-1-1.2-2-2.3-2.5-.8-.5-1.7-.5-2.5-.1-.5-.7-1.3-1-2-1-.7-.1-1.4 0-2 .3-.6.3-1 1-.8 1.8-1-.1-2-.1-3 0-.3 0-.6.1-1 .3-.3.3-.6.6-.7 1-.5 1.3-.8 2.6-.8 4-1 .7-1.7 2-1.8 3.2-.1 1.3.5 2.5 1.5 3.4-.4 1.3-.2 2.7.5 4 .8 1.2 2.2 1.7 3.5 1.4 0 .6.1 1.3.6 1.6.2.1.4.1.6.1.6 0 1.2-.1 1.7-.4-.1.5-.1 1 0 1.4.1.5.5.8 1 .8.3-.1.6-.2 1-.5.7-.5 1.2-1.2 1.5-2 .1-.7.2-1.4.2-2.2.2-1 .7-1.7.5-2.5s-1-1.2-1.4-1.7-.8-1.5-.3-2 1.4-.1 2 .5c.3.3.6.5 1 .4s.2-.6.1-1c-.3-.6-.5-1.3-.7-2-.2-.7 0-1.5.6-2 1-.7 2.3-.3 3-1s.6-2.3.2-3.2z" fill="#3e3e54"/></svg>