<svg id="Layer_1" data-name="Layer 1" xmlns="http://www.w3.org/2000/svg" xmlns:xlink="http://www.w3.org/1999/xlink" viewBox="0 0 372.22 306.04" width="406" height="306" class="illustration styles_illustrationTablet__1DWOa"><defs><linearGradient id="linear-gradient" x1="213.67" y1="-33.96" x2="206.23" y2="656.73" gradientUnits="userSpaceOnUse"><stop offset="0.01"></stop><stop offset="0.13" stop-opacity="0.69"></stop><stop offset="0.25" stop-opacity="0.32"></stop><stop offset="1" stop-opacity="0"></stop></linearGradient><linearGradient id="linear-gradient-2" x1="165.39" y1="67.88" x2="413.4" y2="651.93" xlink:href="#linear-gradient"></linearGradient><linearGradient id="linear-gradient-3" x1="118.99" y1="9.94" x2="296.62" y2="539.12" xlink:href="#linear-gradient"></linearGradient><linearGradient id="linear-gradient-4" x1="91.19" y1="156.85" x2="77.82" y2="185.68" xlink:href="#linear-gradient"></linearGradient><linearGradient id="linear-gradient-5" x1="70.91" y1="183.97" x2="71.76" y2="184.91" xlink:href="#linear-gradient"></linearGradient><linearGradient id="linear-gradient-6" x1="64.5" y1="142.93" x2="88.52" y2="212.38" xlink:href="#linear-gradient"></linearGradient><linearGradient id="linear-gradient-7" x1="76.13" y1="193.16" x2="115.93" y2="237.61" xlink:href="#linear-gradient"></linearGradient><linearGradient id="linear-gradient-8" x1="211.04" y1="204.54" x2="360.46" y2="-50.91" xlink:href="#linear-gradient"></linearGradient></defs><title>6</title><path d="M391.06,260.79c-3.24,16-10.38,31.11-22.58,41.71-19.85,17.26-48.82,19.25-74.89,15.69S242,306.4,215.66,306.43c-34.73,0-65.21,21.85-98.08,21.41-30.33-.4-60.19-17.6-77.44-42.2q-1.55-2.2-3-4.49c-.29-.45-.56-.91-.84-1.36-.74-1.23-1.44-2.45-2.11-3.69-.31-.56-.61-1.14-.9-1.71s-.64-1.24-.95-1.87c0-.06-.06-.1-.08-.15-.32-.63-.61-1.26-.91-1.91A107.51,107.51,0,0,1,24.74,252a118.44,118.44,0,0,1,3.41-70.37c.74-2,1.54-4,2.41-6,4.25-9.75,10.05-18.88,18.06-25.83,16.16-14,38.74-17.42,58.17-26.44A131.75,131.75,0,0,0,133,106.84c28.3-22.43,50.63-53.93,82.53-71.49a111,111,0,0,1,44.19-13.11,125.61,125.61,0,0,1,74.42,17.17c51.69,30.93,41.62,85.16,50.81,137.47,3.84,21.84,8.84,43.72,8.15,65.87A107.89,107.89,0,0,1,391.06,260.79Z" transform="translate(-20.95 -21.81)" fill="#10569a" opacity="0.18" style="isolation: isolate;"></path><rect x="94.46" y="131.92" width="233.67" height="113.83" fill="#10569a"></rect><rect x="108.09" y="146.13" width="206.37" height="85.03" fill="url(#linear-gradient)"></rect><circle cx="205.95" cy="187.76" r="32.53" fill="#10569a"></circle><path d="M223.43,234.55l.24-6a17,17,0,0,1-8.91-3l1.56-3.89a15.73,15.73,0,0,0,8.34,2.87c4.22.16,7.12-2.13,7.26-5.49s-2.09-5.34-6.37-7.3c-5.93-2.6-9.53-5.46-9.33-10.58.19-4.89,3.81-8.46,9.28-9.13l.23-6,3.66.14-.23,5.71a16,16,0,0,1,7.58,2.37l-1.6,3.9a14.23,14.23,0,0,0-7.35-2.31c-4.54-.18-6.35,2.47-6.44,4.82-.12,3.06,2,4.68,7,7,6,2.71,8.92,5.9,8.71,11.14-.18,4.66-3.6,8.9-9.7,9.66l-.25,6.13Z" transform="translate(-20.95 -21.81)" fill="url(#linear-gradient-2)"></path><circle cx="141.56" cy="188.84" r="8.32" fill="#10569a"></circle><circle cx="270.33" cy="188.84" r="8.32" fill="#10569a"></circle><circle cx="314.46" cy="146.13" r="13.64" fill="#10569a"></circle><circle cx="314.48" cy="231.13" r="13.64" fill="#10569a"></circle><circle cx="108.08" cy="146.13" r="13.64" fill="#10569a"></circle><circle cx="108.1" cy="231.13" r="13.64" fill="#10569a"></circle><path d="M239,153.73s-23.3,72.74-92.38,48.52l-12.2-6.2-19,16.95V153.73Z" transform="translate(-20.95 -21.81)" fill="url(#linear-gradient-3)"></path><path d="M105.81,135.26a65,65,0,1,1,65,65A65.11,65.11,0,0,1,105.81,135.26Zm7.71,0a57.32,57.32,0,1,0,57.32-57.32A57.38,57.38,0,0,0,113.52,135.26Z" transform="translate(-20.95 -21.81)" fill="#10569a"></path><path d="M82.77,231.59a6.59,6.59,0,0,0,4.7-2l42.61-43.25a6.6,6.6,0,1,0-9.41-9.27L78.06,220.34a6.61,6.61,0,0,0,4.71,11.25Z" transform="translate(-20.95 -21.81)" fill="#10569a"></path><path d="M62.35,245.33a7.79,7.79,0,0,0,11-.08l50.17-50.91a7.19,7.19,0,0,0,.76-.91,6.18,6.18,0,0,0,.36-.53,3.38,3.38,0,0,0-.32-3.9,28.86,28.86,0,0,0-3.17-3.23,27.09,27.09,0,0,0-4.25-3.09,3.45,3.45,0,0,0-4,.34l0,0a3.79,3.79,0,0,0-.43.39l-50.16,50.9A7.77,7.77,0,0,0,62.35,245.33Z" transform="translate(-20.95 -21.81)" fill="#473f47"></path><path d="M78.31,288a11,11,0,0,1,2,.22,2.46,2.46,0,0,1,1.58,1.14,2.54,2.54,0,0,1-1,3.1,6.07,6.07,0,0,1-3.38.74,5,5,0,0,1-2.17-.37c-.84-.42-1.55-1.3-2.48-1.19a3.9,3.9,0,0,0-1.15.46,3,3,0,0,1-3.9-1.22,3.69,3.69,0,0,1-.31-1.35c-.12-1.49.37-3.21,1.68-3.84,1.57-.75,2.53.13,3.78.84A13.23,13.23,0,0,0,78.31,288Z" transform="translate(-20.95 -21.81)" fill="#10569a"></path><path d="M78.58,279.9l-5,7.89s-2.21.83-3.53,0l-1.32-.79,3.37-11.68Z" transform="translate(-20.95 -21.81)" fill="#fcbdba"></path><path d="M93.93,222.24s-2.05,22.61-3,28C88.83,261.79,79.4,280,79.4,280s-5.93,1.37-7.36-1.77l-.81-1.79s10.24-24.15,4.61-44.39a13.72,13.72,0,0,1-.33-1.81,38.73,38.73,0,0,1-.28-7.05Z" transform="translate(-20.95 -21.81)" fill="#473f47"></path><path d="M96.2,290.94a10.51,10.51,0,0,1,2-.14,2.54,2.54,0,0,1,1.79.85,2.6,2.6,0,0,1-.49,3.3,6.1,6.1,0,0,1-3.24,1.35,5,5,0,0,1-2.24,0c-.92-.27-1.79-1-2.69-.75a3.85,3.85,0,0,0-1.08.68,3,3,0,0,1-4.12-.52,4,4,0,0,1-.56-1.3c-.38-1.47-.21-3.28,1-4.15,1.43-1,2.55-.32,3.93.16A13.48,13.48,0,0,0,96.2,290.94Z" transform="translate(-20.95 -21.81)" fill="#10569a"></path><path d="M95,282.74l-3.59,8.8s-2.06,1.24-3.53.69l-1.46-.55,1.26-12.3Z" transform="translate(-20.95 -21.81)" fill="#fcbdba"></path><path d="M121.68,193.2c.24-.32.55-.67.94-.62.23,0,.45.21.68.15a.77.77,0,0,0,.35-.27,11.21,11.21,0,0,1,1.82-1.56,3.25,3.25,0,0,1,1.42-.72,1.94,1.94,0,0,1,1.83,1,3.31,3.31,0,0,1,.23,2.24,8.35,8.35,0,0,1-.88,2.09,6.63,6.63,0,0,1-.92,1.34c-1.15,1.2-2.94,1.4-4.41,2.14a1.19,1.19,0,0,1-.51.17,1,1,0,0,1-.75-.54,5.62,5.62,0,0,1-1-2.75A4.71,4.71,0,0,1,121.68,193.2Z" transform="translate(-20.95 -21.81)" fill="#fcbdba"></path><path d="M107.38,183.66a.72.72,0,0,1,.52.05,1.42,1.42,0,0,1,.24.25c.31.34.82.35,1.23.53a2.11,2.11,0,0,1,1.06,1.35,6.61,6.61,0,0,1,.19,1.78,2.5,2.5,0,0,1-.1.94.78.78,0,0,1-.69.54,1.55,1.55,0,0,1-.69-.29,2.05,2.05,0,0,0-1.37-.22,7.25,7.25,0,0,0-1.72.8,1.76,1.76,0,0,1-1.8,0,2,2,0,0,1-.56-.8c-.5-1.08-1.06-2.32-.06-3.21A7.41,7.41,0,0,1,107.38,183.66Z" transform="translate(-20.95 -21.81)" fill="#fcbdba"></path><path d="M100,222.27s2,23,2,28.56c0,11.94-6.15,31.88-6.15,31.88s-5.69,2.44-7.68-.45L87,280.61s5.89-26-3.4-45.25a12.34,12.34,0,0,1-.64-1.75,39.41,39.41,0,0,1-1.56-7Z" transform="translate(-20.95 -21.81)" fill="#473f47"></path><path d="M97.21,163.57a14.47,14.47,0,0,1,1.44,4.87,4.86,4.86,0,0,1-2,4.44,5.86,5.86,0,0,0-1.16.74c-1.22,1.26.19,3.54-.53,5.17a3.94,3.94,0,0,1-3,2.08,6,6,0,0,1-3-.49,2,2,0,0,1-1.32-1.18,2.67,2.67,0,0,1,.17-1.27c.89-3.43-1.4-7-1-10.5.37-3,3.67-8.74,7.34-8.21C96.08,159.47,96.59,162.14,97.21,163.57Z" transform="translate(-20.95 -21.81)" fill="#fcbdba"></path><path d="M122.6,199.9s-14,12.47-14.95,12.47-5.39-5.57-6.79-7.31l-.4-.52-.5,17.73a42.3,42.3,0,0,1-5.37,2.66A27.06,27.06,0,0,1,86.93,227a13.19,13.19,0,0,1-2.51,0c-6.79-.62-9.77-2.89-9.77-2.89l3.5-35a13.29,13.29,0,0,1,8.48-11.23,4.72,4.72,0,0,1,2.79-.39,16.59,16.59,0,0,0,5.85,0c3.9-.52,7.88,4.81,7.88,4.81l5.19,17,12.17-4.33A4.68,4.68,0,0,1,122.6,199.9Z" transform="translate(-20.95 -21.81)" fill="#10569a"></path><path d="M95.33,161.84c-.79.73-1.58,1.19-1.92,2.27a7.15,7.15,0,0,0-.24,2.48c-.14,0-.25-.11-.31-.25a.66.66,0,0,0-.19-.37.36.36,0,0,0-.5.21,1,1,0,0,0,0,.62c.33,1.33.77,2.62,1,4,0,.15,0,.32.08.47a3.08,3.08,0,0,1-.07,1.32,3.14,3.14,0,0,1-.72,1.09,2.47,2.47,0,0,1-.69.64,2.67,2.67,0,0,1-.8.25,9.85,9.85,0,0,1-2.71-.06,7.59,7.59,0,0,1-2.2-.57,8.91,8.91,0,0,1-1.25-.74,18.9,18.9,0,0,1-2.68-2.2c-2-1.87-2.66-5.61-2.62-8.23,0-.27,0-.55,0-.83h0a8.09,8.09,0,0,1,.56-2.39,8.56,8.56,0,0,1,3.91-4c3.5-1.89,8.71-2.85,12,.18a2.59,2.59,0,0,1,.44.51C97.45,157.78,96.56,160.7,95.33,161.84Z" transform="translate(-20.95 -21.81)" fill="#f6a569"></path><path d="M93.19,172.55a3.14,3.14,0,0,1-.72,1.09,2.47,2.47,0,0,1-.69.64,2.67,2.67,0,0,1-.8.25,9.85,9.85,0,0,1-2.71-.06,7.59,7.59,0,0,1-2.2-.57,8.91,8.91,0,0,1-1.25-.74,18.9,18.9,0,0,1-2.68-2.2c-2-1.87-2.66-5.61-2.62-8.23,0-.27,0-.55,0-.83h0c.75-.58,1.66-.91,2.31-.22a5.7,5.7,0,0,1,.84,2.05,15.22,15.22,0,0,0,1.18,2.48,7.14,7.14,0,0,0,1.73,2.09,9.21,9.21,0,0,0,4.17,1.51,3.72,3.72,0,0,0-.16-1.9A10.36,10.36,0,0,0,92,170c.4.26.83.5,1.23.8,0,.15,0,.32.08.47A3.08,3.08,0,0,1,93.19,172.55Z" transform="translate(-20.95 -21.81)" fill="url(#linear-gradient-4)"></path><path d="M80.66,158.31a5.41,5.41,0,0,0-1.59-.42.63.63,0,0,0-.59.14,5.06,5.06,0,0,0-1.61,3.06,2.68,2.68,0,0,0,0,1.51,2.07,2.07,0,0,0,.6.81,3.13,3.13,0,0,0,3.94.21C82.9,162.33,82.45,159.17,80.66,158.31Z" transform="translate(-20.95 -21.81)" fill="#10569a"></path><path d="M71.13,184.85a1.87,1.87,0,0,1,.34-.91A8.65,8.65,0,0,0,71.13,184.85Z" transform="translate(-20.95 -21.81)" fill="#f6a569"></path><path d="M77.53,178a3.88,3.88,0,0,0-1.06-2.9,6.61,6.61,0,0,1-2.56,7c-.56.38-1.19.68-1.72,1.1a3.84,3.84,0,0,0-.71.74,8.91,8.91,0,0,0,.87-2.87A2.42,2.42,0,0,0,72.2,180a1.49,1.49,0,0,0-.29-.46,6.42,6.42,0,0,0-.59-.57A31.86,31.86,0,0,1,67,173.82a20.09,20.09,0,0,1-3.62-6.51,12.14,12.14,0,0,1,.24-6.57,10.83,10.83,0,0,1,3.61-5.6,8.22,8.22,0,0,1,7-1s6.05,1.17,5.12,5.7c-.24,1.14-.51,2.21-.71,3.23-.64,3.06-.83,5.72,1.49,8.74C81.63,173.7,79.78,177.06,77.53,178Z" transform="translate(-20.95 -21.81)" fill="#f6a569"></path><path d="M71.13,184.85a1.87,1.87,0,0,1,.34-.91A8.65,8.65,0,0,0,71.13,184.85Z" transform="translate(-20.95 -21.81)" fill="url(#linear-gradient-5)"></path><path d="M77.53,178a3.88,3.88,0,0,0-1.06-2.9,6.61,6.61,0,0,1-2.56,7c-.56.38-1.19.68-1.72,1.1a3.84,3.84,0,0,0-.71.74,8.91,8.91,0,0,0,.87-2.87A2.42,2.42,0,0,0,72.2,180a1.49,1.49,0,0,0-.29-.46,9.19,9.19,0,0,0,1.24-4.17c.09-3-1.69-5.93-1.4-9a11.67,11.67,0,0,0,3.81,3.75c-.65-1.65,1.09-7.82,3.09-7.13-.64,3.06-.83,5.72,1.49,8.74C81.63,173.7,79.78,177.06,77.53,178Z" transform="translate(-20.95 -21.81)" fill="url(#linear-gradient-6)"></path><path d="M100.86,205.06l-.4-.52-.5,17.73a42.3,42.3,0,0,1-5.37,2.66A27.06,27.06,0,0,1,86.93,227a8.7,8.7,0,0,1,2.53-5.52c.94-.93,2.11-1.65,3-2.65a11.29,11.29,0,0,0,2.19-4.76c1.7-6.66,1.53-13.63,1.36-20.49,1,2.57,2,5.17,3,7.7C99.57,202.57,100.4,203.74,100.86,205.06Z" transform="translate(-20.95 -21.81)" fill="url(#linear-gradient-7)"></path><polygon points="218.04 131.92 265.79 81.45 249.66 66.57 303.94 67.49 306.4 113.45 293.38 102.22 263.31 131.92 218.04 131.92" fill="#10569a"></polygon><polygon points="218.04 131.92 265.79 81.45 249.66 66.57 303.94 67.49 306.4 113.45 293.38 102.22 263.31 131.92 218.04 131.92" fill="url(#linear-gradient-8)"></polygon></svg>