<svg xmlns="http://www.w3.org/2000/svg" xmlns:xlink="http://www.w3.org/1999/xlink" width="974" height="714.5" xmlns:v="https://vecta.io/nano"><style><![CDATA[.B{fill:#8ed16f}.C{opacity:.1}.D{opacity:.3}.E{fill:#3729c1}.F{fill:#618fd8}.G{fill:#f7c4a7}]]></style><defs><linearGradient id="A" x1="574.7" y1="713.3" x2="574.7" y2="358.2" gradientUnits="userSpaceOnUse"><stop offset="0" stop-color="gray" stop-opacity=".3"/><stop offset=".5" stop-color="gray" stop-opacity=".1"/><stop offset="1" stop-color="gray" stop-opacity=".1"/></linearGradient><linearGradient id="B" x1="930.6" y1="757.8" x2="930.6" y2="205.6" xlink:href="#A"/><path id="C" d="M322.5 85.6c-12.8 4.6-27.4-3.5-27.4-3.5s6-15.5 19-20 25-3 27.4 3.5-6 15.5-19 20z"/><path id="D" d="M265 99c9.4 9.8 26 9 26 9s1.4-16.6-8-26.4-21-13.8-26-9-1.4 16.6 8 26.4z"/><path id="E" d="M0 442s80.6-12.8 88 59.4 155 82.2 155 82.2l-2.8 1.8c-121.8 80-238.3 51-220.7-55.2 6.5-39.5 6-79-19.3-88.2z"/><path id="F" d="M898.8 248.2s-13-33.5-23-34.4 19 0 19 0l9.6 17.2z"/><path id="G" d="M863.7 633.4a195 195 0 0 1 1 9.4c.5-3 30-15.8 30-15.8v-7.8c-.8 0-1.5 0-2.3.1-5.7.8-11 3.6-16 6.5l-13 7.5z"/><path id="H" d="M791.5 630c6.2-3 32.5 6.2 32.5 6.2l2.7-9-13.6-3.5c-2-.6-4-1.4-6-2.3l-4-2c-3.4-1.2-7-.7-10.5-.1l-.8 10.6z"/><path id="I" d="M763 179.4H712v-1H763z"/><path id="J" d="M633.4 126.8l9-16.4 32 17.3-9 16.4z"/><path id="K" d="M431 643l3.4-18.3 35.7 6.6-3.4 18.3z"/><path id="L" d="M468.7 690.2L472 672l35.7 6.6-3.4 18.3z"/></defs><path d="M129 362c-12.8 4-24.8 13.2-28 26.2-3.7 15 4.8 30 6 45.3 4 50.3-67.6 85.7-57.4 135 4 19.6 20.4 34 36.6 46 25.8 19 54.5 36 86.3 40.6 48.2 7.2 98.5-14 145.4-.6 37.8 10.8 66.7 42.5 104.2 54.2 28.6 9 59.3 5.4 89 1.8 16-2 32.8-4.2 45.7-13.8 24-18 25.5-53.2 41.6-78.5 24.8-39 79.2-46.7 125-39s90 26.2 136.2 24.7c10-.3 20-1.7 28.6-6.5 10.5-6 17.6-16.3 23.8-26.5 39-64.4 60.6-138 62.3-213.4.3-13-.2-26.5-6.3-38-7.7-14.5-23-23-38.4-29-36.8-14-77.4-16.3-113.5-32-34.8-15.2-63-42-93.2-64.8-60.3-45.5-130.3-76.7-204.5-91-17.4-3.4-35.4-5.8-52.7-2-20 4.5-37 17-52.5 30.2-41 35.5-74 79.4-111.8 118.3-26 27-54.5 51.4-85 73.2-14 10-29 22-44.5 29.5-14.3 6.8-27.7 5-42.8 9.6z" opacity=".2" class="E"/><path d="M312 46s-38.6 51.3-11 111.2-48.2 156-48.2 156" fill="none" stroke="#535461" stroke-miterlimit="10" stroke-width="2"/><g class="B"><path d="M329.2 27c-3 13.2-17.8 21-17.8 21s-9.7-13.5-6.6-26.8 11-22.6 17.8-21 9.7 13.5 6.6 26.8z"/><ellipse cx="429.5" cy="116.7" rx="7.7" ry="2.9" transform="matrix(.23 -.97 .97 .23 105.49 415.88)"/></g><ellipse cx="429.5" cy="116.7" rx="7.7" ry="2.9" transform="matrix(.23 -.97 .97 .23 105.49 415.88)" class="D"/><g class="B"><use xlink:href="#C"/><ellipse cx="431.1" cy="166.1" rx="7.7" ry="2.9" transform="matrix(.94 -.34 .34 .94 -143.78 63.15)"/></g><ellipse cx="431.1" cy="166.1" rx="7.7" ry="2.9" transform="matrix(.94 -.34 .34 .94 -143.78 63.15)" class="D"/><g class="B"><use xlink:href="#C" x="-2.9" y="46.8"/><ellipse cx="428.2" cy="212.9" rx="7.7" ry="2.9" transform="matrix(.94 -.34 .34 .94 -159.81 64.91)"/></g><ellipse cx="428.2" cy="212.9" rx="7.7" ry="2.9" transform="matrix(.94 -.34 .34 .94 -159.81 64.91)" class="D"/><g class="B"><use xlink:href="#C" x="12" y="101.7"/><ellipse cx="443.1" cy="267.8" rx="7.7" ry="2.9" transform="matrix(.94 -.34 .34 .94 -177.52 73.21)"/></g><ellipse cx="443.1" cy="267.8" rx="7.7" ry="2.9" transform="matrix(.94 -.34 .34 .94 -177.52 73.21)" class="D"/><g class="B"><use xlink:href="#C" x="2.3" y="151.8"/><ellipse cx="433.4" cy="318" rx="7.7" ry="2.9" transform="matrix(.94 -.34 .34 .94 -195.09 72.89)"/></g><ellipse cx="433.4" cy="318" rx="7.7" ry="2.9" transform="matrix(.94 -.34 .34 .94 -195.09 72.89)" class="D"/><g class="B"><use xlink:href="#D"/><ellipse cx="387.3" cy="182.6" rx="2.9" ry="7.7" transform="matrix(.72 -.69 .69 .72 -131.18 227.49)"/></g><ellipse cx="387.3" cy="182.6" rx="2.9" ry="7.7" transform="matrix(.72 -.69 .69 .72 -131.18 227.49)" class="D"/><g class="B"><use xlink:href="#D" x="-5.5" y="155"/><ellipse cx="381.9" cy="337.6" rx="2.9" ry="7.7" transform="matrix(.72 -.69 .69 .72 -240.35 267.22)"/></g><ellipse cx="381.9" cy="337.6" rx="2.9" ry="7.7" transform="matrix(.72 -.69 .69 .72 -240.35 267.22)" class="D"/><g class="B"><path d="M272 153.7c12 6 27.6-.2 27.6-.2s-4.2-16-16.4-22.2-24.5-6-27.6.2 4.2 16 16.4 22.2z"/><ellipse cx="390.8" cy="234.8" rx="2.9" ry="7.7" transform="matrix(.45 -.89 .89 .45 -106.8 386.88)"/></g><ellipse cx="390.8" cy="234.8" rx="2.9" ry="7.7" transform="matrix(.45 -.89 .89 .45 -106.8 386.88)" class="D"/><g class="B"><path d="M277 208.3c12 6 27.6-.2 27.6-.2s-4.2-16-16.4-22.2-24.5-6-27.6.2 4.3 16.2 16.4 22.2z"/><ellipse cx="395.9" cy="289.4" rx="2.9" ry="7.7" transform="matrix(.45 -.89 .89 .45 -152.82 421.65)"/></g><ellipse cx="395.9" cy="289.4" rx="2.9" ry="7.7" transform="matrix(.45 -.89 .89 .45 -152.82 421.65)" class="D"/><g class="B"><path d="M125.7 156.5s70.6 70.6 30.7 175.3 68.3 279 68.3 279l-3.3-.5C76.5 584.6 4.5 418.8 85 295.6c30-45.8 54.6-99.5 40.7-139z"/><use xlink:href="#E"/></g><use xlink:href="#E" fill="#fff" class="D"/><ellipse cx="105.3" cy="383.3" rx="22.2" ry="57.8" class="B"/><ellipse cx="105.3" cy="383.3" rx="22.2" ry="57.8" class="D"/><g transform="matrix(.71 -.71 .71 .71 -524.92 237.62)"><ellipse cx="192.8" cy="662.4" rx="14.9" ry="33.2" class="B"/><ellipse cx="192.8" cy="662.4" rx="14.9" ry="33.2" class="D"/></g><path d="M837 358.2H312.6a24 24 0 0 0-23.9 23.9v307.3a24 24 0 0 0 23.9 23.9H837a24 24 0 0 0 23.9-23.9V382a24 24 0 0 0-23.9-23.9z" transform="translate(-113 -92.7)" fill="url(#A)"/><g class="E"><rect x="182.4" y="269.6" width="558.7" height="346.8" rx="24.8"/><path d="M182.4 330.3H741V394H182.4z"/></g><path d="M182.4 330.3H741V394H182.4z" class="D"/><path fill="#d6d6e3" d="M235.4 441H688V472H235.4z"/><circle cx="272.9" cy="549" r="44.3" class="E"/><circle cx="272.9" cy="549" r="44.3" class="D"/><path d="M822.3 277c.7 2.3 2.2 4.2 4.3 5.4 9.2 6 29.2 4.8 31.6 4.8.5 0 1.2 1 2 2.4a169 169 0 0 1 9.4 33.4c.5 5.8 6 33 14.7 43 .3.3.5.6.8 1 8.7 8.7 18.8-1 18.8-1l1.5-5-1.3 7-.7 4-2 24.4c0 3 .1 6 .4 9l.3 2.4a85 85 0 0 1 .7 10.8C902.4 440 897 467 897 467v-.1 1l.3-.1q-.2 1.5-.4 3l-3.4 40a80 80 0 0 0 .7 15.3l9.8 68.7v32c0 4.8.6 9.7 1.8 14.4 3.2 12 .6 54.3-1 74.3l-.8 10.4v.3l.3-.1v.4c.4-.2 1-.3 1.3-.4-4 6-11 16-16.3 17.6a17 17 0 0 0-8.1 5.4v.2l-.2.3a6 6 0 0 0-1.2 3.1c-.1-.2-.1-.4-.2-.6-.4 2.2 1 4.3 5 5.3 2.5.5 5 .7 7.5.6 14.6 0 40.5-4.5 43.4-9.3v-16.7l.5.1h0l1.8.6 5-16.5c6-4.4 1-82.4 0-100.3-1-16.3 9.2-81.3 11-92.8l-.2-.3.3-1.7c.4.3.7.6 1 1 .6.7 1 1.5 1.5 2.3.8 1.4 1.6 3 2.2 4.5 10 24.6 14.3 95 14.3 101.4v66.3a69 69 0 0 0 2.7 19.3 83 83 0 0 1 2.1 10.1l.6 4a169 169 0 0 1 .5 3.9c0 .3.1.6.1 1s0 .3 0 .4l.4 4.3a1 1 0 0 1 .2-.4v.6c.1-.2.2-.5.4-.6.4-.4.8-.8 1.3-1v8.4l-.2-.2v1.5c10.2 7.7 26.8 10 39.5 10 8.3 0 15-1 17.3-2.2 3.3-1.6 1.5-5.4-1.5-8.3-2.3-2.3-5.4-4-7.3-3.8-3.2.4-14.2-12-20-19l.6-.3 1-.4V613l6-86.8c2-21.7-.5-43.7-7.5-64.4l-.1-.4 1.3.2 2.2.4s0-.3-.1-1h.1s-1.7-18.7-1.7-42.2c0-26.6 2.3-59 11.6-77.5 5.4-10.6 7.2-19 7-25.6.2-5.8-1.4-11.6-4.8-16.4a13 13 0 0 0-5.5-4.4l-.2-.1h-.1c-1.6-.7-3.3-1-5-1h-20c-2.3 0-4.6-.6-6.6-1.7l-8-4.5a40 40 0 0 1-2.4-19.5c0-.5.1-1 .1-1.6l.6-.6c.4-.5 1-1 1.3-1.4l-.1 1.2c-.1.6-.3 1-.5 1 4.3-.6 9-1.4 11.7-4.7l.3-.4c.8-1.3 1.4-2.6 2-4 .4-1 1-2 1.5-2.7.7-1 1.5-1.6 2.2-2.4v-.1c2.5-3 2.7-7.3 2.7-11.2 0-9.5-.2-20-6.6-27-5.3-6-13.7-8.2-21.7-8.4s-16 1.2-24 1.2c-5.4 0-12-.1-15 4.4-1.5 2.2-1.6 5-3.2 7.2-1 1.2-2.3 2.3-2.4 3.8 0 .7.2 1.4.5 2v.1c2 3.8 6 6.2 10.4 7-.7 1-1.4 1.8-2 2.8-2.6 4.2-4 9-4 14 0 .6 0 1.2.1 1.7.4 6.7 3.4 13 8.4 17.6l-.2 1.7.2.2q1 .8 1.8 1.5l.2.2v1 1.7c-.1.6 0 1-.1 1.4l-.1-.1-9.8-8.2-15.7-14.5S875 223.5 873 237c-.2 2.4.4 4.8 2 6.8 7.2 11 32 20.4 32 20.4s14.8 15.6 24.7 32.5c-.4.2-.7.4-1 .5-8.8 4-21.6 2.4-21.6 2.4-14.8 2.3-16.2 18.6-16 25v1 .5L873 280v-.1c-1.3-3-4-5.2-7.4-5.8-13.2-2.2-46-6.8-43.3 3zm82.4 449l1-.2v.1z" transform="translate(-113 -92.7)" fill="url(#B)"/><path d="M890 623.7s18.6 23.4 23 23 14.3 9 8.6 12-38.7 4.8-55-7.6v-18.7zm-94.2 1.3s-11 19.6-18.6 22-14.3 11-4.3 13.4 46-3 49.2-8.6v-25.4z" fill="#aca9c9"/><path d="M782 432.6l9.5 67.8V532c0 4.8.5 9.5 1.7 14.2 3 12 .6 53.6-1 73.3l-.8 10.6c6.2-3 32.5 6.2 32.5 6.2l2.7-9 2-7.2c5.7-4.3 1-81.3 0-99-.6-12 4.8-51.4 8.2-75l2.3-15.2.5-3c1 1 2 2 2.6 3a30 30 0 0 1 2.1 4.4c9.6 24.3 14 93.8 14 100v65.4a69 69 0 0 0 2.6 19.1 100 100 0 0 1 2.6 13.8 195 195 0 0 1 1 9.4c.5-3 30-15.8 30-15.8V518l5.7-85.6c2-19.4 0-39-5.5-57.6l-3.4-10.3c-1.7-4.6-3-7.2-3-7.2H791c-1.6.3-3 3.6-4.2 8.6a127 127 0 0 0-2.1 12l-3.4 39.5a80 80 0 0 0 .7 15.2z" class="F"/><path d="M893 627.3v-109l5.7-85.6c4.3-42.6-12-75-12-75h2a150 150 0 0 0 12 75.1c-4.2 42.6-5.7 85.6-5.7 85.6v109L865 643v-1.7c6.5-4.5 28.4-14 28.4-14zm-98.6 2.3c-1 0-1.8.2-2.6.5v-.5a17 17 0 0 1 2.6-.1zM827 620c5.7-4.3 1-81.3 0-99s11-93.2 11-93.2c.6.5 1.2 1 1.6 1.7L829 521c1 17.7 5.7 94.7 0 99l-4.8 16.3-1.7-.6z" class="C"/><path d="M801.5 239.3l-10 35.4s-10.5 10-19 0-14-36.8-14.4-42.6-8-35.4-11-35.4-31.5 2-35-10c-2.7-9.6 29.3-5 42.2-3 3.2.5 6 2.7 7.2 5.7l19.7 47s10.4-12 20.5 2.8zM866 157s-12.4 35 3.4 47.3S813 220 813 220l9.8-9.3s7-27.5 2-50.4z" class="G"/><path d="M850.8 204.4s12.7-3 12.7-6.4l11.2 6.4H903s20.6 11.5 3.4 46-9.6 119-9.6 119-61.2-11-112 5.7c0 0 7.6-37.8 4.8-59.3s4.8-51.6 4.8-51.6l4.3-18.2s-.2-17-18-8.4c0 0-2.6-24.6 15.5-27.5 0 0 21 3 27.3-7.6a32 32 0 0 0 27.3 1.9z" class="C"/><path d="M850.8 203.5s12.7-3 12.7-6.4l8.2 4.7a13 13 0 0 0 6.5 1.7H898a13 13 0 0 1 10.6 5.4c4.5 6.4 8.6 19-2.2 40.5-17.2 34.4-9.6 119-9.6 119s-61.2-11-112 5.7c0 0 7.6-37.8 4.8-59.3s4.8-51.6 4.8-51.6l4.3-18.2s-.2-17-18-8.4c0 0-2.6-24 14.8-27.4.5-.1 1-.1 1.5-.1 3.7.4 21 1.6 26.5-7.7 0 0 14 8 27.2 2z" fill="#e14b5a"/><path d="M899 247s-15.3 9.6-40.2 0c0 0-27.2-10-36-29.6s43.5 3.4 43.5 3.4 11 0 14.3-2.4 26.8 18.2 18.2 28.7z" class="C"/><path d="M899 245s-15.3 9.6-40.2 0c0 0-27.2-10-36-29.6s-28.7-41.2-28.7-41.2-35-13.4-33-26.8 40.2 14.8 40.2 14.8l15.3 14.3 49.7 42s11 0 14.3-2.4 26.8 18.2 18.2 28.7z" class="G"/><path d="M824.5 162l41-3.4c-2 6.3-3.6 12.8-4.3 19.5-10 10.3-26.3 10.8-36.8 1 1-5.7 1-11.5 0-17z" class="C"/><circle cx="842.9" cy="158.3" r="26.3" class="G"/><path d="M857.3 164c-1.5-2.5 1.6-5.8.6-8.6-1-2.6-4.7-3-6-5.4-1-2 0-4.3-.4-6.4-.6-2.7-3.5-4.5-6.3-4.6s-5.5 1-8.2 1.8c-4.4 1.5-9 2.6-13.5 2s-9-3-11-7a4 4 0 0 1-.5-1.9c.1-1.5 1.5-2.5 2.4-3.7 1.6-2 1.7-5 3.2-7 3-4.4 9.3-4.3 14.6-4.3 7.8 0 15.6-1.5 23.4-1.2s16 2.5 21.2 8.3c6.2 7 6.5 17.4 6.4 26.8 0 4-.2 8-2.6 11-.7 1-1.6 1.6-2.3 2.5-1.5 2-2 4.6-3.3 6.6-2.5 3.6-7.4 4.5-11.7 5 1.3-.2.2-8.7 0-9.5-.8-4-1.7-4-5.6-4.2z" class="C"/><path d="M857.3 163c-1.5-2.5 1.6-6 .6-8.6-1-2.6-4.7-3-6-5.4-1-2 0-4.3-.4-6.4-.6-2.7-3.5-4.5-6.3-4.6s-5.5 1-8.2 1.8c-4.4 1.5-9 2.6-13.5 2s-9-3-11-7a4 4 0 0 1-.5-1.9c.1-1.5 1.5-2.5 2.4-3.7 1.6-2 1.7-5 3.2-7 3-4.4 9.3-4.3 14.6-4.3 7.8 0 15.6-1.5 23.4-1.2s16 2.5 21.2 8.3c6.2 7 6.5 17.4 6.4 26.8 0 4-.2 8-2.6 11-.7 1-1.6 1.6-2.3 2.5-1.5 2-2 4.6-3.3 6.6-2.5 3.6-7.4 4.5-11.7 5 1.3-.2.2-8.7 0-9.5-.8-4-1.7-4-5.6-4.2z" fill="#281c1c"/><use xlink:href="#F" class="C"/><use xlink:href="#F" x="1" fill="#e14b5a"/><use xlink:href="#G" class="F"/><use xlink:href="#G" class="D"/><use xlink:href="#H" class="F"/><use xlink:href="#H" class="D"/><path d="M921.3 657.2c.8-.3 1.4-1 1.6-2 .4 1.4-.3 2.8-1.6 3.3a76 76 0 0 1-55-7.6v-1.4a76 76 0 0 0 55 7.6zM772.6 659c10 2.4 46-3 49.2-8.6v1.4c-3.4 5.7-39.2 11-49.2 8.6-4-1-5.4-3-5-5.2.3 1.6 1.8 3 5 3.8z" opacity=".4" fill="#fff"/><path d="M831 310.8s-10.5-3.4-13.4 0-27.4 11.2-27.4 11.2" class="C"/><g class="B"><use xlink:href="#I"/><use xlink:href="#I" y="1.1"/></g><use xlink:href="#I" y="1.1" class="C"/><g class="B"><use xlink:href="#I" y="2.2"/><use xlink:href="#I" y="3.3"/></g><use xlink:href="#I" y="3.3" class="C"/><g class="B"><use xlink:href="#I" y="4.3"/><use xlink:href="#I" y="5.4"/></g><use xlink:href="#I" y="5.4" class="C"/><g class="B"><use xlink:href="#I" y="6.6"/><use xlink:href="#I" y="7.6"/></g><use xlink:href="#I" y="7.6" class="C"/><g class="B"><use xlink:href="#I" y="-8.6"/><path d="M787.4 178L748 145.3l.7-.8L788 177zm-35.8-17.2L712.2 128l.7-.8 39.3 32.7z"/><use xlink:href="#I" y="-7.4"/></g><use xlink:href="#I" y="-7.4" class="C"/><g class="B"><use xlink:href="#I" y="-6.4"/><use xlink:href="#I" y="-5.4"/></g><use xlink:href="#I" y="-5.4" class="C"/><g class="B"><use xlink:href="#I" y="-4.4"/><use xlink:href="#I" y="-3.2"/></g><use xlink:href="#I" y="-3.2" class="C"/><g class="B"><use xlink:href="#I" y="-2.1"/><use xlink:href="#I" y="-1"/></g><use xlink:href="#I" y="-1" class="C"/><g class="B"><path d="M723.8 223.7l-18.3-3.4 6.6-35.7 18.3 3.4z"/><ellipse cx="831.1" cy="297" rx="7.7" ry="3.8" transform="matrix(.18 -.98 .98 .18 274.45 967.17)"/></g><ellipse cx="831.1" cy="297" rx="7.7" ry="3.8" transform="matrix(.18 -.98 .98 .18 274.45 967.17)" class="C"/><g class="B"><path d="M727 299l-18.3-3.4 6.6-35.7 18.3 3.4z"/><ellipse cx="834.3" cy="372.3" rx="7.7" ry="3.8" transform="matrix(.18 -.98 .98 .18 202.89 1031.88)"/></g><ellipse cx="834.3" cy="372.3" rx="7.7" ry="3.8" transform="matrix(.18 -.98 .98 .18 202.89 1031.88)" class="C"/><g class="B"><use xlink:href="#J"/><ellipse cx="766.7" cy="220.2" rx="3.8" ry="7.7" transform="matrix(.48 -.88 .88 .48 95.18 696.94)"/></g><ellipse cx="766.7" cy="220.2" rx="3.8" ry="7.7" transform="matrix(.48 -.88 .88 .48 95.18 696.94)" class="C"/><g class="B"><use xlink:href="#J" x="-70.2" y="323.5"/><ellipse cx="696.6" cy="543.7" rx="3.8" ry="7.7" transform="matrix(.48 -.88 .88 .48 -226.12 804.8)"/></g><ellipse cx="696.6" cy="543.7" rx="3.8" ry="7.7" transform="matrix(.48 -.88 .88 .48 -226.12 804.8)" class="C"/><g class="B"><use xlink:href="#J" x="-113.1" y="56.5"/><ellipse cx="653.6" cy="276.7" rx="3.8" ry="7.7" transform="matrix(.48 -.88 .88 .48 -13.8 627.12)"/></g><ellipse cx="653.6" cy="276.7" rx="3.8" ry="7.7" transform="matrix(.48 -.88 .88 .48 -13.8 627.12)" class="C"/><g class="B"><use xlink:href="#J" x="-59.4"/><ellipse cx="707.4" cy="220.2" rx="3.8" ry="7.7" transform="matrix(.48 -.88 .88 .48 64.12 644.8)"/></g><ellipse cx="707.4" cy="220.2" rx="3.8" ry="7.7" transform="matrix(.48 -.88 .88 .48 64.12 644.8)" class="C"/><g class="B"><path d="M618.2 179l18.5-2 4 36-18.5 2z"/><ellipse cx="742.2" cy="288.9" rx="3.8" ry="7.7" transform="matrix(.99 -.11 .11 .99 -140.02 -10.3)"/></g><ellipse cx="742.2" cy="288.9" rx="3.8" ry="7.7" transform="matrix(.99 -.11 .11 .99 -140.02 -10.3)" class="C"/><g class="B"><path d="M745.2 377l18.5-2 4 36-18.5 2z"/><ellipse cx="869.3" cy="486.6" rx="3.8" ry="7.7" transform="matrix(.99 -.11 .11 .99 -160.77 4.7)"/></g><ellipse cx="869.3" cy="486.6" rx="3.8" ry="7.7" transform="matrix(.99 -.11 .11 .99 -160.77 4.7)" class="C"/><g class="B"><use xlink:href="#J" x="-78.1" y="143.4"/><ellipse cx="688.6" cy="363.6" rx="3.8" ry="7.7" transform="matrix(.48 -.88 .88 .48 -71.92 703.4)"/></g><ellipse cx="688.6" cy="363.6" rx="3.8" ry="7.7" transform="matrix(.48 -.88 .88 .48 -71.92 703.4)" class="C"/><g class="B"><use xlink:href="#J" x="-158.8" y="120.4"/><ellipse cx="608" cy="340.6" rx="3.8" ry="7.7" transform="matrix(.48 -.88 .88 .48 -93.91 620.42)"/></g><ellipse cx="608" cy="340.6" rx="3.8" ry="7.7" transform="matrix(.48 -.88 .88 .48 -93.91 620.42)" class="C"/><g class="B"><use xlink:href="#J" x="-184.6" y="508.2"/><ellipse cx="582.1" cy="728.3" rx="3.8" ry="7.7" transform="matrix(.48 -.88 .88 .48 -448.43 800.9)"/></g><ellipse cx="582.1" cy="728.3" rx="3.8" ry="7.7" transform="matrix(.48 -.88 .88 .48 -448.43 800.9)" class="C"/><use xlink:href="#K" class="B"/><use xlink:href="#K" class="C"/><g transform="matrix(.18 -.98 .98 .18 -370.18 1058.41)"><ellipse cx="563.6" cy="730.2" rx="3.8" ry="7.7" class="B"/><ellipse cx="563.6" cy="730.2" rx="3.8" ry="7.7" class="C"/></g><g class="B"><use xlink:href="#K" x="3.4" y="11"/><ellipse cx="566.9" cy="741.2" rx="3.8" ry="7.7" transform="matrix(.18 -.98 .98 .18 -378.26 1070.69)"/></g><ellipse cx="566.9" cy="741.2" rx="3.8" ry="7.7" transform="matrix(.18 -.98 .98 .18 -378.26 1070.69)" class="C"/><g class="B"><use xlink:href="#J" x="-146.9" y="555.2"/><ellipse cx="619.8" cy="775.4" rx="3.8" ry="7.7" transform="matrix(.48 -.88 .88 .48 -470.11 858.74)"/></g><ellipse cx="619.8" cy="775.4" rx="3.8" ry="7.7" transform="matrix(.48 -.88 .88 .48 -470.11 858.74)" class="C"/><use xlink:href="#L" class="B"/><use xlink:href="#L" class="C"/><g transform="matrix(.18 -.98 .98 .18 -385.69 1133.99)"><ellipse cx="601.3" cy="777.3" rx="3.8" ry="7.7" class="B"/><ellipse cx="601.3" cy="777.3" rx="3.8" ry="7.7" class="C"/></g><g class="B"><use xlink:href="#K" x="41" y="58.2"/><ellipse cx="604.6" cy="788.3" rx="3.8" ry="7.7" transform="matrix(.18 -.98 .98 .18 -393.76 1146.27)"/></g><ellipse cx="604.6" cy="788.3" rx="3.8" ry="7.7" transform="matrix(.18 -.98 .98 .18 -393.76 1146.27)" class="C"/><g class="B"><use xlink:href="#J" x="-90.4" y="524.8"/><ellipse cx="676.4" cy="745" rx="3.8" ry="7.7" transform="matrix(.48 -.88 .88 .48 -413.78 892.55)"/></g><ellipse cx="676.4" cy="745" rx="3.8" ry="7.7" transform="matrix(.48 -.88 .88 .48 -413.78 892.55)" class="C"/><use xlink:href="#K" x="94.3" y="17" class="B"/><use xlink:href="#K" x="94.3" y="17" class="C"/><g transform="matrix(.18 -.98 .98 .18 -309.61 1164.76)"><ellipse cx="657.8" cy="747" rx="3.8" ry="7.7" class="B"/><ellipse cx="657.8" cy="747" rx="3.8" ry="7.7" class="C"/></g><g class="B"><use xlink:href="#K" x="97.6" y="28"/><ellipse cx="661.1" cy="758" rx="3.8" ry="7.7" transform="matrix(.18 -.98 .98 .18 -317.68 1177.04)"/></g><ellipse cx="661.1" cy="758" rx="3.8" ry="7.7" transform="matrix(.18 -.98 .98 .18 -317.68 1177.04)" class="C"/></svg>