<svg xmlns="http://www.w3.org/2000/svg" viewBox="0 0 400 300" width="406" height="306" class="illustration styles_illustrationTablet__1DWOa"><g id="_552_coins_outline" data-name="#552_coins_outline"><path d="M112.37,189v21.52c0,8.42,17.74,15.26,39.62,15.26s39.63-6.84,39.63-15.26V189Z" fill="#10569a"></path><path d="M152,226.79c-22.78,0-40.62-7.14-40.62-16.25V189a1,1,0,0,1,1-1h79.25a1,1,0,0,1,1,1v21.52C192.62,219.65,174.77,226.79,152,226.79ZM113.37,190v20.52c0,7.73,17.69,14.25,38.62,14.25s38.63-6.52,38.63-14.25V190Z" fill="#093f68"></path><ellipse cx="151.99" cy="189.02" rx="39.62" ry="15.26" fill="#10569a"></ellipse><path d="M152,205.28c-22.78,0-40.62-7.14-40.62-16.26s17.84-16.26,40.62-16.26,40.63,7.14,40.63,16.26S174.77,205.28,152,205.28Zm0-30.52c-20.93,0-38.62,6.53-38.62,14.26s17.69,14.26,38.62,14.26,38.63-6.53,38.63-14.26S172.93,174.76,152,174.76Z" fill="#093f68"></path><path d="M112.37,167.62v21.52c0,8.43,17.74,15.26,39.62,15.26s39.63-6.83,39.63-15.26V167.62Z" fill="#10569a"></path><path d="M152,205.4c-22.78,0-40.62-7.14-40.62-16.26V167.62a1,1,0,0,1,1-1h79.25a1,1,0,0,1,1,1v21.52C192.62,198.26,174.77,205.4,152,205.4Zm-38.62-36.78v20.52c0,7.73,17.69,14.26,38.62,14.26s38.63-6.53,38.63-14.26V168.62Z" fill="#093f68"></path><ellipse cx="151.99" cy="167.62" rx="39.62" ry="15.26" fill="#093f68"></ellipse><path d="M152,183.88c-22.78,0-40.62-7.14-40.62-16.26s17.84-16.26,40.62-16.26,40.63,7.14,40.63,16.26S174.77,183.88,152,183.88Zm0-30.52c-20.93,0-38.62,6.53-38.62,14.26s17.69,14.26,38.62,14.26,38.63-6.53,38.63-14.26S172.93,153.36,152,153.36Z" fill="#093f68"></path><path d="M104.63,142.22v21.52c0,8.43,17.74,15.26,39.63,15.26s39.62-6.83,39.62-15.26V142.22Z" fill="#10569a"></path><path d="M144.26,180c-22.78,0-40.63-7.14-40.63-16.26V142.22a1,1,0,0,1,1-1h79.25a1,1,0,0,1,1,1v21.52C184.88,172.86,167,180,144.26,180Zm-38.63-36.78v20.52c0,7.73,17.69,14.26,38.63,14.26s38.62-6.53,38.62-14.26V143.22Z" fill="#093f68"></path><ellipse cx="144.26" cy="142.22" rx="39.62" ry="15.26" fill="#10569a"></ellipse><path d="M144.26,158.48c-22.78,0-40.63-7.14-40.63-16.26S121.48,126,144.26,126s40.62,7.14,40.62,16.26S167,158.48,144.26,158.48Zm0-30.52c-20.94,0-38.63,6.53-38.63,14.26s17.69,14.26,38.63,14.26,38.62-6.53,38.62-14.26S165.19,128,144.26,128Z" fill="#093f68"></path><path d="M104.63,120.82v21.52c0,8.43,17.74,15.26,39.63,15.26s39.62-6.83,39.62-15.26V120.82Z" fill="#10569a"></path><path d="M144.26,158.6c-22.78,0-40.63-7.14-40.63-16.26V120.82a1,1,0,0,1,1-1h79.25a1,1,0,0,1,1,1v21.52C184.88,151.46,167,158.6,144.26,158.6Zm-38.63-36.78v20.52c0,7.73,17.69,14.26,38.63,14.26s38.62-6.53,38.62-14.26V121.82Z" fill="#093f68"></path><ellipse cx="144.26" cy="120.82" rx="39.62" ry="15.26" fill="#10569a"></ellipse><path d="M144.26,137.08c-22.78,0-40.63-7.14-40.63-16.26s17.85-16.26,40.63-16.26,40.62,7.15,40.62,16.26S167,137.08,144.26,137.08Zm0-30.52c-20.94,0-38.63,6.53-38.63,14.26s17.69,14.26,38.63,14.26,38.62-6.53,38.62-14.26S165.19,106.56,144.26,106.56Z" fill="#093f68"></path><path d="M199.79,182.88V204.4c0,8.42,17.74,15.25,39.62,15.25S279,212.82,279,204.4V182.88Z" fill="#10569a"></path><path d="M239.41,220.65c-22.78,0-40.62-7.14-40.62-16.25V182.88a1,1,0,0,1,1-1H279a1,1,0,0,1,1,1V204.4C280,213.51,262.19,220.65,239.41,220.65Zm-38.62-36.77V204.4c0,7.72,17.69,14.25,38.62,14.25S278,212.12,278,204.4V183.88Z" fill="#093f68"></path><ellipse cx="239.41" cy="182.88" rx="39.62" ry="15.26" fill="#10569a"></ellipse><path d="M239.41,199.14c-22.78,0-40.62-7.15-40.62-16.26s17.84-16.26,40.62-16.26S280,173.76,280,182.88,262.19,199.14,239.41,199.14Zm0-30.52c-20.93,0-38.62,6.53-38.62,14.26s17.69,14.26,38.62,14.26S278,190.61,278,182.88,260.35,168.62,239.41,168.62Z" fill="#093f68"></path><path d="M199.79,161.48V183c0,8.42,17.74,15.26,39.62,15.26S279,191.42,279,183V161.48Z" fill="#10569a"></path><path d="M239.41,199.26c-22.78,0-40.62-7.15-40.62-16.26V161.48a1,1,0,0,1,1-1H279a1,1,0,0,1,1,1V183C280,192.11,262.19,199.26,239.41,199.26Zm-38.62-36.78V183c0,7.73,17.69,14.26,38.62,14.26S278,190.73,278,183V162.48Z" fill="#093f68"></path><ellipse cx="239.41" cy="161.48" rx="39.62" ry="15.26" fill="#10569a"></ellipse><path d="M239.41,177.74c-22.78,0-40.62-7.14-40.62-16.26s17.84-16.26,40.62-16.26S280,152.36,280,161.48,262.19,177.74,239.41,177.74Zm0-30.52c-20.93,0-38.62,6.53-38.62,14.26s17.69,14.26,38.62,14.26S278,169.21,278,161.48,260.35,147.22,239.41,147.22Z" fill="#093f68"></path><path d="M199.79,140.08V161.6c0,8.43,17.74,15.26,39.62,15.26S279,170,279,161.6V140.08Z" fill="#10569a"></path><path d="M239.41,177.86c-22.78,0-40.62-7.14-40.62-16.26V140.08a1,1,0,0,1,1-1H279a1,1,0,0,1,1,1V161.6C280,170.72,262.19,177.86,239.41,177.86Zm-38.62-36.78V161.6c0,7.73,17.69,14.26,38.62,14.26S278,169.33,278,161.6V141.08Z" fill="#093f68"></path><ellipse cx="239.41" cy="140.08" rx="39.62" ry="15.26" fill="#093f68"></ellipse><path d="M239.41,156.34c-22.78,0-40.62-7.14-40.62-16.26s17.84-16.26,40.62-16.26S280,131,280,140.08,262.19,156.34,239.41,156.34Zm0-30.52c-20.93,0-38.62,6.53-38.62,14.26s17.69,14.26,38.62,14.26S278,147.81,278,140.08,260.35,125.82,239.41,125.82Z" fill="#093f68"></path><path d="M189.33,115.61v21.52c0,8.43,17.74,15.26,39.62,15.26s39.63-6.83,39.63-15.26V115.61Z" fill="#10569a"></path><path d="M229,153.39c-22.78,0-40.62-7.14-40.62-16.26V115.61a1,1,0,0,1,1-1h79.25a1,1,0,0,1,1,1v21.52C269.58,146.25,251.73,153.39,229,153.39Zm-38.62-36.78v20.52c0,7.73,17.69,14.26,38.62,14.26s38.63-6.53,38.63-14.26V116.61Z" fill="#093f68"></path><ellipse cx="228.95" cy="115.61" rx="39.62" ry="15.26" fill="#093f68"></ellipse><path d="M229,131.87c-22.78,0-40.62-7.14-40.62-16.26S206.17,99.35,229,99.35s40.63,7.15,40.63,16.26S251.73,131.87,229,131.87Zm0-30.52c-20.93,0-38.62,6.53-38.62,14.26S208,129.87,229,129.87s38.63-6.53,38.63-14.26S249.89,101.35,229,101.35Z" fill="#093f68"></path><path d="M197,93.08V114.6c0,8.43,17.74,15.26,39.62,15.26s39.62-6.83,39.62-15.26V93.08Z" fill="#10569a"></path><path d="M236.6,130.86c-22.78,0-40.62-7.14-40.62-16.26V93.08a1,1,0,0,1,1-1h79.24a1,1,0,0,1,1,1V114.6C277.22,123.72,259.38,130.86,236.6,130.86ZM198,94.08V114.6c0,7.73,17.69,14.26,38.62,14.26s38.62-6.53,38.62-14.26V94.08Z" fill="#093f68"></path><ellipse cx="236.6" cy="93.08" rx="39.62" ry="15.26" fill="#10569a"></ellipse><path d="M236.6,109.34c-22.78,0-40.62-7.14-40.62-16.26s17.84-16.26,40.62-16.26S277.22,84,277.22,93.08,259.38,109.34,236.6,109.34Zm0-30.52c-20.93,0-38.62,6.53-38.62,14.26s17.69,14.26,38.62,14.26,38.62-6.53,38.62-14.26S257.54,78.82,236.6,78.82Z" fill="#093f68"></path><circle cx="203.77" cy="201.27" r="40.92" fill="#10569a"></circle><path d="M203.77,243.19a41.92,41.92,0,1,1,41.92-41.92A42,42,0,0,1,203.77,243.19Zm0-81.84a39.92,39.92,0,1,0,39.92,39.92A40,40,0,0,0,203.77,161.35Z" fill="#093f68"></path><path d="M203.77,235.91a34.65,34.65,0,1,1,34.64-34.64A34.68,34.68,0,0,1,203.77,235.91Zm0-67.29a32.65,32.65,0,1,0,32.64,32.65A32.69,32.69,0,0,0,203.77,168.62Z" fill="#093f68"></path><path d="M200,227.12V223c-1.49-.41-2.94-.72-4.33-1.2a12.58,12.58,0,0,1-6.66-5,12.31,12.31,0,0,1-1.92-6.94h8c.37,3,1.81,5.1,4.89,5.93V205c-1.6-.47-3.2-.91-4.78-1.41a11.2,11.2,0,0,1-4.65-2.64,9.17,9.17,0,0,1-2.58-5,12.89,12.89,0,0,1,.5-7,11.62,11.62,0,0,1,7-7,36.24,36.24,0,0,1,4-1l.48-.1v-5.42h7.48v.53c0,1.55,0,3.1,0,4.65,0,.38.12.5.49.58a15.77,15.77,0,0,1,7,3.25,11.3,11.3,0,0,1,4,7c.13.74.19,1.49.28,2.28h-8.13a5.68,5.68,0,0,0-3.52-5.16v10.12c.27.07.57.15.88.21a29.2,29.2,0,0,1,6.37,2,9.22,9.22,0,0,1,5.52,7.7,12,12,0,0,1-2.1,8.82,12.33,12.33,0,0,1-6,4.47c-1.5.52-3.06.86-4.68,1.3v4Zm7.51-20.58V216a6.87,6.87,0,0,0,3.3-1.46c1.74-1.43,2.35-5-.19-6.53A27.06,27.06,0,0,0,207.53,206.54ZM200,196.89v-9.11a27.06,27.06,0,0,0-2.85,1.46c-2.07,1.38-2.4,5.22.25,6.56C198.2,196.22,199.08,196.51,200,196.89Z" fill="#093f68"></path><path d="M114.12,85.85S114.51,92.7,106,95c0,0,6.44-.1,8.4,9.19,0,0,.73-9,8.4-9.91C122.77,94.27,115.58,94.91,114.12,85.85Z" fill="#ffbc0e"></path><path d="M114.37,105.18a1,1,0,0,1-1-.79C111.63,96,106.1,96,106,96a1,1,0,0,1-1-.86,1,1,0,0,1,.73-1.11c7.61-2,7.42-7.87,7.41-8.12a1,1,0,0,1,2-.21c1.3,8,7.34,7.61,7.59,7.59a1,1,0,0,1,.2,2c-6.75.79-7.49,8.66-7.52,9a1,1,0,0,1-.94.91Zm-5.19-10.33a10.73,10.73,0,0,1,5.07,5.62,11.26,11.26,0,0,1,4.66-6,9.07,9.07,0,0,1-4.68-4.73A10.52,10.52,0,0,1,109.18,94.85Z" fill="#093f68"></path><path d="M285.41,144.79s.45,7.89-9.37,10.51c0,0,7.41-.11,9.66,10.59,0,0,.84-10.38,9.67-11.41C295.37,154.48,287.1,155.21,285.41,144.79Z" fill="#ffbc0e"></path><path d="M285.7,166.88a1,1,0,0,1-1-.79c-2.06-9.79-8.58-9.81-8.67-9.79a1,1,0,0,1-.27-2c8.88-2.38,8.64-9.21,8.63-9.49a1,1,0,0,1,2-.22c1.52,9.4,8.58,8.88,8.88,8.86a1,1,0,0,1,1.08.89,1,1,0,0,1-.88,1.1c-7.89.92-8.75,10.1-8.78,10.49a1,1,0,0,1-.94.91Zm-6.32-11.73a12.18,12.18,0,0,1,6.19,6.84,15.41,15.41,0,0,1,.76-1.85,11.71,11.71,0,0,1,4.94-5.42,10.28,10.28,0,0,1-5.73-5.8A12,12,0,0,1,279.38,155.15Z" fill="#093f68"></path><path d="M244.39,90.38s.46,7.88-9.37,10.51c0,0,7.41-.12,9.67,10.58,0,0,.84-10.37,9.66-11.4C254.35,100.07,246.08,100.8,244.39,90.38Z" fill="#ffbc0e"></path><path d="M244.69,112.47a1,1,0,0,1-1-.79c-2-9.69-8.38-9.77-8.68-9.79h0a1,1,0,0,1-.27-2c8.88-2.37,8.65-9.2,8.64-9.49a1,1,0,0,1,.89-1,1,1,0,0,1,1.09.83c1.51,9.33,8.59,8.87,8.89,8.85a1,1,0,0,1,.2,2c-7.89.92-8.75,10.1-8.79,10.49a1,1,0,0,1-.93.92Zm-6.32-11.74a12.2,12.2,0,0,1,6.18,6.85,15.53,15.53,0,0,1,.76-1.86,11.74,11.74,0,0,1,4.94-5.41,10.4,10.4,0,0,1-5.73-5.8A11.88,11.88,0,0,1,238.37,100.73Z" fill="#093f68"></path><path d="M176.23,66.16s.46,7.88-9.37,10.51c0,0,7.42-.12,9.67,10.58,0,0,.84-10.37,9.66-11.4C186.19,75.85,177.92,76.58,176.23,66.16Z" fill="#ffbc0e"></path><path d="M176.53,88.25a1,1,0,0,1-1-.79c-2-9.66-8.36-9.79-8.67-9.79h0a1,1,0,0,1-1-.87,1,1,0,0,1,.73-1.09c8.88-2.38,8.65-9.21,8.64-9.5a1,1,0,0,1,2-.21c1.53,9.39,8.59,8.88,8.89,8.85a1,1,0,0,1,.2,2c-7.89.93-8.75,10.11-8.79,10.5a1,1,0,0,1-.93.91Zm-6.32-11.73a12.14,12.14,0,0,1,6.18,6.84c.21-.59.46-1.22.76-1.86a11.84,11.84,0,0,1,4.94-5.41,10.36,10.36,0,0,1-5.72-5.8A12,12,0,0,1,170.21,76.52Z" fill="#093f68"></path></g></svg>