<svg id="Layer_1" data-name="Layer 1" xmlns="http://www.w3.org/2000/svg" xmlns:xlink="http://www.w3.org/1999/xlink" viewBox="0 0 373.89 267.08" width="406" height="306" class="illustration styles_illustrationTablet__1DWOa"><defs><linearGradient id="linear-gradient" x1="190.17" y1="245.57" x2="242.26" y2="253.46" gradientTransform="matrix(1, 0, 0, -1, 0, 352)" gradientUnits="userSpaceOnUse"><stop offset="0.01"></stop><stop offset="0.13" stop-opacity="0.69"></stop><stop offset="0.25" stop-opacity="0.32"></stop><stop offset="1" stop-opacity="0"></stop></linearGradient><linearGradient id="linear-gradient-2" x1="-791.33" y1="142.56" x2="-731.57" y2="87.32" gradientTransform="translate(-535.87 352) rotate(180)" xlink:href="#linear-gradient"></linearGradient><linearGradient id="linear-gradient-3" x1="230.18" y1="137.09" x2="220.71" y2="122.07" xlink:href="#linear-gradient"></linearGradient><linearGradient id="linear-gradient-4" x1="-785.94" y1="107.99" x2="-773.7" y2="135.52" gradientTransform="translate(-535.87 352) rotate(180)" xlink:href="#linear-gradient"></linearGradient><linearGradient id="linear-gradient-5" x1="162.05" y1="163.78" x2="236.25" y2="160.78" gradientTransform="matrix(1, 0, 0, -1, 0, 352)" gradientUnits="userSpaceOnUse"><stop offset="0"></stop><stop offset="1" stop-opacity="0"></stop></linearGradient><linearGradient id="linear-gradient-6" x1="254.02" y1="190.17" x2="176.87" y2="201.15" xlink:href="#linear-gradient-5"></linearGradient><linearGradient id="linear-gradient-7" x1="-739.9" y1="237.31" x2="-726.66" y2="208.41" gradientTransform="translate(-535.87 352) rotate(180)" xlink:href="#linear-gradient"></linearGradient><linearGradient id="linear-gradient-8" x1="-754.69" y1="170.42" x2="-746.14" y2="189.55" gradientTransform="translate(-561.26 311.8) rotate(180)" xlink:href="#linear-gradient-5"></linearGradient></defs><title>15</title><path d="M175.11,48.52l-11.8-3c-17.23-4.24-35.77-8.42-52.34-2.07C97.51,48.64,87.53,60,78.11,70.86,65.72,85.2,53.24,99.67,44,116.23c-21.79,39.06-25.06,94.62-6.55,135.25,7.37,16.19,17.24,31.91,32,41.91,15.37,10.43,34.81,13.63,53.3,11.9S159,297.24,176,289.94c19-8.14,39.13-17.79,59.41-13.83,10.59,2.06,20.08,7.7,29.6,12.77,16.74,8.92,34.64,16.45,53.54,18.09s39-3.24,52.69-16.4c13.31-12.82,19-31.59,22.16-49.79a209.7,209.7,0,0,0,2.23-57.26c-1.8-18.54,6-36.05,2.92-55.08-2.43-14.91-10.22-29.36-22.9-37.58-15.73-10.19-35.85-9.44-54.59-9q-23.88.56-47.76-.32c-9.76-.35-19.65-.92-28.93-4-10.6-3.49-19.88-10-29.81-15.11C202.13,56.09,188.69,52,175.11,48.52Z" transform="translate(-25.39 -40.2)" fill="#10569a" opacity="0.18" style="isolation: isolate;"></path><path d="M199.47,130.91l9-29.38c1.16-5.63,1.67-12.27,2.31-18a16,16,0,0,0-.05-5.65c-.58-2.43-2.21-5.06-.91-7.2s4.91-1.79,7.12-.31c3.05,2,5.09,6.58,2.67,9.34a20.82,20.82,0,0,0-2.11,2.09c-.83,1.28-.6,3-.44,4.47.74,7-.72,14-2.16,21l-4,19.14c-1,4.66-2.54,10-7,11.73a2.6,2.6,0,0,1-2.1.08,3,3,0,0,1-1-.93C199.77,135.66,199.58,132.86,199.47,130.91Z" transform="translate(-25.39 -40.2)" fill="#c1a7a7"></path><path d="M199.47,130.91l9-29.38c1.16-5.63,1.67-12.27,2.31-18a16,16,0,0,0-.05-5.65c-.58-2.43-2.21-5.06-.91-7.2s4.91-1.79,7.12-.31c3.05,2,5.09,6.58,2.67,9.34a20.82,20.82,0,0,0-2.11,2.09c-.83,1.28-.6,3-.44,4.47.74,7-.72,14-2.16,21l-4,19.14c-1,4.66-2.54,10-7,11.73a2.6,2.6,0,0,1-2.1.08,3,3,0,0,1-1-.93C199.77,135.66,199.58,132.86,199.47,130.91Z" transform="translate(-25.39 -40.2)" fill="url(#linear-gradient)"></path><path d="M251.27,205.8a42.87,42.87,0,1,1-85.73,1.31c0-.44,0-.87,0-1.31a27.59,27.59,0,0,1,.13-3.28,42.86,42.86,0,0,1,85.6,3.28Z" transform="translate(-25.39 -40.2)" fill="#10569a"></path><path d="M190.39,225.27c-1.42,6.2.31,12.8-1,19a42.92,42.92,0,0,1-21.32-23.79,26.36,26.36,0,0,1,.15-6.4c.29-2.28.71-4.64.07-6.85a16.2,16.2,0,0,0-2.66-4.68,42.75,42.75,0,0,1,17.9-31.65,2.54,2.54,0,0,1,0,.87l-1.84,8.16a24.14,24.14,0,0,1,0,7.3,8.34,8.34,0,0,1-4,5.85,19.67,19.67,0,0,0-2.3,1.14,6.94,6.94,0,0,0-1.75,2.1,17.09,17.09,0,0,0-2.61,5.46,6.07,6.07,0,0,0,1.35,5.65l12-2.32c1.25-.24,2.76-.41,3.62.53,1,1.12.38,2.92.61,4.43.28,1.93,2,3.32,2.8,5.12C192.86,218.32,191.17,221.89,190.39,225.27Z" transform="translate(-25.39 -40.2)" fill="#020202" opacity="0.14" style="isolation: isolate;"></path><path d="M179.51,175.75c-1.71,2-3.48,4.13-4,6.7a3,3,0,0,0,0,1.69,3.5,3.5,0,0,0,2.25,1.76,33,33,0,0,0,12.75,2.18c-.25,2.45-.36,5.29,1.43,7a7,7,0,0,0,2.31,1.34,26.27,26.27,0,0,0,8.44,1.8c2.42.11,4.87-.13,7.29.14a17.93,17.93,0,0,1,8.31,3.12,4.21,4.21,0,0,1,1.51,1.57,5.12,5.12,0,0,1,.31,2.19,32.58,32.58,0,0,0,1,7.8c.65,2.48,1.7,5,3.78,6.51a13.29,13.29,0,0,0,3.56,1.61l8.55,2.92a1,1,0,0,0,.66.06,1,1,0,0,0,.46-.52c.95-1.86,1.89-3.92,1.5-6s-2-3.59-2.75-5.5c-1.23-3-.27-6.56-1.28-9.66a13.21,13.21,0,0,0-3.33-4.94,79.71,79.71,0,0,0-7.87-6.81c-4.4-3.48-8.86-7-14-9.32-2.06-.94-4.36-1.79-5.55-3.71-1.43-2.31-.81-5.48-2.35-7.72-1.26-1.82-3.63-2.52-5.84-2.64a21,21,0,0,0-10.51,2.46C183.23,171.25,181.63,173.26,179.51,175.75Z" transform="translate(-25.39 -40.2)" fill="#020202" opacity="0.14" style="isolation: isolate;"></path><path d="M251.27,205.8a42.77,42.77,0,0,1-16.33,33.67,5.25,5.25,0,0,1-1.49-1.48c-1.28-1.94-.86-5,1.21-6.1-.72.38-3.55-.55-4.4-.68l-4.41-.68c-2.11-.33-5.8-.19-7-2.32a5,5,0,0,0-.49-.84,2.9,2.9,0,0,0-.92-.63c-1.33-.65-2.88-1.38-3.2-2.83-.22-1.06.31-2.26-.24-3.2-.17-.29-.43-.52-.6-.81a2.76,2.76,0,0,1,.3-2.69c1.86-3.25,5.71-4.83,9.41-5.45s7.52-.53,11.12-1.57c2.27-.66,4.43-1.76,6.77-2.08,1.29-.18,2.91-.32,3.38-1.53.26-.69,0-1.49.27-2.18.11-.3.31-.56.42-.86a1.77,1.77,0,0,0-1.14-2.23,2.05,2.05,0,0,0-.34-.07c.3-.8.54-1.83-.09-2.4a1.71,1.71,0,0,0-1.56-.24c-1.54.38-2.65,1.68-3.94,2.6-4.28,3-10.15,2-13.72-1.62a3.9,3.9,0,0,1-1.19-1.93,3.08,3.08,0,0,1,1.81-3.08,9.1,9.1,0,0,1,3.71-.73c-.47-3.11-1-6.23-1.43-9.33-7.12,1.91-10-4.88-11-10.52s3-7.66,8.16-8A42.88,42.88,0,0,1,251.27,205.8Z" transform="translate(-25.39 -40.2)" fill="#020202" opacity="0.14" style="isolation: isolate;"></path><path d="M219.72,224.82c0,2.36,3.81,4.59,5.67,5.14a11,11,0,0,1,2.26.73,2.12,2.12,0,0,1,1.18,1.92c-.08.69-.64,1.25-.79,1.92a3.44,3.44,0,0,0,.21,1.74c.71,2.29,3.53,3.71,4.22,6,3.9-.39,5.66-.06,9.52-.71l3.22-2.06c-1.62-3-3.23-6.06-4.86-9.1a18.36,18.36,0,0,0-2.29-3.61,17.6,17.6,0,0,0-3.58-2.85A95,95,0,0,0,223.93,218C224.42,218.28,219.72,224.21,219.72,224.82Z" transform="translate(-25.39 -40.2)" fill="url(#linear-gradient-2)"></path><path d="M222,214.11c-.4,1.3-.76,2.83,0,3.92a3.18,3.18,0,0,0,1.42,1,3.84,3.84,0,0,0,4.06-.43,5.31,5.31,0,0,0,1.23-2.33,56.8,56.8,0,0,0,2.18-9.73,1.79,1.79,0,0,0,0-.92,1.63,1.63,0,0,0-.77-.72c-1.73-.93-4.44-1.68-5.41.39C223.44,208,222.86,211.28,222,214.11Z" transform="translate(-25.39 -40.2)" fill="#c1a7a7"></path><path d="M227.21,215.62a2.41,2.41,0,0,1,1.1.11,1.93,1.93,0,0,1,.61.53l3.74,4.28c.73.83,1.5,2,1,2.94a2.17,2.17,0,0,1-1.61,1,9.4,9.4,0,0,1-5.26-1c-1.16-.51-2.29-1.06-3.41-1.66a5.58,5.58,0,0,1-2.12-1.7c-.85-1.32-1.11-4.5.42-5.49.76-.49,1.43-.14,2.17.21A7.24,7.24,0,0,0,227.21,215.62Z" transform="translate(-25.39 -40.2)" fill="#10569a"></path><path d="M242.77,228.67a1.6,1.6,0,0,1-.08.72,1.5,1.5,0,0,1-.54.55,4.65,4.65,0,0,1-2.42.82,2.79,2.79,0,0,1-2.27-1,4.76,4.76,0,0,1-.7-2.13,25.6,25.6,0,0,1-.47-4.94.67.67,0,0,1,.64-.82c1.35-.29,4-1,4.72.67A20,20,0,0,1,242.77,228.67Z" transform="translate(-25.39 -40.2)" fill="#c1a7a7"></path><path d="M248.48,228.5a12.2,12.2,0,0,1,3.39.66,4.27,4.27,0,0,1,2.49,2.3,2.46,2.46,0,0,1,.07,1.67,3.51,3.51,0,0,1-1.84,1.76A23.19,23.19,0,0,1,240,237.65a4.29,4.29,0,0,1-3.05-1.13,4.88,4.88,0,0,1-.81-3.11l-.15-5.18c1-.15,1.87.49,2.8.81,1.61.55,2.24-.77,3.57-1.09C244.09,227.55,246.71,228.32,248.48,228.5Z" transform="translate(-25.39 -40.2)" fill="#10569a"></path><path d="M227.21,215.62a2.41,2.41,0,0,1,1.1.11,1.93,1.93,0,0,1,.61.53l3.74,4.28c.73.83,1.5,2,1,2.94a2.17,2.17,0,0,1-1.61,1,9.4,9.4,0,0,1-5.26-1c-1.16-.51-2.29-1.06-3.41-1.66a5.58,5.58,0,0,1-2.12-1.7c-.85-1.32-1.11-4.5.42-5.49.76-.49,1.43-.14,2.17.21A7.24,7.24,0,0,0,227.21,215.62Z" transform="translate(-25.39 -40.2)" fill="url(#linear-gradient-3)"></path><path d="M220.73,216.4a5.07,5.07,0,0,0,.31,1.14,7,7,0,0,0,.64,1.39,5.26,5.26,0,0,0,1.32,1.3,15.93,15.93,0,0,0,4.18,2,13.47,13.47,0,0,0,7.08.74,2.25,2.25,0,0,1-1.14,1.19,4.17,4.17,0,0,1-1.63.37,13.94,13.94,0,0,1-6.28-1.7l-2.21-1a5.92,5.92,0,0,1-.89-.49,4.2,4.2,0,0,1-1-1.06,5.24,5.24,0,0,1-.89-2.47,3.94,3.94,0,0,1,.09-1.28c0-.18.26-1,.5-1A2.14,2.14,0,0,0,220.73,216.4Z" transform="translate(-25.39 -40.2)" fill="#473f47"></path><path d="M248.48,228.5a12.2,12.2,0,0,1,3.39.66,4.27,4.27,0,0,1,2.49,2.3,2.46,2.46,0,0,1,.07,1.67,3.51,3.51,0,0,1-1.84,1.76A23.19,23.19,0,0,1,240,237.65a4.29,4.29,0,0,1-3.05-1.13,4.88,4.88,0,0,1-.81-3.11l-.15-5.18c1-.15,1.87.49,2.8.81,1.61.55,2.24-.77,3.57-1.09C244.09,227.55,246.71,228.32,248.48,228.5Z" transform="translate(-25.39 -40.2)" fill="url(#linear-gradient-4)"></path><path d="M234.63,171.29a6,6,0,0,1,3,1.52c1,1.08,1,2.68,1,4.14a85.37,85.37,0,0,1-5.74,30.6,2.74,2.74,0,0,1-1.28,1.73,2.69,2.69,0,0,1-1.75-.08,67.82,67.82,0,0,1-6.67-2.24l2.95-19.89a2.83,2.83,0,0,0-.09-1.68,2.7,2.7,0,0,0-.89-.92,78.62,78.62,0,0,0-10.65-6.64c-3-1.53-6.36-3.27-7.17-6.55a3.64,3.64,0,0,1,.58-3.25,5.15,5.15,0,0,1,1.63-1.1c2-1,4.45-2.25,6.72-2,1.8.18,2.5,1.25,4,2C224.51,169.14,230.08,169.94,234.63,171.29Z" transform="translate(-25.39 -40.2)" fill="#fff"></path><path d="M225.54,207.75c-.25-.08.63-4.77.71-5.24.16-.92.85-5,1.58-2.17a13.21,13.21,0,0,1,.22,1.88,21.41,21.41,0,0,0,.39,2.24,6.53,6.53,0,0,0,.51,1.68,6.68,6.68,0,0,0,1.82,2,.88.88,0,0,0,.52.27c.29,0,.51-.27.63-.54a6.67,6.67,0,0,0,.38-2.62c.15-5,2.74-9.36,2.57-14.49,0-1.25-1.19-2.76-1.69-3.91a13.53,13.53,0,0,1-1-2.91c-.63-3.41,1.38-6.74,1.66-10.2l-6.78,3.33L223.19,207Z" transform="translate(-25.39 -40.2)" fill="url(#linear-gradient-5)"></path><path d="M207.92,168.37a43.94,43.94,0,0,1-4.19,2.06c-.38.17-.76.33-1.15.48a28.69,28.69,0,0,1-13.92,2q-.72-.09-1.44-.24a12.13,12.13,0,0,1-7.08-3.84c-2.21-2.65-2.73-6.34-2.87-9.81v-1a61.41,61.41,0,0,1,1-12.91A33.71,33.71,0,0,1,184,131.05a21.6,21.6,0,0,1,7.57-6.41c3.09-1.57,6.75-2.37,10.05-1.28a15,15,0,0,1,4.67,2.77,7.24,7.24,0,0,1,1.37,1.34,7.16,7.16,0,0,1,1.12,2.69c1.37,6-.53,12.13-2,18.09-.81,3.4-1.43,7.14.12,10.26C209.11,162.92,214.46,164.72,207.92,168.37Z" transform="translate(-25.39 -40.2)" fill="#10569a"></path><path d="M207.92,168.39c-.12,1.38-1.86,1.89-3.25,2l-.94.05a50.27,50.27,0,0,1-14.87-1.36A3.19,3.19,0,0,0,187,169a.94.94,0,0,0-.26.14v.33a3.76,3.76,0,0,0,.55,3.23,12.13,12.13,0,0,1-7.08-3.84c-2.21-2.65-2.73-6.34-2.87-9.81v-1a67.88,67.88,0,0,1,.24-7.68,29.77,29.77,0,0,1,1-6.76A24.18,24.18,0,0,1,186,132.88a3.47,3.47,0,0,1,1.09-.69,3.4,3.4,0,0,1,2.69.46,5.41,5.41,0,0,1,1.78,1.37,5.29,5.29,0,0,1,1,3,19.84,19.84,0,0,1-.39,4.35,42.77,42.77,0,0,1-1.38,6.33,12.75,12.75,0,0,0-.67,2.34,5.36,5.36,0,0,0,.52,3c.37.84.43,1.72.73,2.6a13.66,13.66,0,0,0,2.91,4.87,17.93,17.93,0,0,0,10.17,5.36,7.66,7.66,0,0,1,2.35.59A2.17,2.17,0,0,1,207.92,168.39Z" transform="translate(-25.39 -40.2)" fill="url(#linear-gradient-6)"></path><path d="M195.24,131.9a6.08,6.08,0,0,0,4.38,2.29,1.22,1.22,0,0,0,.77-.17,1.32,1.32,0,0,0,.38-.92c.08-.69.18-1.57.25-2.45s.21-2,.31-2.7a10.72,10.72,0,0,1,2.18-5.47,5.49,5.49,0,0,1,.86-.94c2.11-1.9-6.47-1.15-7.6-3.74-1.3,1.69-1.18,4.06-1.76,6.13a30.71,30.71,0,0,0-1,3.08A6.22,6.22,0,0,0,195.24,131.9Z" transform="translate(-25.39 -40.2)" fill="#c1a7a7"></path><path d="M200.91,131.05l.11-.4c.12-1,.21-2,.31-2.7a10.72,10.72,0,0,1,2.18-5.47l.06-.21s-6.8-4.47-7.53.76S200.91,131.05,200.91,131.05Z" transform="translate(-25.39 -40.2)" fill="url(#linear-gradient-7)"></path><path d="M208,119.38a5.39,5.39,0,0,1-.58,3.15,4,4,0,0,1-1,1c-2.7,2-6.76,1.63-9.44-.48a12.09,12.09,0,0,1-4.22-9,7,7,0,0,1,1.41-5,5.56,5.56,0,0,1,5.11-1.43,13.19,13.19,0,0,1,6.47,3.68C207.48,113.24,207.91,116.93,208,119.38Z" transform="translate(-25.39 -40.2)" fill="#c1a7a7"></path><path d="M232.52,185.17a21.47,21.47,0,0,1,3.27,6A120.28,120.28,0,0,1,244,223.92a42,42,0,0,1-10.51,0,101.48,101.48,0,0,0-3.61-23.56,15.1,15.1,0,0,0-1.9-4.65c-1.55-2.29-4.1-3.61-6.55-4.85a95.73,95.73,0,0,0-17.63-6.68c-2.56-.72-5.14-1.37-7.66-2.24a18.38,18.38,0,0,1-6-3.08,8.53,8.53,0,0,1-3.22-5.79c0,.58,12.74,0,13.93-.18,4-.43,8.68-2.75,12.62-1.11,3.08,1.28,5.89,3.95,8.66,5.79C225.64,179.86,229.8,182,232.52,185.17Z" transform="translate(-25.39 -40.2)" fill="#fff"></path><polygon points="188.98 144.12 166.8 133.12 192.47 123.87 212.69 132.84 188.98 144.12" fill="#10569a"></polygon><polygon points="189.1 142.45 170.59 133.26 192.02 125.54 208.91 133.03 189.1 142.45" fill="url(#linear-gradient-8)"></polygon><path d="M183.58,137.2c-.05.38-.1.76-.14,1.14-.6,5.64-.06,11.19.15,16.81.13,3.47.58,10.1,4.21,11.88,6.82,3.33,19.94,2.05,19.94,2.05a11.73,11.73,0,0,1,4.57.18c.82.26,1.57.7,2.36,1,2.87,1.12,6.08.55,9.1,0a3.72,3.72,0,0,0,1.48-.5c1.17-.8,1.12-2.7.25-3.82a6.92,6.92,0,0,0-3.65-2,21.19,21.19,0,0,0-11.81-.46,13.71,13.71,0,0,1-1.52.42,10.07,10.07,0,0,1-1.82.13h-4.64c-5.32.05-10.34.07-11.14-6.26a34.72,34.72,0,0,1-.18-7.06c.32-4.25,1.41-8.46,1.18-12.72a8.56,8.56,0,0,0-1-3.87,3.87,3.87,0,0,0-3.2-2.05,4,4,0,0,0-3.29,2.24A8.91,8.91,0,0,0,183.58,137.2Z" transform="translate(-25.39 -40.2)" fill="#c1a7a7"></path><polygon points="221.02 112.6 192.76 127.21 188.98 144.12 212.69 132.84 221.02 112.6" fill="#10569a"></polygon><path d="M208.3,107.38a1.92,1.92,0,0,0-.45-.45,1,1,0,0,0,.59-1c-.06-.42-.36-.45-.66-.62s-.14-.35-.35-.68a.92.92,0,0,0-.61-.34l-2.12-.54c0-.27.07-.59-.13-.77s-.77,0-1.18-.1c-.58-.09-.84-.77-1.26-1.19-.94-.93-1.56,0-2.41.15s-1.19-.76-2.17-.89a5.42,5.42,0,0,0-2.26.31,4.94,4.94,0,0,0-2.16,1.1,5.41,5.41,0,0,0-1,1.66,1.15,1.15,0,0,0-1.6.22l-.09.15c-.19.41-.12.92-.39,1.27a3.11,3.11,0,0,0-.61,0,1.44,1.44,0,0,0-.55.28,1.52,1.52,0,0,0-.53,1.13,1.52,1.52,0,0,0-.94.07,3,3,0,0,0,.33-.93.76.76,0,0,0-.16-.71c-.2-.16-.59,0-.51.26a.83.83,0,0,0-.44-1.09h0a1.21,1.21,0,0,0-1.22.28c-.15-.14.11-.4.05-.6a.46.46,0,0,0-.13-.18,3.3,3.3,0,0,0-.91-.61,1,1,0,0,0-1,.12c-.12-.74-.76-1.87-1.68-1.65-.27.06-.5.38-.36.63a3.4,3.4,0,0,0-2.58-1.1c-.33,0-.78.27-.61.56a3.92,3.92,0,0,0-3-.72.46.46,0,0,0-.44.28c-.05.17.24.36.31.19a1.45,1.45,0,0,0-1.39.58,1.55,1.55,0,0,0,.06,2.11c.61.5,1.77,0,1.61-.81a1.43,1.43,0,0,0,1.85.32,1.53,1.53,0,0,0,1.79,1.21,1.63,1.63,0,0,0,.53-.21,2.09,2.09,0,0,0,1.6,1.56,6.19,6.19,0,0,0,2.35,0A1.69,1.69,0,0,1,182,107a1.59,1.59,0,0,0-.75,0,2.33,2.33,0,0,0-.69.56.69.69,0,0,1-.13.11,1,1,0,0,1-.78,0,1.66,1.66,0,0,0-1.08,0,.84.84,0,0,0-.53.87,1.69,1.69,0,0,0-2,1.32,1.67,1.67,0,0,0,0,.5,1.09,1.09,0,0,0-1.23.4,1.74,1.74,0,0,0-.24.58,4.93,4.93,0,0,0-.11,1.15.87.87,0,0,0,.1.45.36.36,0,0,0,.39.19,1.15,1.15,0,0,0-.28.89.83.83,0,0,0,.2.34,1.18,1.18,0,0,0,.63.42.74.74,0,0,0,.71-.18c.26-.25.26-.66.48-1a.6.6,0,0,0,.18.58.84.84,0,0,0,.61.18.35.35,0,0,0,.17-.06.38.38,0,0,0,.09-.15,2.22,2.22,0,0,0,.07-1.35.75.75,0,0,0,.73.16.72.72,0,0,0,.47-.58,2.94,2.94,0,0,1,0-.42c0-.2.3-.26.46-.37a5,5,0,0,0,.63-.51c.09-.09,1-1.14.91-1.21a1.12,1.12,0,0,0,1.48-.24,1.35,1.35,0,0,0,1.63.61,16.74,16.74,0,0,0-2.8,2.45A5.47,5.47,0,0,0,179.9,116a2.65,2.65,0,0,0,.54,1.74,1.61,1.61,0,0,0,1.67.53.62.62,0,0,0-.82-.51,1.3,1.3,0,0,0-.73.81,1.66,1.66,0,0,0,0,1.41.88.88,0,0,0,1.18.39l0,0a2,2,0,0,0,.45-.59,15.46,15.46,0,0,1,1.14-1.15,1.17,1.17,0,0,0,.16-1.46c.56-.27.54-1.11.23-1.65a9.32,9.32,0,0,1-1-1.55l2.08,0,1-.92a3.61,3.61,0,0,0,2.9.43,2.39,2.39,0,0,0,1.2,2.49c-.17.13-.41.29-.38.54a.43.43,0,0,0,.33.33,1.29,1.29,0,0,0,.48,0c.07.15-.1.31-.08.48a.4.4,0,0,0,.16.24,1.71,1.71,0,0,0,.63.32.33.33,0,0,0,0,.4.7.7,0,0,0,.33.26,3.51,3.51,0,0,0,1.05.35,1,1,0,0,0,.06.6.43.43,0,0,0,.49.27c.09,0,.17-.1.26-.08a.28.28,0,0,1,.14.1,1.83,1.83,0,0,1,.37.65,1,1,0,0,0,.13.32.78.78,0,0,0,.36.26c.19.07.42.13.57,0a.39.39,0,0,0,.08-.4,1.31,1.31,0,0,0-.21-.36.23.23,0,0,0,.29-.08.47.47,0,0,0,0-.33,2.87,2.87,0,0,0-.48-.76.17.17,0,0,1,0-.14.17.17,0,0,1,.09-.11c.17-.19,0-.5-.1-.72s-.33-.47-.22-.71a1.46,1.46,0,0,1,.21-.28c.11-.15.11-.42.25-.53a.31.31,0,0,1,.41.1c.1.12.14.28.23.4a3.23,3.23,0,0,0,.59.46c.15.14.26.34.42.48a.4.4,0,0,0,.72-.21.82.82,0,0,0-.28-.72,1,1,0,0,1-.21-.19.19.19,0,0,1,0-.26.19.19,0,0,0,.2-.1.17.17,0,0,0,0-.1.5.5,0,0,0-.13-.25s-.08-.08-.07-.13a.11.11,0,0,1,0-.08c.1-.17.24-.32.33-.49a.6.6,0,0,0-.22-.79,1,1,0,0,0,1.28-.18,3.15,3.15,0,0,0,.66-1.22.67.67,0,1,0,.81-1.07l-.08,0a2.68,2.68,0,0,0,.83.26.86.86,0,0,0,.78-.31c.25-.35.12-.9.45-1.18a10.05,10.05,0,0,0,1.65,1.17,1.87,1.87,0,0,0,2.36-1.19s0,0,0-.06a1.86,1.86,0,0,0,1.68.19,1.27,1.27,0,0,0,.39-1.49,1.26,1.26,0,0,0,1.11-1.21A1.67,1.67,0,0,0,208.3,107.38Z" transform="translate(-25.39 -40.2)" fill="#473f47"></path><path d="M236.28,235s1,2,7.76.86,9.94-3.25,10.32-4.44a2,2,0,0,1-.71,2.74h0c-1.69,1-8.24,5.5-16.22,2.74C237.43,236.94,236.43,236.66,236.28,235Z" transform="translate(-25.39 -40.2)" fill="#473f47"></path><path d="M193.61,115.87a.71.71,0,0,0-.37.12,1.54,1.54,0,0,0-.68,1.49,2.85,2.85,0,0,0,.74,1.55,1.81,1.81,0,0,0,.6.5,2.66,2.66,0,0,0,1,.2.9.9,0,0,0,.4,0,.85.85,0,0,0,.44-.74,3.78,3.78,0,0,0-.45-2.08,1.11,1.11,0,0,0-.49-.47A3,3,0,0,0,193.61,115.87Z" transform="translate(-25.39 -40.2)" fill="#c1a7a7"></path><path d="M186.57,108.22a10.2,10.2,0,0,0-.57,3.55,4.54,4.54,0,0,0,.25,1.93,5.09,5.09,0,0,0,.76,1.13,2,2,0,0,0,1.63-.61.87.87,0,0,0,.22-.37c.11-.38-.15-.74-.36-1.08a4.87,4.87,0,0,1-.41-3.7c.17-.68,1.36-2.5-.17-2.21A1.93,1.93,0,0,0,186.57,108.22Z" transform="translate(-25.39 -40.2)" fill="#10569a"></path><path d="M207.41,255.2h-1a.5.5,0,0,1,0-1h1a.5.5,0,1,1,0,1Zm5,0a.5.5,0,0,1,0-1h1a.5.5,0,1,1,0,1Zm-11-.12h-1a.5.5,0,0,1-.48-.52h0a.47.47,0,0,1,.48-.48h1a.5.5,0,0,1,0,1Zm17,0a.5.5,0,0,1,0-1h1a.52.52,0,0,1,.52.48.5.5,0,0,1-.48.52h-1Zm-23-.26h0l-1-.06a.5.5,0,0,1-.47-.53h0a.47.47,0,0,1,.49-.47h0l1,.06a.5.5,0,0,1,0,1Zm29,0a.51.51,0,0,1-.5-.47.52.52,0,0,1,.47-.53l1-.06a.52.52,0,0,1,.53.47.5.5,0,0,1-.47.53h0l-1,.06Zm-35-.4h0l-1-.09a.5.5,0,0,1-.46-.54h0a.52.52,0,0,1,.55-.45l1,.08a.5.5,0,0,1,0,1Zm41,0a.5.5,0,0,1,0-1l1-.08a.51.51,0,0,1,.54.45.49.49,0,0,1-.44.54h0l-1,.09Zm-46.93-.55h-.06l-1-.11a.5.5,0,0,1,.12-1l1,.11a.5.5,0,0,1,0,1Zm52.9,0a.5.5,0,1,1,0-1l1-.11a.5.5,0,0,1,.55.42v0a.5.5,0,0,1-.44.55l-1,.11Zm-58.86-.7h-.07l-1-.14a.5.5,0,1,1,.13-1l1,.14a.49.49,0,0,1,.43.54v0a.52.52,0,0,1-.51.36Zm64.82,0a.5.5,0,0,1-.07-1l1-.13a.49.49,0,0,1,.56.41h0a.51.51,0,0,1-.42.57h0l-1,.13Zm-70.76-.85h-.08l-1-.16a.51.51,0,1,1,.17-1l1,.17a.49.49,0,0,1,.41.56h0a.5.5,0,0,1-.52.32Zm76.69,0a.5.5,0,1,1-.08-1l1-.17a.5.5,0,0,1,.57.41.5.5,0,0,1-.41.58h0l-1,.16Zm-82.6-1h-.09l-1-.19a.5.5,0,0,1-.39-.59h0a.48.48,0,0,1,.57-.39h0l1,.19a.5.5,0,0,1,.39.59h0a.49.49,0,0,1-.52.24Zm88.51,0a.49.49,0,0,1-.49-.4.51.51,0,0,1,.4-.59l1-.19a.5.5,0,0,1,.58.4.47.47,0,0,1-.36.57h0l-1,.2ZM159.78,250h-.11l-1-.23a.51.51,0,0,1,.22-1l1,.22a.5.5,0,0,1,.38.6h0A.49.49,0,0,1,159.78,250ZM260,249.89a.5.5,0,0,1-.55-.45.49.49,0,0,1,.44-.55h0l1-.23a.51.51,0,1,1,.22,1h0l-1,.22Zm-106.1-1.35a.24.24,0,0,1-.12,0l-1-.25a.53.53,0,0,1-.38-.63.52.52,0,0,1,.63-.37l1,.26a.5.5,0,0,1,.36.61h0a.5.5,0,0,1-.45.38Zm111.93-.06a.5.5,0,1,1-.13-1l1-.25a.5.5,0,1,1,.25,1l-1,.25Zm-117.71-1.55H148l-1-.29a.49.49,0,0,1-.34-.62.51.51,0,0,1,.63-.33l1,.28a.5.5,0,0,1-.14,1h0Zm123.49-.07a.5.5,0,0,1-.48-.35.51.51,0,0,1,.33-.63l1-.28a.5.5,0,0,1,.62.32h0a.5.5,0,0,1-.33.62l-1,.29-.1,0ZM142.4,245.11h-.16l-1-.33a.5.5,0,0,1,.25-1l.08,0,.94.32a.5.5,0,0,1,.31.63h0a.49.49,0,0,1-.43.31Zm135-.11a.51.51,0,0,1-.16-1l.94-.32a.48.48,0,0,1,.63.28v0a.51.51,0,0,1-.31.64l-1,.33ZM136.8,243h-.18l-.93-.37a.5.5,0,0,1-.29-.63v0a.5.5,0,0,1,.64-.28l.93.37a.5.5,0,0,1,.29.64h0a.51.51,0,0,1-.47.34ZM283,243a.51.51,0,0,1-.47-.31.51.51,0,0,1,.28-.65h0l.92-.37a.51.51,0,0,1,.65.28.5.5,0,0,1-.28.65h0l-.93.37A.57.57,0,0,1,283,243Zm-151.74-2.21a.67.67,0,0,1-.2,0l-.92-.41a.49.49,0,0,1-.25-.65h0a.5.5,0,0,1,.66-.25l.91.41a.5.5,0,0,1,.25.66.52.52,0,0,1-.46.22Zm157.27-.1a.49.49,0,0,1-.45-.3.49.49,0,0,1,.23-.65h0l.9-.41a.51.51,0,0,1,.67.23h0a.52.52,0,0,1-.25.67l-.91.41a.5.5,0,0,1-.21,0Zm-162.68-2.5h-.23l-.89-.47a.51.51,0,0,1-.2-.68h0a.48.48,0,0,1,.66-.2h0l.88.46a.45.45,0,0,1-.23.86Zm168.09-.11a.51.51,0,0,1-.61-.39.5.5,0,0,1,.38-.61l.88-.46a.48.48,0,0,1,.66.2h0a.5.5,0,0,1-.19.67h0l-.89.47a.63.63,0,0,1-.23.08Zm-173.33-2.81a.48.48,0,0,1-.26-.07l-.85-.53a.51.51,0,0,1-.11-.7.5.5,0,0,1,.63-.15l.85.52a.5.5,0,0,1,.17.69h0a.49.49,0,0,1-.43.21Zm178.56-.13a.5.5,0,0,1-.43-.24.51.51,0,0,1,.17-.69l.85-.52a.5.5,0,0,1,.67.22.5.5,0,0,1-.15.63l-.85.53a.46.46,0,0,1-.26,0Zm-183.57-3.2a.52.52,0,0,1-.29-.09l-.81-.6a.5.5,0,0,1,.5-.86l.09.06.8.59a.49.49,0,0,1,.13.68h0A.51.51,0,0,1,115.6,231.94Zm188.57-.14a.5.5,0,0,1-.3-.91l.8-.59a.51.51,0,0,1,.7.1.5.5,0,0,1-.1.7c-.26.2-.54.41-.81.6A.43.43,0,0,1,304.17,231.8Zm-193.26-3.59a.57.57,0,0,1-.33-.13l-.75-.68a.5.5,0,0,1,0-.7.5.5,0,0,1,.71,0h0l.74.66a.5.5,0,0,1,.06.7.52.52,0,0,1-.4.18ZM308.84,228a.48.48,0,0,1-.37-.17.49.49,0,0,1,0-.69h0l.73-.67a.5.5,0,0,1,.71,0,.49.49,0,0,1,0,.7l-.05.05c-.24.23-.49.46-.75.68A.46.46,0,0,1,308.84,228Zm-202.15-4a.52.52,0,0,1-.38-.17l-.65-.78a.48.48,0,0,1,0-.69h0a.52.52,0,0,1,.71.07l.64.75a.51.51,0,0,1,0,.71A.53.53,0,0,1,106.69,224ZM313,223.77a.5.5,0,0,1-.5-.5.6.6,0,0,1,.12-.32l.64-.76a.49.49,0,0,1,.69-.08h0a.49.49,0,0,1,.08.69h0l-.65.78A.5.5,0,0,1,313,223.77Zm-209.89-4.64a.5.5,0,0,1-.43-.24l-.51-.88a.5.5,0,0,1,.23-.67.49.49,0,0,1,.64.18c.16.29.33.57.5.86a.5.5,0,0,1-.17.68.57.57,0,0,1-.22.07Zm213.4-.21a.48.48,0,0,1-.26-.07.5.5,0,0,1-.17-.68c.16-.29.33-.57.48-.86a.5.5,0,1,1,.88.48c-.16.3-.33.59-.5.88a.52.52,0,0,1-.39.25Zm-215.92-5.2a.5.5,0,0,1-.48-.34c-.11-.33-.21-.65-.3-1a.53.53,0,0,1,.37-.64.52.52,0,0,1,.63.37c.09.31.19.62.29.93a.49.49,0,0,1-.3.62h0a.44.44,0,0,1-.15.05ZM319,213.48h-.15a.5.5,0,0,1-.33-.61v0c.09-.31.19-.62.27-.94a.52.52,0,0,1,.63-.37.53.53,0,0,1,.37.64h0l-.29,1A.5.5,0,0,1,319,213.48ZM99.49,207.87a.5.5,0,0,1-.5-.48v-1a.51.51,0,0,1,.49-.5h0a.51.51,0,0,1,.5.49v1a.49.49,0,0,1-.46.52h0Zm220.6-.25h0a.51.51,0,0,1-.48-.53v-1a.5.5,0,0,1,1,0v1a.5.5,0,0,1-.47.53Zm0-2.49a.51.51,0,0,1-.5-.47,9,9,0,0,0-.09-1,.51.51,0,0,1,.45-.56.5.5,0,0,1,.55.45c0,.33.07.67.09,1a.5.5,0,0,1-.46.54h0ZM100,201.92h-.11a.48.48,0,0,1-.38-.58h0c.07-.34.15-.67.24-1a.49.49,0,0,1,.6-.35h0a.5.5,0,0,1,.35.61c-.08.31-.16.63-.23.95A.49.49,0,0,1,100,201.92Zm218.89-2.63a.52.52,0,0,1-.47-.34c-.1-.31-.22-.62-.33-.92a.5.5,0,0,1,.28-.65h0a.5.5,0,0,1,.65.29c.12.31.24.63.35,1a.5.5,0,0,1-.3.64h0a.44.44,0,0,1-.2,0Zm-216.91-3a.41.41,0,0,1-.22,0,.49.49,0,0,1-.23-.65v0c.14-.3.3-.6.46-.9a.49.49,0,0,1,.67-.21h0a.51.51,0,0,1,.2.68l-.45.87a.48.48,0,0,1-.43.23Zm214.34-2.4a.48.48,0,0,1-.42-.23c-.17-.28-.35-.56-.53-.83a.51.51,0,0,1,.14-.7.5.5,0,0,1,.69.15c.19.28.37.57.55.85a.5.5,0,0,1-.17.69h0a.5.5,0,0,1-.29.07Zm-211.18-2.67a.48.48,0,0,1-.3-.11.49.49,0,0,1-.1-.69h0l.62-.79a.5.5,0,0,1,.71,0,.51.51,0,0,1,.07.64l-.61.78a.51.51,0,0,1-.43.2Zm207.61-2.13a.52.52,0,0,1-.38-.17c-.21-.24-.43-.49-.66-.73a.5.5,0,0,1,.74-.68h0l.67.75a.5.5,0,0,1,0,.71h0a.53.53,0,0,1-.4.12Zm-203.63-2.36a.5.5,0,0,1-.37-.84h0c.23-.24.48-.47.72-.7a.5.5,0,0,1,.71,0h0a.49.49,0,0,1,0,.69h0l-.71.69a.48.48,0,0,1-.39.16Zm199.38-1.86a.51.51,0,0,1-.33-.13l-.75-.64a.51.51,0,0,1-.06-.71.52.52,0,0,1,.71-.06l.76.66a.51.51,0,0,1,.05.71.49.49,0,0,1-.41.17Zm-194.9-2.08a.51.51,0,0,1-.49-.51.54.54,0,0,1,.19-.38l.79-.62a.52.52,0,0,1,.71.1.51.51,0,0,1-.1.7l-.79.61A.5.5,0,0,1,113.6,182.79Zm190.17-1.64a.5.5,0,0,1-.29-.09l-.82-.57a.5.5,0,0,1,.57-.83l.83.58a.51.51,0,0,1,.11.7A.49.49,0,0,1,303.77,181.15Zm-185.28-1.83a.5.5,0,0,1-.28-.91h0l.85-.54a.5.5,0,1,1,.53.85l-.83.53a.54.54,0,0,1-.28.08Zm180.25-1.45a.45.45,0,0,1-.25-.07l-.86-.51a.49.49,0,0,1-.19-.67h0a.51.51,0,0,1,.69-.18l.86.51a.48.48,0,0,1,.18.67v0A.5.5,0,0,1,298.74,177.87Zm-175.09-1.62a.5.5,0,0,1-.24-.94h0l.88-.48a.5.5,0,1,1,.47.89h0l-.87.47A.5.5,0,0,1,123.65,176.25ZM293.5,175a.46.46,0,0,1-.23-.05l-.89-.45a.49.49,0,0,1-.23-.65v0a.5.5,0,0,1,.67-.23h0l.9.46a.5.5,0,0,1,.2.68.48.48,0,0,1-.43.26ZM129,173.52a.5.5,0,0,1-.45-.28.51.51,0,0,1,.23-.67h0l.91-.42a.5.5,0,0,1,.42.9l-.9.43A.54.54,0,0,1,129,173.52Zm159.09-1.14a.34.34,0,0,1-.2,0L287,172a.5.5,0,0,1,.39-.92l.92.4a.51.51,0,0,1-.2,1Zm-153.6-1.28a.51.51,0,0,1-.46-.31.51.51,0,0,1,.27-.65l.93-.38a.5.5,0,0,1,.65.28.49.49,0,0,1-.27.65l-.93.37a.45.45,0,0,1-.2,0Zm148.06-1h-.18l-.93-.36a.5.5,0,0,1,.24-1l.11,0,.94.36a.5.5,0,0,1,.28.64.47.47,0,0,1-.47.27ZM140.08,169a.54.54,0,0,1-.47-.33.5.5,0,0,1,.3-.64l1-.34a.5.5,0,0,1,.64.3h0a.5.5,0,0,1-.31.63l-.94.34A.42.42,0,0,1,140.08,169Zm136.81-1h-.16l-.94-.32a.5.5,0,0,1,.31-1l.95.32a.5.5,0,0,1,.33.61v0A.5.5,0,0,1,276.89,168Zm-131.12-1a.5.5,0,0,1-.57-.43.49.49,0,0,1,.42-.57l1-.3a.5.5,0,0,1,.62.33.48.48,0,0,1-.3.61h0l-1,.3a.34.34,0,0,1-.14.05Zm125.4-.8a.33.33,0,0,1-.14,0l-1-.28a.52.52,0,0,1,.28-1l1,.28a.49.49,0,0,1,.34.62.48.48,0,0,1-.48.41Zm-119.64-.89a.49.49,0,0,1-.56-.43.5.5,0,0,1,.43-.57l1-.26a.52.52,0,0,1,.26,1l-1,.26a.28.28,0,0,1-.13,0Zm113.86-.7h-.13l-1-.25a.5.5,0,0,1-.37-.6.51.51,0,0,1,.61-.37l1,.25a.5.5,0,1,1-.12,1Zm-108-.79a.5.5,0,0,1-.11-1l1-.23a.5.5,0,0,1,.25,1h0l-1,.23Zm102.21-.62h-.11l-1-.21a.5.5,0,0,1-.38-.6h0a.48.48,0,0,1,.58-.38h0l1,.22a.5.5,0,0,1,.45.55.51.51,0,0,1-.56.45Zm-96.35-.68a.5.5,0,0,1-.49-.39.52.52,0,0,1,.39-.6l1-.2a.51.51,0,0,1,.59.4.5.5,0,0,1-.39.59h0l-1,.19Zm90.48-.53h-.1l-1-.18a.51.51,0,0,1-.4-.59.5.5,0,0,1,.58-.4l1,.19a.5.5,0,0,1,.4.58.52.52,0,0,1-.53.41Zm-84.58-.59a.5.5,0,0,1-.09-1l1-.17a.5.5,0,1,1,.17,1l-1,.17Zm78.67-.45h-.08l-1-.16a.51.51,0,0,1-.42-.57h0a.51.51,0,0,1,.58-.41l1,.15a.51.51,0,0,1,.41.58.5.5,0,0,1-.54.46h0Zm-72.75-.5a.49.49,0,0,1-.53-.46.5.5,0,0,1,.46-.54l1-.14a.51.51,0,0,1,.57.42h0a.51.51,0,0,1-.43.57l-1,.14Zm66.81-.38h-.07l-1-.13a.5.5,0,0,1-.43-.56.49.49,0,0,1,.54-.43h0l1,.13a.49.49,0,0,1,.43.54v0a.5.5,0,0,1-.54.46h0Zm-6-.71h0l-1-.11a.5.5,0,0,1-.44-.55.52.52,0,0,1,.55-.44l1,.1a.5.5,0,0,1,0,1Zm-6-.56h0l-1-.08a.5.5,0,0,1-.46-.54h0a.52.52,0,0,1,.54-.46l1,.08a.49.49,0,0,1,.46.52v0a.5.5,0,0,1-.51.49h0Zm-6-.41h-1a.5.5,0,0,1,.06-1l1,.06a.49.49,0,1,1,0,1Zm-6-.27h-1a.5.5,0,0,1-.49-.51h0a.5.5,0,0,1,.52-.49h1a.5.5,0,0,1,0,1Zm-6-.12h-1a.5.5,0,0,1-.5-.5.52.52,0,0,1,.5-.5h1a.5.5,0,0,1,.49.51h0a.49.49,0,0,1-.46.49Z" transform="translate(-25.39 -40.2)" fill="#10569a"></path><circle cx="71.18" cy="159.61" r="19.53" fill="#fff"></circle><path d="M94.35,197.34h11.82v4.58H94.37v3.47H100V208H94.35v4H89.17v-4H86.74v-2.65h2.39V187.59H106.4v4.56H94.86c-.44,0-.58.09-.57.57v4Z" transform="translate(-25.39 -40.2)" fill="#10569a"></path><circle cx="123.62" cy="115.23" r="19.53" fill="#fff"></circle><path d="M161.79,148.46l-4.61,2.27c-1.71-2.71-4.08-4.07-7.33-3.59a7.62,7.62,0,0,0-5.78,4.09h9.34v2.87H143.16v2.49h10.26v2.93H144a7.45,7.45,0,0,0,5.69,4.17,6.83,6.83,0,0,0,7.44-3.58l4.71,2.28c-.57.77-1.05,1.52-1.63,2.2a11.43,11.43,0,0,1-8.82,4.06,14.36,14.36,0,0,1-7.66-1.91,12,12,0,0,1-5.44-6.55c-.18-.5-.4-.76-1-.68a8.15,8.15,0,0,1-1.21,0v-2.9h1.33v-2.49h-1.33v-2.88h1.52a.5.5,0,0,0,.59-.37v0a11.69,11.69,0,0,1,3.47-5.27,13,13,0,0,1,5.4-2.87,15,15,0,0,1,6.15-.35,11,11,0,0,1,7.44,4.43c.35.46.66,1,1,1.44A1.09,1.09,0,0,1,161.79,148.46Z" transform="translate(-25.39 -40.2)" fill="#10569a"></path><circle cx="247.71" cy="117.95" r="19.53" fill="#fff"></circle><path d="M265.91,171.11l-1.82-3.66c.46-.27.93-.51,1.37-.8a6,6,0,0,0,2.68-3.14,3.86,3.86,0,0,0-.3-2.75c0-.1-.27-.17-.42-.17h-4.16v-3.12h2.45c-.4-.73-.82-1.41-1.14-2.14a6.35,6.35,0,0,1,.6-6.26,8.85,8.85,0,0,1,5.93-3.87,11.86,11.86,0,0,1,7.71.89,7.84,7.84,0,0,1,3.45,3.48L278,152a14.38,14.38,0,0,0-1.11-1.46,4.06,4.06,0,0,0-4.1-1,3.59,3.59,0,0,0-2.79,4.24,3.45,3.45,0,0,0,.3.87,18.29,18.29,0,0,0,1.44,2.6.66.66,0,0,0,.51.21h5.1v3.11h-4.3a5.16,5.16,0,0,1-2.16,4.84l.74-.09a7.13,7.13,0,0,1,4,.8,4.42,4.42,0,0,0,4.61-.47,4.18,4.18,0,0,0,.53-.5c.72,1.43,1.42,2.84,2.14,4.29a5.36,5.36,0,0,1-2.41,1.46,9.94,9.94,0,0,1-6.15,0,17.89,17.89,0,0,1-1.71-.68,5.87,5.87,0,0,0-4.95.09Z" transform="translate(-25.39 -40.2)" fill="#10569a"></path><circle cx="283.2" cy="186.22" r="19.53" fill="#fff"></circle><path d="M308.62,224.14l1.29-2.1c1.38-2.26,2.77-4.52,4.14-6.79a.74.74,0,0,1,.74-.42H320c-2.38,3.67-4.7,7.27-7.08,10.93H319v2.78h-7.91v2.75H319V234h-7.9v4h-4.92v-4h-7.89v-2.72h7.84v-2.75h-7.85v-2.77h6.07l-7.12-11h5.23a.58.58,0,0,1,.58.3q1.71,2.81,3.44,5.6Z" transform="translate(-25.39 -40.2)" fill="#10569a"></path><circle cx="123.15" cy="206.37" r="19.53" fill="#fff"></circle><path d="M146.91,234v-3.3h3.85v3.39a13.36,13.36,0,0,1,7.42,3.41l-3.12,4.12a9.85,9.85,0,0,0-4.26-2.36v4.54c1,.34,2,.62,2.93,1a6.69,6.69,0,0,1,4.79,7.92,7,7,0,0,1-3.31,5,10,10,0,0,1-4,1.37c-.38,0-.45.19-.44.53v2.79h-3.86v-3.13c-1-.21-1.95-.38-2.88-.63a11.65,11.65,0,0,1-5.12-2.82c-.61-.56-.6-.58-.12-1.26.83-1.19,1.67-2.37,2.55-3.61a10.46,10.46,0,0,0,5.55,3.2V249c-1.1-.37-2.17-.67-3.2-1.09a6.7,6.7,0,0,1-4.12-3.79,6.87,6.87,0,0,1,.2-5.48,8.08,8.08,0,0,1,5.68-4.3C145.91,234.2,146.37,234.13,146.91,234Zm3.88,20.09a2.45,2.45,0,0,0,2.19-2.28c0-.86-1-1.57-2.19-1.81Zm-3.93-11.32V239a2.1,2.1,0,0,0-2.05,2c0,.81.88,1.56,2.05,1.76Z" transform="translate(-25.39 -40.2)" fill="#10569a"></path></svg>