<svg xmlns="http://www.w3.org/2000/svg" xmlns:xlink="http://www.w3.org/1999/xlink" width="995" height="697.7" xmlns:v="https://vecta.io/nano"><style><![CDATA[.B{fill:#3f3d56}.C{fill:#2f2e41}.D{fill:#ffb8b8}.E{fill:#ccc}.F{fill:#a0616a}.G{fill:#3729c1}.H{fill:#e6e6e6}]]></style><path d="M812.7 437.5H172c-9 0-16.5-7.4-16.5-16.5V26c0-6.7 5.4-12 12-12H817c6.8 0 12.3 5.5 12.3 12.3v395c0 9-7.4 16.5-16.5 16.5z" fill="#f2f2f2"/><path d="M789.3 414.2H192c-8.8 0-16-6.7-16-15v-344c0-6 5.3-11 11.8-11h605.3c6.6 0 12 5 12 11.2v344c0 8.2-7 15-16 15z" fill="#fff"/><path d="M829 25H155v-8.4c0-9 7.4-16.5 16.6-16.5h640.7c9 0 16.5 7.4 16.6 16.5z" class="E"/><g fill="#fff"><circle cx="185.2" cy="12.5" r="4.3"/><circle cx="201.5" cy="12.5" r="4.3"/><circle cx="217.7" cy="12.5" r="4.3"/></g><path d="M723.6 356.5H260.7c-9.7 0-17.5-7.8-17.5-17.5V115.8c0-7.2 6-13 13-13h471.5c7.3 0 13.3 6 13.3 13.3v223c0 9.7-7.8 17.5-17.5 17.5zM256.3 104.7c-6 0-11 5-11 11V339c0 8.6 7 15.5 15.5 15.5h462.8c8.6 0 15.5-7 15.5-15.5V116c0-6.2-5-11.3-11.3-11.3z" class="E"/><path d="M276.7 339h430.8a16 16 0 0 0 16-16V136.4a16 16 0 0 0-16-16H276.7a16 16 0 0 0-16 16V323a16 16 0 0 0 16 16z" fill="#f2f2f2"/><g class="E"><circle cx="325.7" cy="165.7" r="9"/><circle cx="325.7" cy="199.7" r="9"/><circle cx="325.7" cy="233.7" r="9"/><circle cx="325.7" cy="267.7" r="9"/><use xlink:href="#B"/><use xlink:href="#B" y="34"/><use xlink:href="#B" y="68"/><use xlink:href="#B" y="102"/></g><path d="M426.7 302.7h-29a5 5 0 0 1-5-5v-27a5 5 0 0 1 5-5h29a5 5 0 0 1 5 5v27a5 5 0 0 1-5 5zm65 0h-29a5 5 0 0 1-5-5v-61a5 5 0 0 1 5-5h29a5 5 0 0 1 5 5v61a5 5 0 0 1-5 5zm66 0h-29a5 5 0 0 1-5-5v-95a5 5 0 0 1 5-5h29a5 5 0 0 1 5 5v95a5 5 0 0 1-5 5zm68 0h-29a5 5 0 0 1-5-5v-128a5 5 0 0 1 5-5h29a5 5 0 0 1 5 5v128a5 5 0 0 1-5 5z" class="G"/><use xlink:href="#B" y="136" class="B"/><path d="M796.7 489.2c1.6-2.5 4.3-4 7.3-4.4s6 .7 8 2.7l31.8-16.4-2 18.5-30 12.7c-3.8 3.5-9.5 3.6-13.4.2s-4.7-9-1.8-13.3z" class="D"/><path d="M824 496c-.7-.6-1.3-1.3-1.5-2.2l-2.5-8.2c-.6-1.8.1-3.8 1.6-5l25.7-19.4 28-51.7c3.2-4 8.3-6.2 13.4-5.5s9.5 4 11.5 9 1.2 10.3-2 14.4l-16 33.5c-4.8 10.2-13 18.2-23.5 22.7l-30.2 13c-1.2.5-2.5.5-3.7 0-.3-.1-.6-.3-1-.5z" class="B"/><g class="D"><circle cx="898.8" cy="363.5" r="24.6"/><path d="M888.8 685.7h-12.3l-5.8-47.3h18v47.3z"/></g><path d="M867.8 682.2h23.6a0 0 0 0 1 0 0v15a0 0 0 0 1 0 0H853a0 0 0 0 1 0 0h0a14.9 14.9 0 0 1 14.9-14.9z" class="C"/><path d="M928.8 685.7h-12.3l-5.8-47.3h18v47.3z" class="D"/><path d="M907.8 682.2h23.6a0 0 0 0 1 0 0v15a0 0 0 0 1 0 0H893a0 0 0 0 1 0 0h0a14.9 14.9 0 0 1 14.9-14.9zm22-8.5h-14.4c-2 0-3.8-1.4-4.3-3.3l-20.7-76.7c-.1-.2-.3-.4-.6-.4s-.4.3-.4.5l4.2 72.7c.1 1.3-.4 2.6-1.4 3.5s-2.2 1.4-3.5 1.3l-16-1.3c-2-.2-3.8-1.8-4-4L854 513.3l5.7 3.4 53.3-9 21.5 161c.2 1.3-.2 2.6-1 3.6s-2 1.5-3.4 1.5z" class="C"/><path d="M871.5 529.4a33 33 0 0 1-16.7-4.7c-1.6-1-2.4-2.8-2-4.6l20.6-102.5c3.6-13 11.7-20 24-21a34 34 0 0 1 35.4 31.2c3 32.4-9 78.6-14.2 97-.4 1.4-1.5 2.6-3 3s-3 .2-4.2-.7l-10.7-8.3c-1.4-1-3.3-1-4.5.2-9 8-17.5 10.5-24.6 10.5z" class="B"/><path opacity=".2" d="M906.8 443.7l9 38-13 32 9-31-5-39z"/><path d="M912.8 383.7c2.2 0 4.4-.4 6.4-1.2 1-.3 1.8-.6 2.7-1a22 22 0 0 0 13.3-19.9c.2-8.4-4.2-16.6-10.7-22s-15-8.2-23.3-8.8c-9-.7-19.3 1.6-24.4 9.2-1.3 2-2.3 4.5-1.5 7 .2.7.7 1.4 1.2 2 2.3 2 4.5.5 6.8.4 3.2-.2 6 2.4 7 5.4s.6 6.3-.3 9.4c-.6 1.8-1 3.8-1.2 5.7-.1 2 .8 4 2.4 5 2 1.2 4.6.5 6.6-.7s3.7-3 5.8-3.7 5-.7 6.3 1.3c.4.7.7 1.5.8 2.3l2 10z" class="C"/><path d="M874.7 651.4L721 598c-5.5-2-8.4-8-6.5-13.4l40-114.8c1.4-4 5.8-6.2 9.8-4.8l159 55.4c4 1.4 6.3 6 4.8 10L888 645c-2 5.5-8 8.4-13.4 6.5z" class="H"/><path d="M734 591.3L868.5 638c5.3 2 11.2-1 13-6.3l32.3-92.7c2-5.3-1-11.2-6.3-13L773 479.3c-5.3-2-11.2 1-13 6.3l-32.3 92.7c-1 2.6-.7 5.4.5 7.8s3.3 4.3 5.8 5.2z" fill="#fff"/><use xlink:href="#C" class="G"/><use xlink:href="#C" x="-6" y="17.2" class="B"/><g class="E"><use xlink:href="#C" x="-12" y="34.5"/><path d="M812.6 538l-32-11.2c-.5-.2-.8-.6-1-1s.1-1 .5-1.4 1-.4 1.4-.3l32 11.2c.5.2.8.6 1 1s-.1 1-.5 1.4-1 .4-1.4.3zm-6 17.3l-32-11.2c-.8-.3-1-1-1-1.8s1-1 1.8-1l32 11.2c.5.2.8.6 1 1s-.1 1-.5 1.4-1 .4-1.4.3zm-6 17.2l-32-11.2c-.8-.3-1-1-1-1.8s1-1 1.8-1l32 11.2c.8.3 1 1 1 1.8s-1 1-1.8 1z"/></g><path d="M886 582l.7-1.7c5.5-15.8-2.8-33-18.6-38.5L857.5 572z" class="G"/><path d="M854.4 573.8l10.5-30.3c-15.5-5.4-32.6 2.6-38.3 18s2 32.6 17.3 38.7 32.6-1.3 39-16.5z" class="B"/><path d="M892 530.4c-.2-3 .8-6 3-8s5-3 8-2.8l15-32.5 9.8 15.7-15.6 28.4c-.8 5-5.3 8.7-10.4 8.5s-9.3-4.2-9.6-9.3z" class="D"/><path d="M918 519c-1 0-1.8-.3-2.6-.8l-7-5c-1.6-1-2.3-3-1.8-5l8.3-31.2-10-58c0-5.2 2.7-10 7.2-12.6s10-2.6 14.5-.1 7.3 7.4 7.3 12.5l8.2 36c2.5 11 1 22.5-4.5 32.3l-15.7 29c-.6 1-1.7 2-3 2.2-.3.1-.7.1-1 .1z" class="B"/><path d="M994 697.7H804a1 1 0 1 1 0-2h190a1 1 0 1 1 0 2z" class="E"/><path d="M490.5 685.2h12.3l5.8-47.3h-18v47.3z" class="F"/><path d="M487.4 681.2h24 0c4 0 8 1.6 11 4.5s4.5 6.8 4.5 11v.5h-39.5z" class="C"/><path d="M441.5 685.2h12.3l5.8-47.3h-18v47.3z" class="F"/><path d="M438.4 681.2h24 0c4 0 8 1.6 11 4.5s4.5 6.8 4.5 11v.5h-39.5z" class="C"/><circle cx="493" cy="333.3" r="24.6" class="F"/><path d="M509.5 675h-22.8c-1.2 0-2.4-.5-3.2-1.3s-1.3-2-1.3-3.2l1.3-108c0-.8-.6-1.5-1.4-1.5s-1.5.5-1.6 1.3L467.3 671c-.3 2.3-2.2 4-4.5 4h-23c-1.3 0-2.5-.5-3.3-1.4s-1.3-2.2-1.2-3.4l15.2-194h.4l72.6-7.8-9.6 202.5c-.1 2.4-2 4.3-4.5 4.3z" class="C"/><path d="M451.5 488c-2.4 0-4.4-2-4.5-4.4-.4-12.3-1-54.7 6.8-86a41 41 0 0 1 37.8-30.8h0a41 41 0 0 1 40.6 26c13.3 33.7 25.8 75.2 10.2 81.8-20.5 8.5-74.5 12.3-90.6 13.3q-.1 0-.3 0z" class="B"/><path d="M545.3 308.5c.4.4.8.8 1.2 1L544 359l-10.7 5.5 6.2 17.3 20-8a8 8 0 0 0 5-8.2l-5.2-56.2c3.5-2.6 5-7 3.8-11.3s-5-7.2-9.2-7.6-8.5 2-10.3 6-1 8.6 2 11.8z" class="F"/><path d="M544.2 361l7.5 21.4c.4 1.2.3 2.6-.3 3.7s-1.8 2-3 2.2l-22.2 4.3c-6.5 2.3-13.6-1.2-16-7.7s1.2-13.6 7.7-16l20-10.5c1.2-.6 2.5-.7 3.7-.2s2.2 1.5 2.6 2.7z" class="B"/><path d="M439 308.5c-.4.4-.8.8-1.2 1l2.6 49.5 10.7 5.5-6.2 17.3-20-8a8 8 0 0 1-5-8.2l5.2-56.2c-3.5-2.6-5-7-3.8-11.3s5-7.2 9.2-7.6 8.5 2 10.3 6 1 8.6-2 11.8z" class="F"/><path d="M442.7 358.2c1.2-.5 2.6-.4 3.7.2l20 10.5c6.5 2.3 10 9.4 7.7 16s-9.4 10-16 7.7l-22.2-4.3c-1.3-.2-2.4-1-3-2.2s-.8-2.5-.3-3.7L440 361c.4-1.2 1.4-2.2 2.6-2.7z" class="B"/><path d="M502.5 337.5c-.3-6.4 3.3-12.4 9-15.2 7.5-4 12.2-12 10-19.6-2.6-9.6-15.7-15.8-26.3-12.5-3 1-5.6 2.3-8.3 3.8l-7 3.7c-3 1.5-5.8 3.2-8.5 5-8.3 6-12.6 16.3-11.3 26.5 1.4 9.8 7.8 18.7 16.5 25a28 28 0 0 0 11.3 5c4.2.7 9-.1 12-2.7 4.8-4 4.3-11 2.7-16.6-.2-.8-.3-1.6-.4-2.4z" class="C"/><path d="M586 697.7H396a1 1 0 1 1 0-2h190a1 1 0 1 1 0 2z" class="E"/><path d="M276 515.3L119 579.6a11 11 0 0 1-14.3-6l-48-117c-1.7-4 .3-8.8 4.4-10.5l162-66.5c4.2-1.7 9 .3 10.7 4.5l48 117a11 11 0 0 1-6 14.3z" class="H"/><path d="M124.8 565.4L262 509c5.4-2.2 8-8.4 5.8-14L229 400.8c-1-2.6-3-4.7-5.7-5.8s-5.5-1-8 0L78 451.2c-2.6 1-4.7 3-5.8 5.7s-1 5.5 0 8l38.8 94.5c1 2.6 3 4.7 5.7 5.8s5.5 1 8 0z" fill="#fff"/><path d="M226.2 427.4l2-.8.1.3-2 .8zm-4 2l-4 1.7-.1-.3 4-1.7zm-8 3.3l-4 1.7v-.3l4-1.7zm-8 3.3l-4 1.7-.1-.3 4-1.7zm-8 3.3l-4 1.7-.1-.3 4-1.7zm-8 3.3l-4 1.7-.1-.3 4-1.7zm-8 3.3l-4 1.7-.1-.3 4-1.7zm-8 3.3l-4 1.7-.1-.3 4-1.7zm-8 3.3l-4 1.7-.1-.3 4-1.7zm-8 3.3l-4 1.7v-.3l4-1.7zm-8 3.3l-4 1.7-.1-.3 4-1.7zm-8 3.3l-4 1.7-.1-.3 4-1.7zm-8 3.3l-4 1.7-.1-.3 4-1.7zm-8 3.3l-4 1.7-.1-.3 4-1.7zm-8 3.3l-4 1.7-.1-.3 4-1.7zm-8 3.3l-4 1.7-.1-.3 4-1.7zm-8 3.3l-4 1.7v-.3l4-1.7zm-12.4 4.4l2-.8.1.3-2 .8zm83 2.5l2-.8.1.3-2 .8zm-3.8 2l-4 1.6v-.3l4-1.6zm-8 3.3l-4 1.6v-.3l4-1.6zm-8 3.3l-4 1.6v-.3l4-1.6zm-8 3.3l-4 1.6v-.3l4-1.6zm-8 3.3l-4 1.6v-.3l4-1.6zm-8 3.3l-4 1.6v-.3l4-1.6zm-8 3.3l-4 1.6v-.3l4-1.6zm-8 3.3l-4 1.6v-.3l4-1.6zm-10.4 3.7l2-.8.1.3-2 .8zm37 2l2-.8.1.3-2 .8zm-4 2l-4 1.7-.1-.3 4-1.7zm-8.3 3.4l-4 1.7-.1-.3 4-1.7zm-8.3 3.4l-4 1.7v-.3l4-1.7zm-10.3 4l2-.8.1.3-2 .8zM150 542l2-.8v.3l-2 .8zm-4 2l-4 1.7v-.3l4-1.7zm-8.3 3.4l-4 1.7-.1-.3 4-1.7zm-8.3 3.4l-4 1.7-.1-.3 4-1.7zm-10.4 3.8l2-.8v.3l-2 .8z" class="H"/><path d="M130.6 550.5L246.8 503c6-2.4 8.7-9 6.3-15l-23.5-57.2-.2.1L201 499l-21-8.8c-.8-.3-1.7-.3-2.4.2-.6.3-1 .8-1.2 1.4l-15 35.7-15.5-6.5c-.7-.3-1.4-.3-2 0s-1.2.8-1.5 1.5l-11.4 28z" class="G"/><g class="B"><path d="M130.3 551h-.3l12-28.6c.7-1.6 2.5-2.3 4-1.7L161 527l15-35.5c.7-1.6 2.5-2.3 4-1.7l20.8 8.7 28.7-68.5.3.1-28.8 69-21.2-9c-.7-.3-1.4-.3-2 0s-1.2.8-1.5 1.5l-15 36-15.5-6.5c-1.4-.6-3 .1-3.6 1.5z"/><circle cx="141.7" cy="516" r="2.5"/><circle cx="174.9" cy="485.1" r="2.5"/><circle cx="226.7" cy="426.6" r="2.5"/></g><g class="D"><path d="M84.4 513c2.7-1.3 4.6-3.8 5.3-6.7s.1-6-1.7-8.4l7.5-73.8H79.2l-6 72c-4 3.3-4.7 9-2 13.3s8.4 5.8 13 3.4z"/><circle cx="99.4" cy="360.5" r="23.1"/></g><path d="M103.7 467.3c-2 0-3.6-1.3-4-3-1.8-6.7-6.7-18-14.3-33.8a28 28 0 0 1 15.9-38.6h0a28 28 0 0 1 35.9 17.8c6 18.6 5.6 38.4 5.2 46-.1 2-1.5 3.5-3.3 4l-34.4 7.5c-.3.1-.6.1-1 .1z" fill="#ff6584"/><path d="M137 686.4h11.5L154 642h-17v44.4z" class="D"/><path d="M170.8 697h-36.2 0v-14h0 22.2a14 14 0 0 1 14 14h0 0z" class="C"/><path d="M22 671.5l10 5.5 26.2-36.3-15-8.2-21.4 39z" class="D"/><path d="M46.3 697l-31.7-17.4h0l6.7-12.3h0L40.8 678a14 14 0 0 1 5.5 19h0 0zm90.2-35.2c-2 0-4-1.6-4.2-3.7L118 547c-.1-1-1-1.8-2-2s-2 .3-2.5 1.2l-60 109c-1 1.8-3.2 2.7-5.2 2l-13-5c-1-.4-2-1.2-2.4-2.3s-.5-2.2 0-3.3l41.6-102.2c.1-.3.2-.5.2-.8 5.6-43.6 20-65.8 24.2-71.5.6-1 .8-2 .5-3l-.6-1.8c-.5-1.4-.2-3 .8-4 15.3-17.5 42-8 42.4-7.8h.1v.1c30 41 19 174.7 16.4 201-.2 2-1.8 3.7-4 3.8l-17.7 1.4h-.3z" class="C"/><path d="M189 387.3c-.1.5-.2 1-.2 1.5L148.5 412l-9.8-5.6-10.5 13.7 16.4 11.7c2.7 2 6.4 1.8 9-.2l41.6-32.8c3.8 1.4 8.2.3 11-2.8s3.2-7.5 1.2-11-6-5.6-10-5-7.4 3.5-8.3 7.5z" class="D"/><path d="M147.2 413.2l-13 17c-.8 1-2 1.6-3 1.6s-2.4-.4-3.3-1.3L113 415c-5-4-6-11.3-2-16.5s11.3-6 16.5-2L146 407c1 .6 1.8 1.6 2 2.8s0 2.5-.8 3.4zm-50.6 29.4l-21-3.8c-1.2-.2-2.3-1-3-2s-.8-2.3-.4-3.5L79 413c1.2-6.4 7.3-10.6 13.7-9.4s10.6 7.3 9.4 13.6l-.7 21.2c0 1.2-.6 2.4-1.6 3.2s-2.2 1-3.4 1z" fill="#ff6584"/><path d="M103 355.2c6 4 13.7 8.2 19.8 4a11 11 0 0 0 3.6-12.7c-3-8.3-11-12-18.5-14.7-10-3.6-20.7-6.5-31-4s-19.3 12.5-17.4 23C61 359 69 366 67.8 374.3c-1 8.5-10.7 13-19 14.4s-17.8 2-24 8c-7.7 7.7-5.8 21.5 1.5 29.6s18.2 11.8 28.8 14.3c14 3.3 29.3 5 42.6-.4s23.7-20.3 20-34.3c-1.6-6-5.5-10.8-9.2-15.7s-7.5-10-9-15.8c-1.2-5-.3-10.7 3-14.4 1.2-1.3 1.4-3.3.6-5z" class="C"/><path d="M191 697.7H1a1 1 0 1 1 0-2h190a1 1 0 1 1 0 2z" class="E"/><defs ><path id="B" d="M666.7 166.7h-296a1 1 0 1 1 0-2h296a1 1 0 1 1 0 2z"/><path id="C" d="M767.8 526.2l-6.7-2.3c-.8-.3-1-1-1-1.8l2.3-6.7c.3-.8 1-1 1.8-1l6.7 2.3c.8.3 1 1 1 1.8l-2.3 6.7c-.3.8-1 1-1.8 1z"/></defs></svg>