<svg xmlns="http://www.w3.org/2000/svg" xmlns:xlink="http://www.w3.org/1999/xlink" width="1042" height="709.1" xmlns:v="https://vecta.io/nano"><path fill="#3f3d56" d="M0 0h875v470.7H0z"/><g fill="#2cc12a"><path d="M158.2 66.4h7.7v12.3h-7.7zm26.2-3h7.7v12.3h-7.7zm14 0h7.7v12.3h-7.7zm0 37h7.7v12.3h-7.7zm15.4-18.5h7.7V94h-7.7zm0 20.2h7.7v12.3h-7.7zm-15.4 38.4h7.7v12.3h-7.7zm15.4 20h7.7v12.3h-7.7zM198.3 236h7.7v12.3h-7.7zm-14-75.5h7.7v12.3h-7.7zm-26.2-74h7.7v12.3h-7.7zm0 193h7.7v12.3h-7.7zm0 40h7.7v12.3h-7.7zm0 20h7.7V352h-7.7zM155 108h11v1.5h-11zm41.8 18.5h10.8v1.5h-10.8zM155 206.8h11v1.5h-11zm0 17h11v1.5h-11zm41.8 98.7h10.8v1.5h-10.8zm-12.4 37h10.8v1.5h-10.8zM158.2 122v3h3v6.2h-3v3h7.7V122h-7.7z"/><use xlink:href="#B"/><use xlink:href="#B" x="29.3" y="20.1"/><use xlink:href="#B" x="29.3" y="80.3"/><use xlink:href="#B" x="29.3" y="100.3"/><use xlink:href="#C"/><path d="M198.3 81.8v3h3V91h-3v3h7.7V81.8h-7.7zm0 98.8h7.7V193h-7.7zm0 37h7.7V230h-7.7zm0-18.6v3h3v6.2h-3v3h7.7V199h-7.7z"/><use xlink:href="#B" y="20.1"/><use xlink:href="#B" y="40.1"/><path d="M184.4 200.6h7.7V213h-7.7z"/><use xlink:href="#B" y="80.3"/><path d="M184.4 240.7h7.7V253h-7.7z"/><use xlink:href="#B" y="120.4"/><path d="M184.4 281h7.7v12.3h-7.7zm14-3.2h7.7V290h-7.7z"/><use xlink:href="#B" y="160.5"/><use xlink:href="#B" x="29.3" y="160.5"/><path d="M292.4 81.8h7.7V94h-7.7zm0 20.2h7.7v12.3h-7.7zm0 58.5h7.7v12.3h-7.7z"/><use xlink:href="#B" x="108" y="20.1"/><use xlink:href="#B" x="108" y="80.3"/><use xlink:href="#B" x="108" y="100.3"/><use xlink:href="#C" x="78.7"/><use xlink:href="#B" x="108" y="160.5"/><path d="M184.4 321h7.7v12.3h-7.7zm14-23.2h7.7V310h-7.7zm-14 75.7h7.7v12.3h-7.7zm14-37h7.7v12.3h-7.7z"/><use xlink:href="#D"/><use xlink:href="#E"/><path d="M269.3 63.3h7.7v12.3h-7.7zm0 97.2h7.7v12.3h-7.7zm0 199H280v1.5h-10.8z"/><use xlink:href="#B" x="84.9"/><use xlink:href="#B" x="84.9" y="20.1"/><use xlink:href="#B" x="84.9" y="40.1"/><path d="M269.3 200.6h7.7V213h-7.7z"/><use xlink:href="#B" x="84.9" y="80.3"/><path d="M269.3 240.7h7.7V253h-7.7z"/><use xlink:href="#B" x="84.9" y="120.4"/><path d="M269.3 281h7.7v12.3h-7.7z"/><use xlink:href="#B" x="84.9" y="160.5"/><path d="M269.3 321h7.7v12.3h-7.7zm0 52.5h7.7v12.3h-7.7z"/><use xlink:href="#D" x="84.9"/><use xlink:href="#E" x="84.9"/><path d="M306.3 63.3h7.7v12.3h-7.7zm0 97.2h7.7v12.3h-7.7zm0 199H317v1.5h-10.8z"/><use xlink:href="#B" x="121.9"/><use xlink:href="#B" x="121.9" y="20.1"/><use xlink:href="#B" x="121.9" y="40.1"/><path d="M306.3 200.6h7.7V213h-7.7z"/><use xlink:href="#B" x="121.9" y="80.3"/><path d="M306.3 240.7h7.7V253h-7.7z"/><use xlink:href="#B" x="121.9" y="120.4"/><path d="M306.3 281h7.7v12.3h-7.7z"/><use xlink:href="#B" x="121.9" y="160.5"/><path d="M306.3 321h7.7v12.3h-7.7zm0 52.5h7.7v12.3h-7.7z"/><use xlink:href="#D" x="121.9"/><use xlink:href="#E" x="121.9"/><use xlink:href="#B" x="13.9" y="273.2"/><use xlink:href="#B" x="13.9" y="293.2"/><use xlink:href="#B" x="-26.2" y="60.2"/><use xlink:href="#B" x="-26.2" y="138.9"/><use xlink:href="#B" x="-26.2" y="159"/><use xlink:href="#B" x="-26.2" y="199.1"/><use xlink:href="#B" x="-26.2" y="256.2"/><use xlink:href="#B" x="-26.2" y="273.2"/><path d="M238.4 66.4h7.7v12.3h-7.7zm0 20h7.7v12.3h-7.7zm-3 21.6H246v1.5h-10.8zm0 98.8H246v1.5h-10.8zm0 17H246v1.5h-10.8zm3-101.8v3h3v6.2h-3v3h7.7V122h-7.7z"/><use xlink:href="#B" x="54" y="60.2"/><use xlink:href="#B" x="54" y="138.9"/><path d="M326.4 200.6h7.7V213h-7.7zm0 20h7.7V233h-7.7zm-3 21.6H334v1.5h-10.8zm0 98.7H334v1.5h-10.8zm0 17H334v1.5h-10.8z"/><use xlink:href="#B" x="142" y="155.9"/><use xlink:href="#B" x="142" y="194.5"/><use xlink:href="#B" x="142" y="273.2"/><path d="M351 66.4h7.7v12.3H351zm26.3-3h7.7v12.3h-7.7zm14 0h7.7v12.3h-7.7zm0 37h7.7v12.3h-7.7zm15.4-18.5h7.7V94h-7.7zm0 20.2h7.7v12.3h-7.7zm-15.4 38.4h7.7v12.3h-7.7zm15.4 20h7.7v12.3h-7.7zM391.2 236h7.7v12.3h-7.7zm-14-75.5h7.7v12.3h-7.7zm-26.3-74h7.7v12.3H351zm0 193h7.7v12.3H351zm0 40h7.7v12.3H351zm0 20h7.7V352H351zM348 108h10.8v1.5H348zm41.7 18.5h10.8v1.5h-10.8zM348 206.8h10.8v1.5H348zm0 17h10.8v1.5H348zm41.7 98.7h10.8v1.5h-10.8zm-12.4 37H388v1.5h-10.8zM351 122v3h3v6.2h-3v3h7.7V122H351z"/><use xlink:href="#B" x="192.9"/><use xlink:href="#B" x="222.2" y="20.1"/><use xlink:href="#B" x="222.2" y="80.3"/><use xlink:href="#B" x="222.2" y="100.3"/><use xlink:href="#C" x="192.9"/><path d="M391.2 81.8v3h3V91h-3v3h7.7V81.8h-7.7zm0 98.8h7.7V193h-7.7zm0 37h7.7V230h-7.7zm0-18.6v3h3v6.2h-3v3h7.7V199h-7.7z"/><use xlink:href="#B" x="192.9" y="20.1"/><use xlink:href="#B" x="192.9" y="40.1"/><path d="M377.3 200.6h7.7V213h-7.7z"/><use xlink:href="#B" x="192.9" y="80.3"/><path d="M377.3 240.7h7.7V253h-7.7z"/><use xlink:href="#B" x="192.9" y="120.4"/><path d="M377.3 281h7.7v12.3h-7.7zm14-3.2h7.7V290h-7.7z"/><use xlink:href="#B" x="192.9" y="160.5"/><use xlink:href="#B" x="222.2" y="160.5"/><path d="M485.3 81.8h7.7V94h-7.7zm0 20.2h7.7v12.3h-7.7zm0 58.5h7.7v12.3h-7.7z"/><use xlink:href="#B" x="300.9" y="20.1"/><use xlink:href="#B" x="300.9" y="80.3"/><use xlink:href="#B" x="300.9" y="100.3"/><use xlink:href="#C" x="271.6"/><use xlink:href="#B" x="300.9" y="160.5"/><path d="M377.3 321h7.7v12.3h-7.7zm14-23.2h7.7V310h-7.7zm-14 75.7h7.7v12.3h-7.7zm14-37h7.7v12.3h-7.7z"/><use xlink:href="#D" x="192.9"/><use xlink:href="#E" x="192.9"/><path d="M462.2 63.3h7.7v12.3h-7.7zm0 97.2h7.7v12.3h-7.7zm0 199H473v1.5h-10.8z"/><use xlink:href="#B" x="277.8"/><use xlink:href="#B" x="277.8" y="20.1"/><use xlink:href="#B" x="277.8" y="40.1"/><path d="M462.2 200.6h7.7V213h-7.7z"/><use xlink:href="#B" x="277.8" y="80.3"/><path d="M462.2 240.7h7.7V253h-7.7z"/><use xlink:href="#B" x="277.8" y="120.4"/><path d="M462.2 281h7.7v12.3h-7.7z"/><use xlink:href="#B" x="277.8" y="160.5"/><path d="M462.2 321h7.7v12.3h-7.7zm0 52.5h7.7v12.3h-7.7z"/><use xlink:href="#D" x="277.8"/><use xlink:href="#E" x="277.8"/><path d="M499.2 63.3h7.7v12.3h-7.7zm0 97.2h7.7v12.3h-7.7zm0 199H510v1.5h-10.8z"/><use xlink:href="#B" x="314.8"/><use xlink:href="#B" x="314.8" y="20.1"/><use xlink:href="#B" x="314.8" y="40.1"/><path d="M499.2 200.6h7.7V213h-7.7z"/><use xlink:href="#B" x="314.8" y="80.3"/><path d="M499.2 240.7h7.7V253h-7.7z"/><use xlink:href="#B" x="314.8" y="120.4"/><path d="M499.2 281h7.7v12.3h-7.7z"/><use xlink:href="#B" x="314.8" y="160.5"/><path d="M499.2 321h7.7v12.3h-7.7zm0 52.5h7.7v12.3h-7.7z"/><use xlink:href="#D" x="314.8"/><use xlink:href="#E" x="314.8"/><use xlink:href="#B" x="206.8" y="273.2"/><use xlink:href="#B" x="206.8" y="293.2"/><use xlink:href="#F"/><use xlink:href="#F" y="78.7"/><use xlink:href="#F" y="98.8"/><use xlink:href="#F" y="138.9"/><use xlink:href="#F" y="196"/><use xlink:href="#F" y="213"/><path d="M431.3 66.4h7.7v12.3h-7.7zm0 20h7.7v12.3h-7.7zm-3 21.6H439v1.5h-10.8zm0 98.8H439v1.5h-10.8zm0 17H439v1.5h-10.8zm3-101.8v3h3v6.2h-3v3h7.7V122h-7.7z"/><use xlink:href="#B" x="246.9" y="60.2"/><use xlink:href="#B" x="246.9" y="138.9"/><path d="M519.3 200.6h7.7V213h-7.7zm0 20h7.7V233h-7.7zm-3 21.6H527v1.5h-10.8zm0 98.7H527v1.5h-10.8zm0 17H527v1.5h-10.8z"/><use xlink:href="#B" x="334.9" y="155.9"/><use xlink:href="#B" x="334.9" y="194.5"/><use xlink:href="#B" x="334.9" y="273.2"/><path d="M544 66.4h7.7v12.3H544zm26.2-3h7.7v12.3h-7.7zm13.8 0h7.7v12.3H584zm0 37h7.7v12.3H584zm15.5-18.5h7.7V94h-7.7zm0 20.2h7.7v12.3h-7.7zM584 140.4h7.7v12.3H584zm15.5 20h7.7v12.3h-7.7zM584 236h7.7v12.3H584zm-13.8-75.5h7.7v12.3h-7.7zm-26.2-74h7.7v12.3H544zm0 193h7.7v12.3H544zm0 40h7.7v12.3H544zm0 20h7.7V352H544zM541 108h10.8v1.5H541zm41.6 18.5h10.8v1.5h-10.8zM541 206.8h10.8v1.5H541zm0 17h10.8v1.5H541zm41.6 98.7h10.8v1.5h-10.8zm-12.4 37H581v1.5h-10.8zM544 122v3h3v6.2h-3v3h7.7V122H544z"/><use xlink:href="#B" x="385.8"/><use xlink:href="#B" x="415.1" y="20.1"/><use xlink:href="#B" x="415.1" y="80.3"/><use xlink:href="#B" x="415.1" y="100.3"/><use xlink:href="#C" x="385.8"/><path d="M584 81.8v3h3V91h-3v3h7.7V81.8H584zm0 98.8h7.7V193H584zm0 37h7.7V230H584zm0-18.6v3h3v6.2h-3v3h7.7V199H584z"/><use xlink:href="#B" x="385.8" y="20.1"/><use xlink:href="#B" x="385.8" y="40.1"/><path d="M570.2 200.6h7.7V213h-7.7z"/><use xlink:href="#B" x="385.8" y="80.3"/><path d="M570.2 240.7h7.7V253h-7.7z"/><use xlink:href="#B" x="385.8" y="120.4"/><path d="M570.2 281h7.7v12.3h-7.7zm13.8-3.2h7.7V290H584z"/><use xlink:href="#B" x="385.8" y="160.5"/><use xlink:href="#B" x="415.1" y="160.5"/><path d="M678.2 81.8h7.7V94h-7.7zm0 20.2h7.7v12.3h-7.7zm0 58.5h7.7v12.3h-7.7z"/><use xlink:href="#B" x="493.8" y="20.1"/><use xlink:href="#B" x="493.8" y="80.3"/><use xlink:href="#B" x="493.8" y="100.3"/><use xlink:href="#C" x="464.5"/><use xlink:href="#B" x="493.8" y="160.5"/><path d="M570.2 321h7.7v12.3h-7.7zm13.8-23.2h7.7V310H584zm-13.8 75.7h7.7v12.3h-7.7zm13.8-37h7.7v12.3H584z"/><use xlink:href="#D" x="385.8"/><use xlink:href="#E" x="385.8"/><path d="M655 63.3h7.7v12.3H655zm0 97.2h7.7v12.3H655zm0 199h11v1.5h-11z"/><use xlink:href="#G"/><use xlink:href="#G" y="20.1"/><use xlink:href="#G" y="40.1"/><path d="M655 200.6h7.7V213H655z"/><use xlink:href="#G" y="80.3"/><path d="M655 240.7h7.7V253H655z"/><use xlink:href="#G" y="120.4"/><path d="M655 281h7.7v12.3H655z"/><use xlink:href="#G" y="160.5"/><path d="M655 321h7.7v12.3H655zm0 52.5h7.7v12.3H655zm0-72.5v3h3v6.2h-3v3h7.7V301H655zm0 94v3h3v6.2h-3v3h7.7V395H655zm37-331.7h7.7v12.3H692zm0 97.2h7.7v12.3H692zm0 199h11v1.5h-11z"/><use xlink:href="#H"/><use xlink:href="#H" y="20.1"/><use xlink:href="#H" y="40.1"/><path d="M692 200.6h7.7V213H692z"/><use xlink:href="#H" y="80.3"/><path d="M692 240.7h7.7V253H692z"/><use xlink:href="#H" y="120.4"/><path d="M692 281h7.7v12.3H692z"/><use xlink:href="#H" y="160.5"/><path d="M692 321h7.7v12.3H692zm0 52.5h7.7v12.3H692zm0-72.5v3h3v6.2h-3v3h7.7V301H692zm0 94v3h3v6.2h-3v3h7.7V395H692zm-108-21.5v3h3v6.2h-3v3h7.7v-12.3H584zm0 20v3h3v6.2h-3v3h7.7v-12.3H584z"/><use xlink:href="#I"/><use xlink:href="#I" y="78.7"/><use xlink:href="#I" y="98.8"/><use xlink:href="#I" y="138.9"/><use xlink:href="#I" y="196"/><use xlink:href="#I" y="213"/><path d="M624.2 66.4h7.7v12.3h-7.7zm0 20h7.7v12.3h-7.7zM621 108h11v1.5h-11zm0 98.8h11v1.5h-11zm0 17h11v1.5h-11zm3.2-101.8v3h3v6.2h-3v3h7.7V122h-7.7z"/><use xlink:href="#B" x="439.8" y="60.2"/><use xlink:href="#B" x="439.8" y="138.9"/><path d="M712.2 200.6h7.7V213h-7.7zm0 20h7.7V233h-7.7zm-3.2 21.6h11v1.5h-11zm0 98.7h11v1.5h-11zm0 17h11v1.5h-11z"/><use xlink:href="#B" x="527.8" y="155.9"/><use xlink:href="#B" x="527.8" y="194.5"/><use xlink:href="#B" x="527.8" y="273.2"/></g><g fill="#2f2e41"><path d="M214.4 706.5H1042v2.6H214.4zm171-302.2v52l7 32v26c1 6-1 16-7 16s-9 15-9 15-2 6-7 7-5 0-5 0l-4 10-83 55 16 40s25-9 27-12 19 4 19-3 3-25 9-26 56-24 56-24 26-29 28-40 11-42 11-42l25 42v84l-4 45 44-6s-4-28 0-32 10-52 6-58 2-33 0-37-1-33-6-41-35-90-35-90z"/><path d="M470.5 679.3s-15 25-5 28 29 0 31 0l38 1s24-5 24-12-15-7-20-8-36-13-36-13zM282 618.5s-29-3.8-27.7 6.5 11.5 26.6 12.3 28.4l11 27c3 7.4 7.3 14 12.8 19.7 4 4 8.2 7 11 6 6.4-2.8.5-16.5-.6-21.5s-2.4-38.2-2.4-38.2z"/></g><path d="M483 238.8l32-74s-3-7-10-6c0 0-9.5-24.5-27.5-24.5 0 0-27-15-35 0 0 0-17 15-16 29l2 24s-16 2-13 10 4 8 0 11l-4 3s-83 75-37 185l4 17v16h101c0-1-2-7 2-11s4-10 4-10-4-20-2-26 3-32-1-38-2-54-2-54l9-17-3-10-3-10z" fill="#8985a8"/><path d="M474.5 439.3s-12-33-11-39-2-18-2-18l-4-81s17-72-21-84c0 0-9.6 4.2-17.5 17.7-7.8 3.5-17.2 12.3-19.5 34.3-4 39 14 139 23 156l15 29 9.4-4.2.6 1.2z" opacity=".1"/><circle cx="480" cy="226.8" r="3" fill="#f2f2f2"/><path fill="#3f3d56" d="M479 226.8h2v47h-2z"/><path d="M444 442.8l8 17s18-6 18-9-8-16-8-16z" fill="#ffb8b8"/><path d="M432.5 217.3s-23 10-27 49 14 139 23 156l15 29 27-12s-12-33-11-39-2-18-2-18l-4-81s17-72-21-84z" fill="#8985a8"/><defs ><path id="B" d="M184.4 100.3v3h3v6.2h-3v3h7.7v-12.3h-7.7z"/><path id="C" d="M213.7 139v3h3v6.2h-3v3h7.7V139h-7.7z"/><path id="D" d="M184.4 301v3h3v6.2h-3v3h7.7V301h-7.7z"/><path id="E" d="M184.4 395v3h3v6.2h-3v3h7.7V395h-7.7z"/><path id="F" d="M351 160.5v3h3v6.2h-3v3h7.7v-12.3H351z"/><path id="G" d="M655 100.3v3h3v6.2h-3v3h7.7v-12.3H655z"/><path id="H" d="M692 100.3v3h3v6.2h-3v3h7.7v-12.3H692z"/><path id="I" d="M544 160.5v3h3v6.2h-3v3h7.7v-12.3H544z"/></defs></svg>