<svg xmlns="http://www.w3.org/2000/svg" xmlns:xlink="http://www.w3.org/1999/xlink" width="974.8" height="674.1" xmlns:v="https://vecta.io/nano"><style><![CDATA[.B{fill:#e6e6e6}.C{fill:#fff}.D{fill:#372ac1}.E{fill:#2f2e41}.F{fill:#ffb9b9}.G{fill:#3f3d56}]]></style><g class="E"><path d="M88 294.4c-18 14.8 11.5 144.4 11.5 144.4L120 645.5c14 9 45-.8 57.4-2.5s1.6-124-16.4-169-4-110.7-4-110.7l97.6 19s-59 50-56.6 60.7 65.6 46.8 77 48.4 33.6-65.6 53.3-111.6S194 304.3 194 304.3L172.6 264S106 279.6 88 294.4z"/><path d="M137 649s-6 20.8 0 20.8 17 6 33.7 4 12-22.8 0-25.8-9-26.8-9-26.8c-4-8-22.8 2-22.8 2zm84.6-165.8s-10.2 19-4.4 20.4 15.2 9.4 32 11 16.4-19.8 5.4-25.2-3-28-3-28c-2.2-8.6-22.7-3-22.7-3z"/></g><path d="M99.2 116.8c1.6 3.3-5.7 44.3-5.7 44.3l6.6 11.5s37.7-14.8 32-17.2-5-32.8-5-32.8-29.5-9-28-5.7z" class="F"/><g class="E"><circle cx="113.4" cy="79.2" r="50.3"/><circle cx="109.9" cy="32.1" r="20.8"/><path d="M119 41.5l2.2.1c7.4 0 14.3-4 18-10.4s3.7-14.4 0-20.8S128.6 0 121.2 0l-2.2.1c10.6 1 18.6 10 18.6 20.7s-8 19.6-18.6 20.7z"/></g><circle cx="114.8" cy="103.7" r="34.5" class="F"/><path d="M65 156.6c-10.7 2.5-28.7 28.7-28.7 28.7L65 214l23 80.4c16 21.5 88.6-26.2 88.6-26.2s-3-23.4-1.2-35c1.6-11-6.2-33.2-6.2-33.2s27-11.5 21.3-23-41-37.7-55.8-28.7-44.3 0-44.3 0L65 156.6z" class="B"/><path d="M274.7 322s46.8 40.2 58.2 32-44.3-37-44.3-37zm-210-14c6.6 7.4 37.7-11.5 33.7-20s-28.8 8.4-28.8 8.4-11.5 4-5 11.5z" class="F"/><path d="M65 196.8l-34.5 64S70 293.6 75 294.4s-9.8 22-9.8 22L3.6 269.8c-17.2-15.6 32.8-84.5 32.8-84.5l14.8-9zm100.2-2.5l40.2 62.3L275 329c8.2 3.3 18-12.3 18-12.3L219.3 227l-28-50-10.7-4z" class="B"/><ellipse cx="113.4" cy="62.8" rx="34.7" ry="20.8" class="E"/><path d="M210.7 511.8c-2.4 0-4.3 2-4.3 4.3v146.2c0 2.4 2 4.3 4.3 4.3h498.7c2.4 0 4.3-2 4.3-4.3V516c0-2.4-2-4.3-4.3-4.3z" class="B"/><path d="M217 656H703V522.5H217z" class="C"/><path d="M641.6 628.2c-2.5 0-5 1.4-6.2 3.5s-1.3 5 0 7 3.6 3.6 6.2 3.5H670c2.5 0 5-1.4 6.2-3.6s1.3-5 0-7-3.6-3.6-6.2-3.6h-28.4z" class="D"/><path d="M349 614.4h328v2H349z" class="B"/><circle cx="280.6" cy="589.2" r="41.4" class="D"/><path d="M349.6 604l-1-1.6 34-22.7L406 591l33.6-21.5 67 28.5 53.3-26.2 51.7 21 65-57.5 1.2 1.4L612 595l-52-21-53.3 26.2-66.7-28.5-33.7 21.5-23.3-11.2-33.2 22z" class="G"/><path d="M355.2 629.2c-2.2 0-4.2 1.2-5.3 3s-1 4.2 0 6 3 3 5.3 3h63.5c3.4 0 6-2.7 6-6s-2.7-6-6-6z" class="B"/><path d="M296.4 570.7h6.5L289.4 584c-5 4.8-12.7 4.8-17.6 0l-13.4-13.3h6.5l10.2 10c3 3 8 3 11.2 0zm-31.7 37h-6.5l13.5-13.4c5-4.8 12.7-4.8 17.6 0l13.5 13.4h-6.5L286 597.5c-3-3-8-3-11.2 0z" class="C"/><path d="M275.6 43.4c-2.4 0-4.3 2-4.3 4.3V194c0 2.4 2 4.3 4.3 4.3h498.7c2.4 0 4.3-2 4.3-4.3V47.6c0-2.4-2-4.3-4.3-4.3z" class="B"/><path d="M282 187.4h485.8V54H282z" class="C"/><path d="M706.5 159.8c-4 0-7 3.2-7 7s3.2 7 7 7H735c4 0 7-3.2 7-7s-3.2-7-7-7h-28.4z" class="D"/><path d="M414 146h328v2H414z" class="B"/><circle cx="345.5" cy="120.8" r="41.4" class="D"/><use xlink:href="#B" class="G"/><path d="M420 160.7c-3.4 0-6 2.7-6 6s2.7 6 6 6h63.5c3.4 0 6-2.7 6-6s-2.7-6-6-6z" class="B"/><path d="M362 116c.8-5.2-3.2-8-8.6-9.8l1.7-7-4.3-1-1.7 6.8-3.4-.8 1.7-7-4.3-1-1.7 7-2.7-.6h0l-6-1.5-1 4.6 3 .8c1.2.1 2 1.3 2 2.5l-2 8c.2 0 .3.1.4.1l-.4-.1-2.8 11.2c-.1.4-.4.7-.8 1s-.8.2-1.2.1c0 .1-3-.8-3-.8l-2 5 5.6 1.4c1 .3 2 .5 3 .8l-1.8 7 4.3 1 1.8-7 3.4 1-1.7 7 4.3 1 1.8-7c7.3 1.4 12.8.8 15-5.8 2-5.3-.1-8.4-4-10.4 2.8-.6 5-2.5 5.5-6.3zm-9.8 13.7c-1.3 5.3-10.2 2.4-13 1.7l2.3-9.4c3 .7 12.2 2.2 10.8 7.7zm1.3-13.8c-1.2 4.8-8.6 2.4-11 1.8l2-8.5c2.4.6 10.2 1.7 9 6.8z" class="C"/><path d="M471.8 277.6c-2.4 0-4.3 2-4.3 4.3V428c0 2.4 2 4.3 4.3 4.3h498.7c2.4 0 4.3-2 4.3-4.3V282c0-2.4-2-4.3-4.3-4.3z" class="B"/><path d="M478.3 421.6H964V288.3H478.3z" class="C"/><path d="M902.7 394c-4 0-7 3.2-7 7s3.2 7 7 7H931c4 0 7-3.2 7-7s-3.2-7-7-7h-28.4z" class="D"/><path d="M610.2 380.2h328v2h-328z" class="B"/><circle cx="541.7" cy="355" r="41.4" class="D"/><use xlink:href="#B" x="196.2" y="234.2" class="G"/><path d="M616.3 395c-3.4 0-6 2.7-6 6s2.7 6 6 6H680c3.4 0 6-2.7 6-6s-2.7-6-6-6z" class="B"/><path d="M541.7 382.2l16.7-23.6-16.7 10h0l-16.7-10 16.7 23.6h0 0 0 0zm0-16.8h0 0 0l16.7-10-16.7-27.8h0 0 0 0l-16.7 28 16.7 10z" class="C"/><defs ><path id="B" d="M414.6 135.6l-1-1.6 34-22.7 23.4 11.2 33.6-21.5.5.2 66.4 28.3 53.3-26.2 51.7 21 65-57.5 1.2 1.4-65.8 58.3-52-21-53.3 26.2-66.7-28.5-33.7 21.5-23.3-11.2-33.2 22z"/></defs></svg>