<?xml version="1.0" encoding="UTF-8" standalone="no"?><!-- Generator: Gravit.io --><svg xmlns="http://www.w3.org/2000/svg" xmlns:xlink="http://www.w3.org/1999/xlink" style="isolation:isolate" viewBox="0 0 888 572.011" width="888pt" height="572.011pt"><defs><clipPath id="_clipPath_izjaktLJlOqO3DMTqrBNCfZj4fsCJDk5"><rect width="888" height="572.011"/></clipPath></defs><g clip-path="url(#_clipPath_izjaktLJlOqO3DMTqrBNCfZj4fsCJDk5)"><rect x="39.5" y="318.709" width="6" height="5" transform="matrix(1,0,0,1,0,0)" fill="rgb(230,230,230)"/><path d=" M 613.029 323.709 L 601.206 323.709 L 601.206 318.709 L 613.029 318.709 L 613.029 323.709 Z  M 589.383 323.709 L 577.559 323.709 L 577.559 318.709 L 589.383 318.709 L 589.383 323.709 Z  M 565.735 323.709 L 553.912 323.709 L 553.912 318.709 L 565.735 318.709 L 565.735 323.709 Z  M 542.089 323.709 L 530.265 323.709 L 530.265 318.709 L 542.089 318.709 L 542.089 323.709 Z  M 518.441 323.709 L 506.618 323.709 L 506.618 318.709 L 518.441 318.709 L 518.441 323.709 Z  M 494.794 323.709 L 482.971 323.709 L 482.971 318.709 L 494.794 318.709 L 494.794 323.709 Z  M 471.147 323.709 L 459.324 323.709 L 459.324 318.709 L 471.147 318.709 L 471.147 323.709 Z  M 447.5 323.709 L 435.677 323.709 L 435.677 318.709 L 447.5 318.709 L 447.5 323.709 Z  M 423.853 323.709 L 412.03 323.709 L 412.03 318.709 L 423.853 318.709 L 423.853 323.709 Z  M 400.206 323.709 L 388.382 323.709 L 388.382 318.709 L 400.206 318.709 L 400.206 323.709 Z  M 376.559 323.709 L 364.735 323.709 L 364.735 318.709 L 376.559 318.709 L 376.559 323.709 Z  M 352.912 323.709 L 341.088 323.709 L 341.088 318.709 L 352.912 318.709 L 352.912 323.709 Z  M 329.265 323.709 L 317.441 323.709 L 317.441 318.709 L 329.265 318.709 L 329.265 323.709 Z  M 305.618 323.709 L 293.794 323.709 L 293.794 318.709 L 305.618 318.709 L 305.618 323.709 Z  M 281.971 323.709 L 270.147 323.709 L 270.147 318.709 L 281.971 318.709 L 281.971 323.709 Z  M 258.324 323.709 L 246.5 323.709 L 246.5 318.709 L 258.324 318.709 L 258.324 323.709 Z  M 234.677 323.709 L 222.853 323.709 L 222.853 318.709 L 234.677 318.709 L 234.677 323.709 Z  M 211.03 323.709 L 199.206 323.709 L 199.206 318.709 L 211.03 318.709 L 211.03 323.709 Z  M 187.382 323.709 L 175.559 323.709 L 175.559 318.709 L 187.382 318.709 L 187.382 323.709 Z  M 163.735 323.709 L 151.912 323.709 L 151.912 318.709 L 163.735 318.709 L 163.735 323.709 Z  M 140.088 323.709 L 128.265 323.709 L 128.265 318.709 L 140.088 318.709 L 140.088 323.709 Z  M 116.441 323.709 L 104.618 323.709 L 104.618 318.709 L 116.441 318.709 L 116.441 323.709 Z  M 92.794 323.709 L 80.971 323.709 L 80.971 318.709 L 92.794 318.709 L 92.794 323.709 Z  M 69.147 323.709 L 57.324 323.709 L 57.324 318.709 L 69.147 318.709 L 69.147 323.709 Z " fill="rgb(230,230,230)"/><rect x="39.5" y="191.709" width="6" height="5" transform="matrix(1,0,0,1,0,0)" fill="rgb(230,230,230)"/><path d=" M 613.029 196.709 L 601.206 196.709 L 601.206 191.709 L 613.029 191.709 L 613.029 196.709 Z  M 589.383 196.709 L 577.559 196.709 L 577.559 191.709 L 589.383 191.709 L 589.383 196.709 Z  M 565.735 196.709 L 553.912 196.709 L 553.912 191.709 L 565.735 191.709 L 565.735 196.709 Z  M 542.089 196.709 L 530.265 196.709 L 530.265 191.709 L 542.089 191.709 L 542.089 196.709 Z  M 518.441 196.709 L 506.618 196.709 L 506.618 191.709 L 518.441 191.709 L 518.441 196.709 Z  M 494.794 196.709 L 482.971 196.709 L 482.971 191.709 L 494.794 191.709 L 494.794 196.709 Z  M 471.147 196.709 L 459.324 196.709 L 459.324 191.709 L 471.147 191.709 L 471.147 196.709 Z  M 447.5 196.709 L 435.677 196.709 L 435.677 191.709 L 447.5 191.709 L 447.5 196.709 Z  M 423.853 196.709 L 412.03 196.709 L 412.03 191.709 L 423.853 191.709 L 423.853 196.709 Z  M 400.206 196.709 L 388.382 196.709 L 388.382 191.709 L 400.206 191.709 L 400.206 196.709 Z  M 376.559 196.709 L 364.735 196.709 L 364.735 191.709 L 376.559 191.709 L 376.559 196.709 Z  M 352.912 196.709 L 341.088 196.709 L 341.088 191.709 L 352.912 191.709 L 352.912 196.709 Z  M 329.265 196.709 L 317.441 196.709 L 317.441 191.709 L 329.265 191.709 L 329.265 196.709 Z  M 305.618 196.709 L 293.794 196.709 L 293.794 191.709 L 305.618 191.709 L 305.618 196.709 Z  M 281.971 196.709 L 270.147 196.709 L 270.147 191.709 L 281.971 191.709 L 281.971 196.709 Z  M 258.324 196.709 L 246.5 196.709 L 246.5 191.709 L 258.324 191.709 L 258.324 196.709 Z  M 234.677 196.709 L 222.853 196.709 L 222.853 191.709 L 234.677 191.709 L 234.677 196.709 Z  M 211.03 196.709 L 199.206 196.709 L 199.206 191.709 L 211.03 191.709 L 211.03 196.709 Z  M 187.382 196.709 L 175.559 196.709 L 175.559 191.709 L 187.382 191.709 L 187.382 196.709 Z  M 163.735 196.709 L 151.912 196.709 L 151.912 191.709 L 163.735 191.709 L 163.735 196.709 Z  M 140.088 196.709 L 128.265 196.709 L 128.265 191.709 L 140.088 191.709 L 140.088 196.709 Z  M 116.441 196.709 L 104.618 196.709 L 104.618 191.709 L 116.441 191.709 L 116.441 196.709 Z  M 92.794 196.709 L 80.971 196.709 L 80.971 191.709 L 92.794 191.709 L 92.794 196.709 Z  M 69.147 196.709 L 57.324 196.709 L 57.324 191.709 L 69.147 191.709 L 69.147 196.709 Z " fill="rgb(230,230,230)"/><rect x="39.5" y="64.709" width="6" height="5" transform="matrix(1,0,0,1,0,0)" fill="rgb(230,230,230)"/><path d=" M 613.029 69.709 L 601.206 69.709 L 601.206 64.709 L 613.029 64.709 L 613.029 69.709 Z  M 589.383 69.709 L 577.559 69.709 L 577.559 64.709 L 589.383 64.709 L 589.383 69.709 Z  M 565.735 69.709 L 553.912 69.709 L 553.912 64.709 L 565.735 64.709 L 565.735 69.709 Z  M 542.089 69.709 L 530.265 69.709 L 530.265 64.709 L 542.089 64.709 L 542.089 69.709 Z  M 518.441 69.709 L 506.618 69.709 L 506.618 64.709 L 518.441 64.709 L 518.441 69.709 Z  M 494.794 69.709 L 482.971 69.709 L 482.971 64.709 L 494.794 64.709 L 494.794 69.709 Z  M 471.147 69.709 L 459.324 69.709 L 459.324 64.709 L 471.147 64.709 L 471.147 69.709 Z  M 447.5 69.709 L 435.677 69.709 L 435.677 64.709 L 447.5 64.709 L 447.5 69.709 Z  M 423.853 69.709 L 412.03 69.709 L 412.03 64.709 L 423.853 64.709 L 423.853 69.709 Z  M 400.206 69.709 L 388.382 69.709 L 388.382 64.709 L 400.206 64.709 L 400.206 69.709 Z  M 376.559 69.709 L 364.735 69.709 L 364.735 64.709 L 376.559 64.709 L 376.559 69.709 Z  M 352.912 69.709 L 341.088 69.709 L 341.088 64.709 L 352.912 64.709 L 352.912 69.709 Z  M 329.265 69.709 L 317.441 69.709 L 317.441 64.709 L 329.265 64.709 L 329.265 69.709 Z  M 305.618 69.709 L 293.794 69.709 L 293.794 64.709 L 305.618 64.709 L 305.618 69.709 Z  M 281.971 69.709 L 270.147 69.709 L 270.147 64.709 L 281.971 64.709 L 281.971 69.709 Z  M 258.324 69.709 L 246.5 69.709 L 246.5 64.709 L 258.324 64.709 L 258.324 69.709 Z  M 234.677 69.709 L 222.853 69.709 L 222.853 64.709 L 234.677 64.709 L 234.677 69.709 Z  M 211.03 69.709 L 199.206 69.709 L 199.206 64.709 L 211.03 64.709 L 211.03 69.709 Z  M 187.382 69.709 L 175.559 69.709 L 175.559 64.709 L 187.382 64.709 L 187.382 69.709 Z  M 163.735 69.709 L 151.912 69.709 L 151.912 64.709 L 163.735 64.709 L 163.735 69.709 Z  M 140.088 69.709 L 128.265 69.709 L 128.265 64.709 L 140.088 64.709 L 140.088 69.709 Z  M 116.441 69.709 L 104.618 69.709 L 104.618 64.709 L 116.441 64.709 L 116.441 69.709 Z  M 92.794 69.709 L 80.971 69.709 L 80.971 64.709 L 92.794 64.709 L 92.794 69.709 Z  M 69.147 69.709 L 57.324 69.709 L 57.324 64.709 L 69.147 64.709 L 69.147 69.709 Z " fill="rgb(230,230,230)"/><rect x="186" y="320.209" width="49" height="180" transform="matrix(1,0,0,1,0,0)" fill="rgb(63,61,86)"/><rect x="195" y="320.209" width="49" height="180" transform="matrix(1,0,0,1,0,0)" fill="rgb(55,41,193)"/><rect x="302" y="193.209" width="49" height="307" transform="matrix(1,0,0,1,0,0)" fill="rgb(63,61,86)"/><rect x="311" y="193.209" width="49" height="307" transform="matrix(1,0,0,1,0,0)" fill="rgb(55,41,193)"/><rect x="418" y="66.209" width="49" height="434" transform="matrix(1,0,0,1,0,0)" fill="rgb(63,61,86)"/><rect x="427" y="66.209" width="49" height="434" transform="matrix(1,0,0,1,0,0)" fill="rgb(55,41,193)"/><circle vector-effect="non-scaling-stroke" cx="40" cy="67.20885" r="12" fill="rgb(230,230,230)"/><circle vector-effect="non-scaling-stroke" cx="40" cy="194.20885" r="12" fill="rgb(230,230,230)"/><circle vector-effect="non-scaling-stroke" cx="40" cy="321.20885" r="12" fill="rgb(230,230,230)"/><rect x="0" y="499.088" width="888" height="2.241" transform="matrix(1,0,0,1,0,0)" fill="rgb(63,61,86)"/><circle vector-effect="non-scaling-stroke" cx="756.34414" cy="59.79509" r="34.03720999999996" fill="rgb(47,46,65)"/><path d=" M 674.011 283.797 L 672.171 294.836 C 672.171 294.836 662.052 332.553 674.931 330.713 C 674.931 330.713 683.21 296.676 683.21 296.676 L 685.05 286.556 L 674.011 283.797 Z " fill="rgb(255,185,185)"/><path d=" M 787.622 231.821 L 713.108 231.821 C 713.108 231.821 691.949 264.938 700.229 322.893 C 700.229 322.893 704.828 510.558 704.828 510.558 L 733.346 510.558 L 752.664 307.255 L 793.141 510.558 L 819.819 507.798 L 805.1 273.218 L 787.622 231.821 Z " fill="rgb(47,46,65)"/><path d=" M 712.648 507.338 L 711.728 541.376 C 711.728 541.376 699.769 575.413 717.247 571.733 C 717.247 571.733 736.566 560.694 736.566 557.934 C 736.566 557.934 731.966 507.338 731.966 507.338 L 712.648 507.338 Z " fill="rgb(47,46,65)"/><path d=" M 815.144 504.752 L 820.411 541.152 C 820.411 541.152 836.626 573.38 818.82 571.966 C 818.82 571.966 798.248 563.489 797.895 560.752 C 797.895 560.752 795.985 507.224 795.985 507.224 L 815.144 504.752 Z " fill="rgb(47,46,65)"/><circle vector-effect="non-scaling-stroke" cx="756.8041" cy="68.53437" r="24.837959999999953" fill="rgb(255,185,185)"/><path d=" M 775.663 79.114 L 785.782 114.071 L 765.543 134.309 L 754.504 114.991 L 750.825 87.393 L 775.663 79.114 L 775.663 79.114 Z " fill="rgb(255,185,185)"/><path d=" M 784.402 102.572 C 784.402 102.572 783.047 93.293 780.045 94.253 C 780.045 94.253 750.365 101.652 750.365 104.411 L 750.365 116.37 L 728.286 201.923 L 722.767 236.881 L 780.722 235.961 L 789.921 114.531 L 784.402 102.572 Z " fill="rgb(230,230,230)"/><path d=" M 779.342 92.912 L 785.782 94.752 L 796.361 105.331 C 796.361 105.331 822.119 100.732 825.798 112.691 C 829.478 124.65 805.56 273.678 805.56 273.678 C 805.56 273.678 765.083 287.476 758.644 252.519 C 752.204 217.562 752.664 187.665 765.543 165.586 C 778.422 143.508 779.342 92.912 779.342 92.912 Z " fill="rgb(47,46,65)"/><path d=" M 752.655 101.121 L 748.985 103.032 L 745.765 117.29 C 745.765 117.29 719.087 124.65 717.247 134.769 C 717.247 134.769 718.167 200.084 718.167 200.084 C 718.167 200.084 692.409 252.519 697.009 274.597 C 697.009 274.597 708.048 283.797 716.327 271.838 C 724.607 259.879 744.845 188.125 745.765 183.525 C 746.685 178.925 756.785 102.431 752.655 101.121 Z " fill="rgb(47,46,65)"/><path d=" M 727.367 131.089 L 717.516 133.76 L 710.808 153.167 L 697.009 202.843 L 670.331 284.717 L 688.73 292.996 L 718.167 233.201 L 727.367 131.089 L 727.367 131.089 Z " fill="rgb(47,46,65)"/><path d=" M 775.663 65.315 C 759.847 59.61 754.495 56.106 737.026 65.315 L 730.586 39.557 L 782.102 39.557 L 775.663 65.315 Z " fill="rgb(47,46,65)"/><circle vector-effect="non-scaling-stroke" cx="753.58437" cy="23.91804" r="19.31840999999997" fill="rgb(47,46,65)"/><path d=" M 730.586 19.318 C 730.591 9.013 738.691 0.529 748.985 0.046 C 748.678 0.032 748.375 0 748.065 0 C 737.396 0 728.746 8.649 728.746 19.318 C 728.746 29.988 737.396 38.637 748.065 38.637 C 748.375 38.637 748.678 38.605 748.985 38.59 C 738.691 38.108 730.591 29.624 730.586 19.318 L 730.586 19.318 Z " fill="rgb(47,46,65)"/><rect x="715.625" y="287.107" width="71.754" height="30.534" transform="matrix(1,0,0,1,0,0)" fill="rgb(41,193,82)"/><g opacity="0.1"><rect x="715.625" y="287.107" width="71.754" height="30.534" transform="matrix(1,0,0,1,0,0)" fill="rgb(0,0,0)"/></g><g opacity="0.2"><circle vector-effect="non-scaling-stroke" cx="751.5024" cy="302.3739499999999" r="8.396759999999972" fill="rgb(0,0,0)"/></g><g opacity="0.2"><path d=" M 732.419 315.351 L 718.679 315.351 L 718.679 289.397 L 733.182 289.397 L 733.182 290.924 L 720.205 290.924 L 720.205 313.824 L 732.419 313.824 L 732.419 315.351 L 732.419 315.351 Z " fill="rgb(0,0,0)"/></g><g opacity="0.2"><path d=" M 784.326 315.351 L 770.586 315.351 L 770.586 313.824 L 782.799 313.824 L 782.799 290.924 L 769.823 290.924 L 769.823 289.397 L 784.326 289.397 L 784.326 315.351 L 784.326 315.351 Z " fill="rgb(0,0,0)"/></g><rect x="713.326" y="300.467" width="71.754" height="30.534" transform="matrix(0.955,-0.298,0.298,0.955,-60.054,237.663)" fill="rgb(41,193,82)"/><g opacity="0.2"><circle vector-effect="non-scaling-stroke" cx="748.74263" cy="315.25289" r="8.396759999999972" fill="rgb(0,0,0)"/></g><g opacity="0.2"><path d=" M 734.394 333.328 L 721.279 337.423 L 713.543 312.65 L 727.387 308.327 L 727.842 309.784 L 715.455 313.652 L 722.281 335.511 L 733.939 331.871 L 734.394 333.328 L 734.394 333.328 Z " fill="rgb(0,0,0)"/></g><g opacity="0.2"><path d=" M 783.942 317.856 L 770.827 321.952 L 770.372 320.494 L 782.03 316.854 L 775.204 294.995 L 762.817 298.863 L 762.362 297.405 L 776.206 293.082 L 783.942 317.856 L 783.942 317.856 Z " fill="rgb(0,0,0)"/></g><path d=" M 787.296 268.572 L 783.085 278.941 C 783.085 278.941 771.963 316.374 761.952 308.065 C 751.942 299.755 772.716 274.73 772.716 274.73 L 776.445 265.145 L 787.296 268.572 Z " fill="rgb(255,185,185)"/><path d=" M 812.92 115.451 L 825.798 112.691 C 827.628 118.111 829.111 123.641 830.238 129.249 C 832.078 138.449 829.238 211.123 827.398 218.482 C 825.558 225.841 792.199 274.877 792.199 274.877 L 762.178 268.363 L 805.56 202.843 L 812.92 115.451 Z " fill="rgb(47,46,65)"/><g opacity="0.2"><path d=" M 806 162.209 L 798 206.209 L 768 267.209 L 795 203.209 L 806 162.209 L 806 162.209 Z " fill="rgb(0,0,0)"/></g></g></svg>