<svg xmlns="http://www.w3.org/2000/svg" xmlns:xlink="http://www.w3.org/1999/xlink" viewBox="0 0 888 572" width="1184" height="762.7" xmlns:v="https://vecta.io/nano"><defs><clipPath id="A"><path d="M0 0h888v572H0z"/></clipPath><path id="B" d="M613 323.7h-11.8v-5H613v5zm-23.6 0h-11.8v-5h11.8v5zm-23.6 0H554v-5h11.8v5zm-23.6 0h-11.8v-5H542v5zm-23.6 0h-11.8v-5h11.8v5zm-23.6 0H483v-5h11.8v5zm-23.6 0h-11.8v-5H471v5zm-23.6 0h-11.8v-5h11.8v5zm-23.6 0H412v-5H424v5zm-23.6 0h-11.8v-5h11.8v5zm-23.6 0h-11.8v-5h11.8v5zm-23.6 0H341v-5H353v5zm-23.6 0h-11.8v-5h11.8v5zm-23.6 0h-11.8v-5h11.8v5zm-23.6 0H270v-5H282v5zm-23.6 0h-11.8v-5h11.8v5zm-23.6 0H223v-5h11.8v5zm-23.6 0h-11.8v-5H211v5zm-23.6 0h-11.8v-5h11.8v5zm-23.6 0H152v-5h11.8v5zm-23.6 0h-11.8v-5H140v5zm-23.6 0h-11.8v-5h11.8v5zm-23.6 0H81v-5h11.8v5zm-23.6 0H57.3v-5H69v5z"/></defs><g clip-path="url(#A)"><g fill="#e6e6e6"><path d="M39.5 318.7h6v5h-6z"/><use xlink:href="#B"/><path d="M39.5 191.7h6v5h-6zm573.5 5h-11.8v-5H613v5zm-23.6 0h-11.8v-5h11.8v5zm-23.6 0H554v-5h11.8v5zm-23.6 0h-11.8v-5H542v5zm-23.6 0h-11.8v-5h11.8v5zm-23.6 0h-12v-5h11.8v5zm-23.6 0h-11.8v-5H471v5zm-23.6 0H436v-5h11.8v5zm-23.6 0H412v-5h12v5zm-23.6 0h-11.8v-5h11.8v5zm-23.6 0h-11.8v-5H377v5zm-23.6 0H341v-5h12v5zm-23.6 0H318v-5h11.8v5zm-23.6 0h-11.8v-5h11.8v5zm-23.6 0H270v-5h12v5zm-23.6 0h-11.8v-5H259v5zm-23.6 0H223v-5h11.8v5zm-23.6 0H200v-5h11v5zm-23.6 0h-11.8v-5h11.8v5zm-23.6 0H152v-5h11.8v5zm-23.6 0h-11.8v-5H140v5zm-23.6 0h-11.8v-5h11.8v5zm-23.6 0H81v-5h11.8v5zm-23.6 0h-13v-5H69v5zm-30.7-132h6v5h-6zm573.5 5h-11.8v-5H613v5zm-23.6 0h-11.8v-5h11.8v5zm-23.6 0H554v-5h11.8v5zm-23.6 0h-11.8v-5H542v5zm-23.6 0h-11.8v-5h11.8v5zm-23.6 0h-12v-5h11.8v5zm-23.6 0h-11.8v-5H471v5zm-23.6 0H436v-5h11.8v5zm-23.6 0H412v-5h12v5zm-23.6 0h-11.8v-5h11.8v5zm-23.6 0h-11.8v-5H377v5zm-23.6 0H341v-5h12v5zm-23.6 0H318v-5h11.8v5zm-23.6 0h-11.8v-5h11.8v5zm-23.6 0H270v-5h12v5zm-23.6 0h-11.8v-5H259v5zm-23.6 0H223v-5h11.8v5zm-23.6 0H200v-5h11v5zm-23.6 0h-11.8v-5h11.8v5zm-23.6 0H152v-5h11.8v5zm-23.6 0h-11.8v-5H140v5zm-23.6 0h-11.8v-5h11.8v5zm-23.6 0H81v-5h11.8v5zm-23.6 0h-13v-5H69v5z"/></g><path fill="#3f3d56" d="M186 320.2h49v180h-49z"/><path fill="#3729c1" d="M195 320.2h49v180h-49z"/><path fill="#3f3d56" d="M302 193.2h49v307h-49z"/><path fill="#3729c1" d="M311 193.2h49v307h-49z"/><path fill="#3f3d56" d="M418 66.2h49v434h-49z"/><path fill="#3729c1" d="M427 66.2h49v434h-49z"/><g fill="#e6e6e6"><circle vector-effect="non-scaling-stroke" cx="40" cy="67.2" r="12"/><circle vector-effect="non-scaling-stroke" cx="40" cy="194.2" r="12"/><circle vector-effect="non-scaling-stroke" cx="40" cy="321.2" r="12"/></g><path fill="#3f3d56" d="M0 499h888v2.2H0z"/><circle vector-effect="non-scaling-stroke" cx="756.3" cy="59.8" r="34" fill="#2f2e41"/><path d="M674 283.8l-1.8 11s-10 37.7 2.8 36l8.3-34 1.8-10-11-2.8z" fill="#ffb9b9"/><g fill="#2f2e41"><path d="M787.6 231.8H713s-21.2 33-13 91l4.6 187.7h28.5l19.3-203.3L793 510.6l26.7-2.8L805 273.2l-17.5-41.4z"/><path d="M712.6 507.3l-1 34s-12 34 5.5 30.4c0 0 19.3-11 19.3-13.8l-4.6-50.6h-19.3zm102.4-2.5l5.3 36.4s16.2 32.2-1.6 30.8c0 0-20.6-8.5-21-11.2l-2-53.5 19.2-2.5z"/></g><g fill="#ffb9b9"><circle vector-effect="non-scaling-stroke" cx="756.8" cy="68.5" r="24.8"/><path d="M775.7 79l10 35-20.2 20.2-11-19.3-3.7-27.6 24.8-8.3h0z"/></g><path d="M784.4 102.6s-1.4-9.3-4.4-8.3c0 0-29.7 7.4-29.7 10.2v12l-22 85.6-5.5 35 58-1 9.2-121.4-5.5-12z" fill="#e6e6e6"/><g fill="#2f2e41"><path d="M779.3 93l6.4 1.8 10.6 10.6s25.8-4.6 29.4 7.4-20.2 161-20.2 161-40.5 13.8-47-21.2-6-65 7-87S779.3 93 779.3 93zm-26.6 8l-3.7 2-3.2 14.3s-26.7 7.4-28.5 17.5l1 65.3s-25.8 52.4-21.2 74.5c0 0 11 9.2 19.3-2.8s28.5-83.7 29.4-88.3 11-81 7-82.4z"/><path d="M727.4 131l-10 2.7-6.7 19.4-13.8 49.7-26.7 82 18.4 8.3 29.4-59.8 9.2-102h0zm48.3-65.7c-15.8-5.7-21.2-9.2-38.6 0l-6.4-25.8H782l-6.4 25.8z"/><circle vector-effect="non-scaling-stroke" cx="753.6" cy="23.9" r="19.3"/><path d="M730.6 19.3C730.6 9 738.7.5 749 0h-1c-10.7 0-19.3 8.6-19.3 19.3s8.6 19.3 19.3 19.3c.3 0 .6 0 1 0-10.3-.5-18.4-9-18.4-19.3h0z"/></g><path fill="#29c152" d="M715.6 287h71.8v30.5h-71.8z"/><g opacity=".1"><path d="M715.6 287h71.8v30.5h-71.8z"/></g><g opacity=".2"><circle vector-effect="non-scaling-stroke" cx="751.5" cy="302.4" r="8.4"/></g><g opacity=".2"><path d="M732.4 315.4h-13.7v-26h14.5v1.5h-13v23h12.2v1.5h0z"/></g><g opacity=".2"><path d="M784.3 315.4h-13.7v-1.5h12.2v-23h-13v-1.5h14.5v26h0z"/></g><path fill="#29c152" d="M710.7 312l68.5-21.4 9 29.2-68.5 21.4z"/><g opacity=".2"><circle vector-effect="non-scaling-stroke" cx="748.7" cy="315.3" r="8.4"/></g><g opacity=".2"><path d="M734.4 333.3l-13 4-7.7-24.8 13.8-4.3.5 1.5-12.4 4 6.8 22L734 332l.5 1.5h0z"/></g><g opacity=".2"><path d="M784 318l-13 4-.5-1.5L782 317l-6.8-22-12.4 4-.5-1.5 13.8-4.3L784 318h0z"/></g><path d="M787.3 268.6L783 279s-11 37.4-21 29 10.8-33.3 10.8-33.3l3.7-9.6 11 3.4z" fill="#ffb9b9"/><path d="M813 115.5l13-2.8a135 135 0 0 1 4.4 16.6c1.8 9.2-1 82-2.8 89.2S792.2 275 792.2 275l-30-6.5 43.4-65.5 7.4-87.4z" fill="#2f2e41"/><g opacity=".2"><path d="M806 162.2l-8 44-30 61 27-64 11-41h0z"/></g></g></svg>