<?xml version="1.0" encoding="UTF-8" standalone="no"?><!-- Generator: Gravit.io --><svg xmlns="http://www.w3.org/2000/svg" xmlns:xlink="http://www.w3.org/1999/xlink" style="isolation:isolate" viewBox="0 0 640 640" width="640pt" height="640pt"><defs><clipPath id="_clipPath_W861YhDLbhMutlx6i0YbyA1akngb0ZMq"><rect width="640" height="640"/></clipPath></defs><g clip-path="url(#_clipPath_W861YhDLbhMutlx6i0YbyA1akngb0ZMq)"><path d="M 71 24 L 569 24 C 595.492 24 617 45.508 617 72 L 617 568 C 617 594.492 595.492 616 569 616 L 71 616 C 44.508 616 23 594.492 23 568 L 23 72 C 23 45.508 44.508 24 71 24 Z" style="stroke:none;fill:#FFFFFF;stroke-miterlimit:10;"/><path d="M 75 39 L 565 39 C 584.869 39 601 55.131 601 75 L 601 565 C 601 584.869 584.869 601 565 601 L 75 601 C 55.131 601 39 584.869 39 565 L 39 75 C 39 55.131 55.131 39 75 39 Z" style="stroke:none;fill:#181063;stroke-miterlimit:10;"/><circle vector-effect="non-scaling-stroke" cx="185.99999999999994" cy="255" r="80" fill="rgb(255,255,255)"/><path d=" M 534 255 C 534 299.153 498.153 335 454 335 C 409.847 335 374 299.153 374 255" fill="rgb(255,255,255)"/></g></svg>