<?xml version="1.0" encoding="UTF-8" standalone="no"?><!-- Generator: Gravit.io --><svg xmlns="http://www.w3.org/2000/svg" xmlns:xlink="http://www.w3.org/1999/xlink" style="isolation:isolate" viewBox="0 0 640 640" width="640pt" height="640pt"><defs><clipPath id="_clipPath_5jDFvjeEHLUXN8ZyLdZ1J0iLDffzAeZx"><rect width="640" height="640"/></clipPath></defs><g clip-path="url(#_clipPath_5jDFvjeEHLUXN8ZyLdZ1J0iLDffzAeZx)"><path d="M 71 24 L 569 24 C 595.492 24 617 45.508 617 72 L 617 568 C 617 594.492 595.492 616 569 616 L 71 616 C 44.508 616 23 594.492 23 568 L 23 72 C 23 45.508 44.508 24 71 24 Z" style="stroke:none;fill:#FFFFFF;stroke-miterlimit:10;"/><path d="M 75 39 L 565 39 C 584.869 39 601 55.131 601 75 L 601 565 C 601 584.869 584.869 601 565 601 L 75 601 C 55.131 601 39 584.869 39 565 L 39 75 C 39 55.131 55.131 39 75 39 Z" style="stroke:none;fill:#181063;stroke-miterlimit:10;"/><path d=" M 510.553 311.584 C 479.332 342.805 428.637 342.805 397.416 311.584 C 366.195 280.363 366.195 229.668 397.416 198.447" fill="rgb(255,255,255)"/><path d=" M 242.584 198.447 C 273.805 229.668 273.805 280.363 242.584 311.584 C 211.363 342.805 160.668 342.805 129.447 311.584" fill="rgb(255,255,255)"/></g></svg>