<svg id="Layer_1" data-name="Layer 1" xmlns="http://www.w3.org/2000/svg" viewBox="0 0 400 300" width="406" height="306" class="illustration styles_illustrationTablet__1DWOa"><title>_</title><path d="M92.4,59.2C56.59,72.36,35.72,86,30.48,126.35c-4.41,34-1.83,101.53,60.24,112.24,120.77,20.84,224,13.7,254.75-39.74C374,149.17,371.2,89.84,307,64.05,258.67,44.64,162.32,33.49,92.4,59.2Z" fill="#e6e6e6" opacity="0.3"></path><path d="M180.42,106.76s6.23-2.33,7.72-3.42c1.9-1.38,7.2-5.94,4.41-7.46-1.24-.68-6.47,2.57-6.47,2.57s.74-3.87-.43-3-3.25,4.63-3.25,4.63l-5.13,2.62Z" fill="#f4a28c"></path><path d="M172,76.36A24,24,0,0,0,175.36,73c.49-.93.8-5.5,1.5-6.54s2.47-1.3,2.82-.59a6.59,6.59,0,0,1,.43,2.05s.77-1.35.93-.83a13.42,13.42,0,0,1-1.57,6.8c-1.56,3-4.51,7.28-4.51,7.28Z" fill="#f4a28c"></path><path d="M104.25,92s50.61-.49,68.84-17.61l3.9,4.29s-6.16,14.4-29.23,24.33-37.52,9.58-37.52,9.58Z" fill="#10569a"></path><path d="M104.25,92s50.61-.49,68.84-17.61l3.9,4.29s-6.16,14.4-29.23,24.33-37.52,9.58-37.52,9.58Z" opacity="0.08"></path><path d="M84.15,220s-1.15,2.78.59,4.66.56,4.18-1.58,3.11-4.53-7.24-4.53-7.24l3.31-3.32Z" fill="#10569a"></path><path d="M173,177.73s2.94.63,4.48-1.43,4-1.3,3.35,1-6.31,5.76-6.31,5.76l-3.86-2.65Z" fill="#10569a"></path><path d="M104,69.18a32,32,0,0,1,.25,8.58,2.6,2.6,0,0,1-3,2.11,5.73,5.73,0,0,1-4.81-4l-1.89-4.37a4.63,4.63,0,0,1,1.65-5.1C99,64.13,103.68,66.05,104,69.18Z" fill="#f4a28c"></path><polygon points="94.92 72.34 93.58 89.22 102.93 89.29 100.15 76.98 94.92 72.34" fill="#f4a28c"></polygon><path d="M102.78,69.5a20.72,20.72,0,0,1-4.78,0,4.29,4.29,0,0,1,.37,4.71,3.5,3.5,0,0,1-4.11,1.72l-.44-6.62a5.27,5.27,0,0,1,2.29-4.88,20.23,20.23,0,0,1,2.13-1.26c1.84-.91,4.73.14,6.34-1.28a1.25,1.25,0,0,1,2,.66c.46,2,.35,5.19-2.29,6.5A4.86,4.86,0,0,1,102.78,69.5Z" fill="#24285b"></path><path d="M98.91,74s-.19-2-1.67-1.71-1.22,3.13.83,3.24Z" fill="#f4a28c"></path><path d="M104.41,72.42,106,74.29a.83.83,0,0,1-.42,1.34l-1.94.52Z" fill="#f4a28c"></path><path d="M100.88,79.65a6.1,6.1,0,0,1-3.16-1.56s.38,3.08,4,5.86Z" fill="#ce8172" opacity="0.31"></path><path d="M93.58,89.21l6.36.06a39.93,39.93,0,0,0,4.64-.22c4.94-.55,19.71-.86,27.15,13.38,9,17.27-8.48,50.39-8.48,50.39l-32.06,2.6S48.23,94.43,93.58,89.21Z" fill="#10569a"></path><path d="M91.19,155.42s2.08,20.2,17.19,18.08,35.94-21.18,61.8,7.67l4.24-4.8s-13.47-29.66-49-28Z" fill="#24285b"></path><path d="M92.91,154.76s20,30.22-13,59.65L84.15,220s35.72-17.05,31.51-62.94Z" fill="#24285b"></path><path d="M98.93,105.75s2.56,7.42-3.45,19.93S108,152,108,152l-16.8,3.46s-13.48-20.15-16.91-35,23.86-14.36,23.86-14.36Z" opacity="0.08"></path><path d="M85.53,97c15.46-2.33,49.09,18.42,94.47,3.7l1.33,7.13S142.7,127.1,95.48,125.68C70.28,124.91,70.06,99.33,85.53,97Z" fill="#10569a"></path><path d="M85.53,97c15.46-2.33,49.09,18.42,94.47,3.7l1.33,7.13S142.7,127.1,95.48,125.68C70.28,124.91,70.06,99.33,85.53,97Z" fill="#fff" opacity="0.46"></path><circle cx="257.95" cy="109.7" r="37.96" opacity="0.08"></circle><circle cx="257.95" cy="109.7" r="37.96" fill="#ffd200"></circle><g opacity="0.08"><circle cx="256.75" cy="101.8" r="37.96"></circle></g><circle cx="257.95" cy="109.7" r="37.96" opacity="0.08"></circle><circle cx="256.75" cy="101.8" r="37.96" fill="#ffd200"></circle><path d="M250.81,85.85c1-.45,1.43-.24,1.87.73l.95,2.08c4.16-1.23,7.3-.3,10.51,2.34,1,.78,1,1.43.1,2.47l-1.65,1.88c-.76.91-1.33.91-2.35.15-2.15-1.69-4-2.11-6.92-.79-3.61,1.65-4.78,3.47-3.68,5.89.72,1.57,2.61,1.89,4.23,1.5a24.9,24.9,0,0,0,3.27-.93,22.09,22.09,0,0,1,6.15-1.47,8.59,8.59,0,0,1,3.13.21,9,9,0,0,1,5,4.92c2.12,4.63.45,9.19-4.65,12.49l1,2.21c.45,1,.31,1.46-.67,1.9l-2.33,1.07c-1,.44-1.48.26-1.92-.72l-1-2.16c-4.5,1.39-8.33.52-11.48-2.66a1.52,1.52,0,0,1,.08-2.4l1.74-1.72c.88-.86,1.47-.82,2.42,0q3,2.92,7.36.94c3.91-1.78,5.3-3.9,4.15-6.41a2.86,2.86,0,0,0-3-1.8,15.89,15.89,0,0,0-4.57,1.12,20.6,20.6,0,0,1-6.25,1.36,8.65,8.65,0,0,1-3.1-.27,8.52,8.52,0,0,1-4.93-4.73c-2.1-4.59-.61-9,4.5-12.17l-1-2.08c-.45-1-.26-1.47.71-1.91Z" fill="#fff"></path><polygon points="67.6 236.51 221.34 158.35 221.34 187.36 322.71 133.99 324.27 167.05 183.22 239.27 186.93 202.64 72.21 255.81 67.6 236.51" fill="#e6e6e6"></polygon><polygon points="304.42 201.17 304.42 124.61 370.92 114.19 304.42 201.17" fill="#e6e6e6"></polygon><path d="M212.58,130.55a13.78,13.78,0,0,1-.92-12.47,1.06,1.06,0,0,0-.74-1.3,1.08,1.08,0,0,0-1.3.74,15.78,15.78,0,0,0,1.14,14.1A1.06,1.06,0,0,0,212.58,130.55Z" fill="#e6e6e6"></path><path d="M305.25,82.78a1.06,1.06,0,0,0-1.82,1.07,25.9,25.9,0,0,1,3.18,17.54c-.23,1.32,1.8,1.9,2,.56A28.27,28.27,0,0,0,305.25,82.78Z" fill="#e6e6e6"></path><path d="M300.45,75a1.14,1.14,0,0,0-.49-.63l-2.95-2a1.07,1.07,0,0,0-.82-.11,1.12,1.12,0,0,0-.63.48,1.07,1.07,0,0,0-.1.82,1.16,1.16,0,0,0,.48.63l3,2a1.09,1.09,0,0,0,.81.11,1.07,1.07,0,0,0,.63-.49A1,1,0,0,0,300.45,75Z" fill="#e6e6e6"></path></svg>