<svg xmlns="http://www.w3.org/2000/svg" xmlns:xlink="http://www.w3.org/1999/xlink" width="1028" height="599" xmlns:v="https://vecta.io/nano"><style><![CDATA[.B{fill:#2f2e41}.C{opacity:.1}.D{fill:#f2f2f2}.E{fill:#ffb9b9}.F{fill:#3f3d56}.G{fill:#a0616a}.H{fill:#d0cde1}]]></style><circle cx="332" cy="292" r="292" class="D"/><path d="M1028 518c0 .7-.1 1.4-.2 2-7 43.8-234.5 79-513.8 79S7.3 564 .2 520l-.2-2c0-.2 0-.4 0-.6 0-.1 0-.2 0-.3 0 0 0-.1 0-.1 0-.5.1-1 .2-1.3 3.3-18 43.3-34.3 108.7-47.5 53.5-10.8 124-19.4 205-24.8A3034 3034 0 0 1 514 437l163.4 4.2h0q16 1 31.7 2l185.6 20.5 79.2 18.2h0c32.5 10.2 51.6 21.7 53.8 33.8l.2 1.3c0 0 0 .1 0 .1 0 .1 0 .2 0 .3v.6z" class="F"/><ellipse cx="501" cy="572" rx="165" ry="24" class="C"/><path d="M974 481.8l-19.4 4.6c-29.4 5.8-69.4 9.3-113.5 9.3-49.3 0-93.5-4.4-123.4-11.4-24.8-5.8-40-13.4-40-21.7 0-7.3 11.6-14 31.4-19.5l185.6 20.5 79.2 18.2zm-442-11c0 15-95 27.4-212 27.4s-212-12-212-27.4c0-1 .4-2 1-2.6 53.5-10.8 124-19.4 205-24.8q3 0 6 0c117 0 212 12.3 212 27.4z" class="C"/><path d="M416.5 335h41.7v134.6h-41.7zm-137-63h41.7v197.7h-41.7zm-135.8 0h41.7v197.7h-41.7zm68 0h41.7v134.6h-41.7zm135.8 0H389v39.3h-41.7z" fill="#0f0955"/><path fill="#8a8b8c" d="M347.4 335H389v134.6h-41.7z"/><path d="M416.5 272H526v39.3H416.5zM815 260q42.7 0 72.8 29.8a98 98 0 0 1 21.8 32.8c10 25.2 10 53.2.1 78.4a95 95 0 0 1-21.7 32.3c-9.7 9.7-21.2 17.3-33.8 22.6a101 101 0 0 1-39 7.8 99 99 0 0 1-38.7-7.7 105 105 0 0 1-55.4-55.4 102 102 0 0 1 .1-77.6 100 100 0 0 1 22.5-33.4q29-29.6 71.5-29.7zm.4 18.4q-35 0-58.8 24.4c-7.8 8-14 17.2-18.5 27.4a81 81 0 0 0 0 63.3 86 86 0 0 0 45.6 45.3c20.3 8.4 43 8.4 63.4-.1a88 88 0 0 0 27.7-18.4q23.8-23.3 23.8-58.4a81 81 0 0 0-6.2-32c-4-10-10.3-19.2-18-27q-24.6-24.6-59-24.6zM814 345l-13.6 7a14 14 0 0 0-5.4-6.4c-1.8-1-3.8-1.7-6-1.8q-13.6 0-13.6 18 0 8.2 3.5 13 3.5 5 10.2 5 9 0 12.6-8.7l12.6 6.4a30 30 0 0 1-26.7 16q-13.6 0-22-8.4-8.4-8.4-8.4-23.3 0-14.6 8.5-23 8.5-8.5 21.4-8.6 19 0 27 14.7zm58.8 0l-13.5 7a14 14 0 0 0-5.4-6.4c-1.8-1-4-1.8-6-1.8q-13.6 0-13.6 18 0 8.2 3.5 13 3.5 5 10.2 5 9 0 12.5-8.7l12.7 6.4c-2.7 4.8-6.5 9-11.3 11.7-4.7 2.8-10 4.3-15.5 4.3q-13.8 0-22-8.4-8.3-8.4-8.3-23.3 0-14.6 8.5-23 8.5-8.5 21.4-8.6 19 0 27 14.7z" fill="#0f0955"/><path d="M753.4 510.3c0 48.7-68 33.7-151 33.7s-150 15-150-33.7 68-59.3 151-59.3 150 10.6 150 59.3z" class="C"/><path d="M753.4 498.3c0 48.7-68 33.7-151 33.7s-150 15-150-33.7 68-59.3 151-59.3 150 10.6 150 59.3z" class="F"/><path d="M739.5 410.8L743 425c0 .2 0 .3 0 .5l-15.6 48.7c-.1.4-.5.7-1 .6s-.7-.4-.8-.8l-2.2-19c0-.1 0-.3 0-.4l14.3-44c.1-.4.5-.6 1-.6s.7.3.8.7z" class="B"/><path d="M738.3 412l3.2 12.2-13.7 44.4-3.2-13.7 13.7-42.8z" class="D"/><path d="M669 478c.5 1.6 55-.5 55.5-1 .5-.7 1-1.4 1.2-2l1-2-2-17-54-2s-1.3 14.5-1.6 21c-.1 1-.1 2 0 3.2z" class="B"/><path d="M717.7 458l1 14.8H695V458h22.7zm-30.7 4.8h.1l-.7 6.4h-13.2V463H687zM669 478c.5 1.6 55-.5 55.5-1l1.2-2H669a17 17 0 0 0 0 3.2z" class="C"/><use xlink:href="#B" class="B"/><use xlink:href="#B" class="C"/><use xlink:href="#C" class="G"/><use xlink:href="#C" class="C"/><g class="G"><circle cx="605.7" cy="324.3" r="23.8"/><path d="M604 345.5s-8 13.7-9.5 21-23.8-14.8-23.8-14.8l-3-7.7s21-9.8 19.3-17.7 17 19 17 19z"/></g><path d="M597.7 355.5l11.6 22.7s-2.6 11-7 12.2-22.2-13.7-22.2-13.7z" class="H"/><path d="M608.3 386.7l21.7 28.5 51.8 38.6s37.5 8 29 13.7-32.8-5.3-32.8-5.3-52.3-28-63.4-39.6-31.7-31.2-31.7-31.2z" class="G"/><path d="M579.2 431l6.3 10 37.8-12c8.3-2.7 17.4-1.6 24.8 3 6.6 4.2 10.8 10.8 1.3 20.5-19 19.5-31.7 9-31.7 9s-64 30-74.5 15.3-11-22.2-11-22.2 40.7-25.4 47-23.8z" class="B"/><path d="M658.5 466s17 11-3.2 16.4-35-2-35-2-17.4 0-17.4-9 5.8-10 5.8-10l18 2.6s21.7-5.8 31.7 2z" class="H"/><path d="M625.2 318.4c1.6.8 3.2 1.4 5 1.8 1.8.3 3.6-.5 4.6-2 .4-1 .6-1.8.5-2.8.1-3-.1-6-2-8.3-1.2-1.4-3-2.3-4-3.7-.8-1-1.5-2.2-2-3.4-2.4-4.4-5.8-8.7-10.7-10-2-.4-4-.6-6.2-.5l-12.2.2c-2-.1-4 .1-6 .6-4 1.2-6.8 4.5-9.4 7.7a48 48 0 0 0-5.4 7.4c-2 4-3.2 8.3-3 12.8a12 12 0 0 0 .4 3.4c.4 1 .8 2 1.3 3 2.3 4.5 3.6 10 1 14.4 4.5-1.8 9-4.2 12-8 1.3-1.7 2.4-3.7 4-5s4.6-1.4 5.8.5c.4.7.6 1.6.6 2.4 0 1.4.2 2.8.7 4 .5 1.3 2 2 3.3 2 2.3-.6 2-4.2 4-5.8 1.3-1.2 3.4-1 5.2-1.5 2-.8 3.6-2.3 4.4-4.3.7-1.5.6-5.3 2-6 1.6-1 5 .6 6.5 1.2z" class="B"/><g class="H"><path d="M566 341.6c1-.3 2.2-.3 3.3 0 3.4 1 11 3.3 12.6 7 2 4.8 9.5 12.2 9.5 12.2s10 10 8 17-10 14.8-10 14.8 2 32.8-8.5 41.2-14.8 2.6-14.8 10.6-32.8 32.8-39 17.4l2-38.6c-1-10 .5-71.6 37-81.5z"/><path d="M583 355s32.2 23.8 26.4 33.8c0 0-19.5 9.5-23.8 9s-20.6-19-24.8-20.6-6.3-30 22.2-22.2z"/></g><path d="M493.8 376.3c-5 1.7-9.6 5.7-10.6 10.8-.5 2.4-.2 5-.6 7.3-1 5.6-5.3 10-9.4 14s-8.3 8.6-8.6 14.3c-.3 6.2 4.2 12 3.4 18.2-1 7.2-8.5 11.8-10.4 18.8-1.3 4.7.3 9.7 2.8 13.8 4.8 8 13 13.2 21.8 16s18 3.5 27.3 3.6c11.2.1 23.4-.8 31.8-8.2 4.8-4.3 7.8-10.2 8.5-16.6.8-8.6-2.8-17.4-.3-25.7 1.6-5.2 5.4-10 5-15.3-.6-5.3-5.2-9-8.3-13.3a54 54 0 0 1-6.5-13.3l-6-15.8c-1.2-3-2.5-6.4-5-8.4-5-3.8-12.8-3-18.6-2.3-5.3.7-11 .4-16 2z" class="B"/><use xlink:href="#D" class="E"/><use xlink:href="#D" class="C"/><circle cx="508.6" cy="414.7" r="21.3" class="E"/><path d="M506.3 459.6s-25.6-2-26-19.5c0 0-9-1-11.8 1.6s-11.3 4.7-11.3 11.3 14.6 26.6 14.6 26.6 8 26.6 4.7 31.2-4 16.6-4 16.6 33.2-2.7 38.5 0 26.6 2.7 28 0-1.3-36-1.3-36 6-8 4.7-17.3l16-18.6s-6-18-15.3-18c0 0-12.6-3.3-13-1.7s6.3 20.3-23.6 23.6z" fill="#ff6584"/><path d="M446.5 518s6 9.3 21.3 11.3 18-3.3 16.6-4.7-17.3-7.3-17.3-7.3l-9.3-7.3zm109-8l-17.3 10s-22.6-1.3-14 5.3 24.6 4 24.6 4L564 522z" class="E"/><use xlink:href="#E" class="B"/><use xlink:href="#E" class="C"/><use xlink:href="#F" class="B"/><use xlink:href="#F" class="C"/><path d="M534.4 533l7 16.2 43.2-15.3 3.3-8.6-11.3-2-22.7 4-9.8 2.7-9.8 3z" class="B"/><path d="M534.4 533l7 16.2 43.2-15.3 3.3-8.6-11.3-2-22.7 4-9.8 2.7-9.8 3z" class="C"/><path d="M442.5 552.6s12.6 16 27.2 20 22.6-1.3 22.6-1.3l-4.7-18.6-2-12-8.6-6-17.3-8-20.6-6.6s-8.6-1.3-8.6 0a368 368 0 0 0 8 21.3z" class="B"/><path d="M457.8 561.2s2.7 19.3 6 20.6 13.3-1.3 16-2.7 11.7-7.5 11.7-7.5l-33.6-10.5z" class="D"/><path d="M518.3 563.2l12.6 2-1.3 15.3-17.6-4.3 6.3-13z" class="E"/><path d="M526.2 567.5s-6 7 .1 11l4 3.3s13.3 2.7 14.6 4 6.6-2 6.6-2 .7-20 0-21.3-8.6-2.7-9.3-1.3-8.6 3.3-13.3 2z" class="D"/><path d="M473 532s-46.5-27.2-53.8-17.3-15.3 24 6 34.5 87.7 32.6 87.7 32.6 10-15.3 10-19.3l-41.2-17.3c-6-1.3-30-16.6-33.2-18s-8-5.3-8-5.3z" class="B"/><path d="M459.8 449.6l-2.7 2s-6 15.3-6.6 24-8.6 35.2-8 38.5 1.3 6 5.3 9.3c0 0 5.3-12 14.6-10l11.3-41.2zm93 0l5.3 6 3.3 10a457 457 0 0 0 7.3 32.6c.7 1.4 3.3 18 0 22s-9.3 6.6-9.3 6.6 4-14-8.6-14.6l1.3-5.3-12-40z" fill="#ff6584"/><path d="M461 495.4v35c0 4.6 3.7 8.3 8.3 8.4l73.2 1c4.6.1 8.4-3.5 8.5-8l1.3-35c.1-2.3-.7-4.5-2.3-6s-3.7-2.6-6-2.6l-74.5-1c-2.3 0-4.4.8-6 2.4s-2.5 3.7-2.5 6z" class="F"/><ellipse cx="509.9" cy="401.7" rx="22.9" ry="12.3" class="B"/><circle cx="506" cy="513.7" r="5.3" class="D"/><defs ><path id="B" d="M585 422.6h14.8l36.5-14.3s26-10.6 23.8 9.5l-5.8 47s-11.6-5.3-18-3.7-2-32.2-2-32.2-51.8 24.8-56.5 21.7-5.8-25.4-5.8-25.4z"/><path id="C" d="M608.4 376.3l18 25.7 41.7 35s38.6 9 33.3 15.3-37.5-6.3-37.5-6.3L614 408.3c-1.6-2.6-19-27.5-19-27.5z"/><path id="D" d="M495.7 422.4s2.7 8.6-17.3 18.6 2 20.6 2 20.6l23.3 5.3s24-3.3 26.6-7.3 7.3-17.3 6-19.3a31 31 0 0 0-3.3-4s-16-2.7-15.3-10-22-4-22-4z"/><path id="E" d="M469 527.3s-16 39.2 3.3 45.2 72.4 4.7 84.4-3.3 15.3-18.6 13.3-22a45 45 0 0 0-24.6-13.3l-76.4-6.6z"/><path id="F" d="M544.4 529.8s56.3-20.4 55.6 4.2-36 31.2-36 31.2l-10.6 1.3-58.5 2s2-10.6-2.7-12l16-4.7c.7-.7 38.5-14 41.2-14.6s10.6-6 16.6-5.3c0 0 6.6-5.3 14-4l-20.6 1.3z"/></defs></svg>