<svg xmlns="http://www.w3.org/2000/svg" width="784.4" height="733.6" xmlns:v="https://vecta.io/nano"><path d="M624.7 521.2s97 5 74.4 35.6-82-18-82-18z" fill="#ffb8b8"/><path d="M446 230.3l19.8 5a1250 1250 0 0 0 19.8 65.8c8.2 31.3 24.7 125 24.7 125l127.6 89.4-15.2 34-170-67-38-148.7z" fill="#575a89"/><path opacity=".2" d="M464.5 291.6L457 445.8l15.4 45.8-45-33 37-167z"/><path d="M491.2 565.2s21.4 57.6 24.7 97l6.6 70.8H422l-19.8-29.6V733h-117s-33-107-19.8-120.2 138.3-69 138.3-69z" fill="#2f2e41"/><path fill="#3f3d56" d="M101.5 731.6h581v2h-581z"/><g fill="#ffb8b8"><circle cx="365.3" cy="105.2" r="62.5"/><path d="M317.5 131.5l-5 72.4 62.5 84 31.3-79s-28-18-11.5-56z"/></g><path d="M500.2 579.2c0 14.8-41 38-41 38v8.2l-16.5 8.2-36.2-72.4-10 79s-72.4 11.5-95.5 0c-23-11.5-34.6-6.6-67.5-18s13.2-166.3 13.2-166.3l-33-238.7 72-36 3.8-2 10-1.8 15.2-2.8 50.7 34.3 4 21.4 2.5 13.2 13.2-14.8 10-32.7 70.7 39.3-19.7 158 54.3 186z" fill="#575a89"/><path d="M258.3 630.2s75.7 61 39.5 72.4-56-62.5-56-62.5z" fill="#ffb8b8"/><path d="M230.3 220.4l-16.5-3.3s-24.7 13.2-26.3 39.5-23 210.7-23 210.7l69 186 56-21.4-54.3-174.5L276.4 306z" fill="#575a89"/><g fill="#2f2e41"><circle cx="372.5" cy="264.6" r="6"/><circle cx="372.5" cy="303.6" r="6"/><circle cx="406.5" cy="560.6" r="6"/><path d="M312.5 41L301 36.4S325 9.8 358.7 12l-9.5-10.4s23-9.3 44 15c11 12.8 23.8 27.8 31.8 44.7h12.4L432.4 73l18 11.4-18.6-2c1 6.2 1.3 12.6.5 19-.8 6.3-4 12-9 16h0l-14.3-34.3v11.6S397.6 84 397.6 77l-6.3 8h-42l6.3-10.4-24.2 3.5 9.5-12.7-37.4 52.6s-21.4-59.5 9-77z"/></g><circle cx="684.4" cy="383.5" r="100" fill="#3f3d56"/><circle cx="684.4" cy="383.5" r="86" opacity=".1"/><path d="M680.3 434.3v-12.5a29 29 0 0 1-16.7-5.5l2.6-8.3c4.5 3.4 10 5.3 15.7 5.3 7.7 0 13-5 13-12 0-6.8-4.3-11-12.3-14.7-11-5-18-10.7-18-21.4 0-10.3 6.4-18 16.5-20v-12.5h6.8v12c5 .1 10 1.6 14.2 4.3l-2.7 8.2a24 24 0 0 0-13.7-4.2c-8.4 0-11.6 5.7-11.6 10.7 0 6.4 4 9.7 13.5 14 11.2 5.2 17 11.6 17 22.7 0 9.8-6 19-17.2 21v13z" fill="#3729c1"/><path opacity=".2" d="M250 505l40 125-32-130-8 5z"/><path d="M46 260.8H20.7c-2.3 0-4.2-2-4.2-4.2V220c0-2.3 2-4.2 4.2-4.2H46c2.3 0 4.2 2 4.2 4.2v36.5c0 2.3-2 4.2-4.2 4.2zM20.7 218c-1.2 0-2.2 1-2.2 2.2v36.5c0 1.2 1 2.2 2.2 2.2H46c1.2 0 2.2-1 2.2-2.2V220c0-1.2-1-2.2-2.2-2.2zm71.8 42.8h-23c-3 0-5.4-2.4-5.4-5.4v-73.7c0-3 2.4-5.4 5.4-5.4h23c3 0 5.4 2.4 5.4 5.4v73.7c0 3-2.4 5.4-5.4 5.4zm-23-82.5c-2 0-3.4 1.5-3.4 3.4v73.7c0 2 1.5 3.4 3.4 3.4h23c2 0 3.4-1.5 3.4-3.4v-73.7c0-2-1.5-3.4-3.4-3.4zm69.7 82.5H118c-3.5 0-6.3-2.8-6.3-6.3V146c0-3.5 2.8-6.3 6.3-6.3h21.2c3.5 0 6.3 2.8 6.3 6.3v108.4c0 3.5-2.8 6.3-6.3 6.3zm-21.2-119c-2.4 0-4.3 2-4.3 4.3v108.4c0 2.4 2 4.3 4.3 4.3h21.2c2.4 0 4.3-2 4.3-4.3V146c0-2.4-2-4.3-4.3-4.3z" fill="#3f3d56"/><path d="M24 223h19v31H24zm47.5-39.4h19V254h-19zM119 147h19v107h-19z" fill="#3729c1"/><path d="M723 145.8H590a1 1 0 0 1-1-1V9.8a1 1 0 1 1 2 0v134h132a1 1 0 1 1 0 2zm-564 129H1a1 1 0 0 1-1-1v-157a1 1 0 1 1 2 0v156h157a1 1 0 1 1 0 2zm477-141.5h-25.4c-2.3 0-4.2-2-4.2-4.2V92.6c0-2.3 2-4.2 4.2-4.2H636c2.3 0 4.2 2 4.2 4.2V129c0 2.3-2 4.2-4.2 4.2zm-25.4-42.8c-1.2 0-2.2 1-2.2 2.2V129c0 1.2 1 2.2 2.2 2.2H636c1.2 0 2.2-1 2.2-2.2V92.6c0-1.2-1-2.2-2.2-2.2zm77.4 42.8h-23.4c-3 0-5.2-2.3-5.2-5.2V62c0-3 2.3-5.2 5.2-5.2H688c3 0 5.2 2.3 5.2 5.2v66c0 3-2.3 5.2-5.2 5.2zm-23.4-74.5c-1.8 0-3.2 1.4-3.2 3.2v66c0 1.8 1.4 3.2 3.2 3.2H688c1.8 0 3.2-1.4 3.2-3.2V62c0-1.8-1.4-3.2-3.2-3.2z" fill="#3f3d56"/><g fill="#3729c1"><path d="M613.2 95.7h19v31h-19zM666.7 65h19v60h-19z"/><circle cx="623" cy="68.8" r="9"/><circle cx="676" cy="34.8" r="9"/></g></svg>