<svg xmlns="http://www.w3.org/2000/svg" xmlns:xlink="http://www.w3.org/1999/xlink" viewBox="0 0 159.8 193.8" xmlns:v="https://vecta.io/nano"><style><![CDATA[.N{fill:#f9b449}.O{font-family:MyriadPro-Regular,Myriad             Pro}.P{stroke-linecap:round}]]></style><defs><linearGradient id="A" x1="1047.3" y1="585.4" x2="943.6" y2="510.1" gradientUnits="userSpaceOnUse"><stop offset="0" stop-color="#494cf9"/><stop offset="1" stop-color="#49f0f9"/></linearGradient><linearGradient id="B" x1="989.3" y1="508.5" x2="1027.1" y2="508.5" gradientUnits="userSpaceOnUse"><stop offset="0" stop-color="#5d24f9"/><stop offset="1" stop-color="#8937f9"/></linearGradient><linearGradient id="C" x1="44.5" y1="98.9" x2="87.1" y2="35.5" xlink:href="#A"/><linearGradient id="D" x1="54.7" y1="55.6" x2="92.3" y2="55.6" xlink:href="#B"/><linearGradient id="E" x1="80.5" y1="43.3" x2="108.5" y2="1.6" xlink:href="#A"/><linearGradient id="F" x1="87.1" y1="14.8" x2="112.2" y2="14.8" xlink:href="#B"/><linearGradient id="G" x1="33.3" y1="44.9" x2="53.4" y2="15.1" xlink:href="#A"/><linearGradient id="H" x1="37.9" y1="24.5" x2="56.1" y2="24.5" xlink:href="#B"/></defs><path d="M935 542l15-1s3-18 15-24v-20l17 9c3 1 30-12 61 7 26 16 20.3 44 17.8 52.5-.4 1.5-1.2 3-2 4.3L1050 581c-3 3 2 19.7-2 21-3 1-9-12-12-11-16 5.4-33.5 6-50 1.6-1-.3-2.3.2-2.8 1.3-1.3 2.7-4 7.8-6 9.2-3 2-3-11-6-13s-36-31-36-31z" transform="translate(-935 -409.4)" fill="url(#A)"/><path d="M125.5 135.7s12.3-8.7 18.8-2.2 5.5 13.2.3 14.8c-4 1.2-10-5.4-7.4-9.6s7.3-6.5 12.6-3 7.7 10.7 8 14.7" fill="none" stroke="#0507a5" stroke-width="4" stroke-miterlimit="10" class="P"/><circle cx="32" cy="134" r="5.6" fill="#f7b14a"/><path d="M989.8 509.4s22.4-6 37 .6" transform="translate(-935 -409.4)" fill="none" stroke-linejoin="round" stroke="url(#B)" class="P"/><circle cx="73.7" cy="55.5" r="22.4" fill="url(#C)"/><circle cx="73.5" cy="55.6" r="18.3" fill="none" stroke="url(#D)"/><text transform="translate(66.3 64)" font-size="26.7" class="N O">$</text><circle cx="99.7" cy="14.7" r="14.7" fill="url(#E)"/><circle cx="99.6" cy="14.8" r="12.1" fill="none" stroke="url(#F)"/><text transform="translate(94.8 20.3)" font-size="17.6" class="N O">$</text><circle cx="47.1" cy="24.5" r="10.5" fill="url(#G)"/><circle cx="47" cy="24.5" r="8.6" fill="none" stroke="url(#H)"/><text transform="translate(43.6 28.5)" font-size="12.6" class="N O">$</text></svg>