<svg xmlns="http://www.w3.org/2000/svg" width="819.1" height="584" xmlns:v="https://vecta.io/nano"><path d="M748 525.4c7.2 12.7 1 55.6 1 55.6s-40-17-47-29.6c-7.2-12.7-2.7-28.8 10-36s28.8-2.7 36 10z" fill="#f1f1f1"/><path d="M749.6 581h-.8c-8.2-38.8-36.7-65-37-65.3l.6-.6c.3.3 29 26.7 37.2 65.8z" fill="#fff"/><path d="M813.2 539.8c-9.7 17.7-64.7 41.6-64.7 41.6s-9-59.3.7-77c6.3-11.4 18.2-18.6 31.3-19s25.3 6.5 32 17.7 7 25 .7 36.5z" fill="#f1f1f1"/><path d="M749 582l-.8-1a189 189 0 0 0 50.2-91l1.2.2c-.1.5-10.5 53.6-50.5 91.6z" fill="#fff"/><path d="M192.6 406a75 75 0 0 1-18.6-2.4l-1.2-.3-1-.6c-40.2-20.2-74.2-46.8-101-79.2a300 300 0 0 1-50.9-90.5A348 348 0 0 1 .1 110.3v-2C.1 88 11.4 70.2 28.8 63L172 4c16.5-8.3 34-1.4 37-.2l142.5 60c25 12 31.6 33.2 31.6 44 0 48.6-8.4 94-25 135-13.4 33.2-32.4 63.8-56.2 90.5-45.8 51.6-91.7 70-92 70a50 50 0 0 1-17 2.7zm-10.8-26.7a40 40 0 0 0 19.1.1c7.6-2.8 46-22.7 81.8-63 49.6-55.8 74.7-126 74.7-208.4-.1-1.7-1.3-13.6-17-21L199 27.4l-.3-.1c-2.4-1-10.2-3.2-15.6-.4l-1 .5-143.6 59c-9.6 4-13 14-13 21.8v2.5c-1 56.4 12 195.3 156.2 268.4z" fill="#3f3d56"/><path d="M177.3 15.6l-143.6 59c-14 5.8-21 19.7-21 33.6s-10.4 195.3 164.5 283a54 54 0 0 0 27.9 0c12-4.4 165-78.5 165-283.6 0 0 0-21-24.3-32.4L204 15.6s-14.4-6.4-26.6 0z" fill="#0f0955"/><path d="M191.2 57.3v284.3s-131-63-129.7-228.6z" opacity=".1"/><path fill="#fff" d="M193 261.6L151.2 208l24.2-19 19.7 25.4L262 144l22.3 21-91.3 96.4z"/><path d="M818 584H437a1 1 0 1 1 0-2h381a1 1 0 1 1 0 2z" fill="#cacaca"/><path fill="#ffb8b8" d="M547.2 568.2h15.5l7.4-59.7h-22.8v59.7z"/><path d="M543.3 563.2h30.5 0c10.7 0 19.4 8.7 19.4 19.4v.6h-50z" fill="#2f2e41"/><path fill="#ffb8b8" d="M599.2 568.2h15.5l7.4-59.7h-22.8v59.7z"/><g fill="#2f2e41"><path d="M595.3 563.2h30.5 0c10.7 0 19.4 8.7 19.4 19.4v.6h-50zm-23.8-204.4l3.7 189.3-30-2-20.8-120.5-6.6-82.2 53.7 15.3z"/><path d="M623 327l4.2 224-35-1-7.6-133.2-13.2-48.2-53.7-25.2 8.8-60.3 79-1z"/></g><circle cx="562.7" cy="99.6" r="26.8" fill="#ffb8b8"/><path fill="#ccc" d="M585 137.7l4 6.2 11 30.7-8.8 119.4-51.5 1-6.6-137L547 141l38-3.3z"/><g fill="#2f2e41"><path d="M512.3 161.5l-8.8-1s-2.2 1-3.3 8.8S486 245 486 245l17.5 83.3 19.7-26.3-12-46 12-46zm111.7-1h6.6l16.4 88.8-15.3 69-15.3-25.2 4.4-27.4-2.2-24-7.7-14.2 13-66.8z"/><path d="M578.5 99.6l-5-1.2s-3.5-20.8-12-18.4-30.5 5-30.5-5 20.7-18.3 33-17 27.8 5.3 31.7 23.2c6.3 28.7-13 36-13 36l.3-1c1.8-6 .1-12.4-4.4-16.6zm-73.8 60.8l35-14.2 8.2-6 24.7 109L584 136.8l45.5 23.6-15.3 74.5-2.2 28.5 6.6 23s23 16.4 15.3 34-16.4 18.6-16.4 18.6-37.3-35-39.5-43.8l-5.5-24s-18.6 70-40.5 69-22-24-22-24l5.5-24 8.8-25.2-4.3-42z"/></g></svg>