<svg xmlns="http://www.w3.org/2000/svg" xmlns:xlink="http://www.w3.org/1999/xlink" width="841.6" height="589" xmlns:v="https://vecta.io/nano"><style><![CDATA[.B{fill:#2f2e41}.C{fill:#3f3d56}.D{fill:#ffb8b8}.E{fill:#3729c1}]]></style><path d="M743.2 574.2h-14l-6.7-54.3h20.8v54.3z" class="D"/><path d="M746.8 587.8h-45.4v-.6c0-9.8 8-17.7 17.7-17.7h0 27.7z" class="B"/><path d="M805.3 539.6l-9 10.7-45.7-30.2 13.5-15.8 41.3 35.3z" class="D"/><path d="M818 545.7l-29.5 34.5-.4-.4c-7.4-6.3-8.3-17.5-2-25h0l18-21zM643.2 307l-4.4 40.4L816 345l-77.3-126-63-2.3-32.4 90.3z" class="B"/><path opacity=".3" d="M643.2 307l-4.4 40.4L816 345l-77.3-126-63-2.3-32.4 90.3z"/><g class="B"><path d="M678 314l-6.3 37v33l50.4 16.5 2 136.6-.2 19.7 22 1 .2-14 9.3-104L761 364l-9-57.8z"/><path d="M717 346l-45.2 38s-2.7 69 4 77a2187 2187 0 0 0 81 66.8s13.4 12.3 21 12.5S794 525 794 525l-17.4-13.2-58.3-58.7-5.4-7.4 1.8-28 18.5-52zm-48-183l-19.5-1.8-17.7 3h-37.5l-3.2 27.2 34.3 7.7 8.3-4 34.8 13.3.6-45.2z"/></g><path d="M692.4 162.8s41.5-4 51 3.5S773 320.6 773 320.6l-80.5 4.5-14.4-10 4-73.3z" fill="#ccc"/><path d="M705 162l-45.7 1-42.7 192.7 33.7 7.4L705 162zm32.5-1.7l36 11.3-2 79.2 44.5 94.7-52.3 5.5-41.3-102.2 15.2-88.4z" class="B"/><path d="M797 355c2.6-2.3 4-5.5 4-9s-1.7-6.6-4.3-8.7l7.2-25.3-14.3-8.2-9.7 36c-3.3 4.8-2.6 11.4 1.8 15.3s11 4 15.4 0z" class="D"/><path d="M752.7 173.7L774 172s19 20 23.5 35.5a630 630 0 0 1 9.1 64l-2 71-25-17-1.7-61z" class="B"/><circle cx="900.2" cy="279.1" r="30.2" transform="matrix(.48 -.88 .88 .48 44.35 779.63)" class="D"/><path d="M717.7 111c-4-1-8 .1-12 .8s-8.4 1-11.8-1.4c-2.5-1.7-4-4.4-5.5-7-.6-1-1-2-1.2-3-.2-2 1-3.7 2.4-5.2 6-6.7 15-10.4 24-11.6 7.4-1 15-.2 22 2.7 6.8 3 12.7 8.5 15.4 15.5a44 44 0 0 1 2.3 11 33 33 0 0 1 .2 8.4 36 36 0 0 1-1.6 6.1l-4.5 13.4c-.3 1.3-1 2.5-1.8 3.5-1 1-2.3 1.3-3.5.8a11 11 0 0 0 .2-4.5c-.3-1.5-1.5-2.7-3-3-1.6-.2-3 1-4.6 1.6-1.4.4-3 .3-4.3-.5s-2.3-2-2.7-3.4q-.1-.2-.1-.4c-.2-1.5.2-3.2-.4-4.6-.7-1.7-2.5-2.6-4-3.8-2.5-2.3-3.5-6-2.4-9.2.4-1 1.4-1.6 1.2-3-.3-1.7-2.8-3-4.2-3.2z" class="B"/><path d="M381.6 238.7H0V0h381.6z" fill="#fff"/><path d="M381.6 238.7H0V0h381.6zM1.7 237h378V1.7H1.7z" class="C"/><path d="M335 569.4H117.2V330.6H335z" fill="#fff"/><path d="M335 569.4H117.2V330.6H335zm-216-1.7h214.3V332.4H119zm141-21h45.3v1.8H260zm0 5.5h45.3v1.8H260zm0 5.5h45.3v1.8H260z" class="C"/><path d="M226 373.3v19.2c23.3 0 44.2 14 53 35.5s4 46.2-12.5 62.7l13.6 13.6c22-22 28.5-55 16.6-83.6S257 373.3 226 373.3z" fill="#e6e6e6"/><path d="M280.3 504.2l-13.6-13.6c-20.3 20.3-52.6 22.5-75.5 5L179.7 511c30.5 23.2 73.5 20.3 100.6-6.8z" fill="#575a89"/><path d="M168.6 450c0-15.3 6-30 16.8-40.7s25.4-16.8 40.7-16.8v-19.2c-33 0-62.2 21-72.7 52.2s.1 65.6 26.3 85.5l11.6-15.3C177 485 168.6 468 168.6 450z" class="E"/><path d="M657.4 421.3H439.6V182.5h217.8z" fill="#fff"/><path d="M657.4 421.3H439.6V182.5h217.8zm-216-1.7h214.3V184.3H441.3z" class="C"/><path fill="#575a89" d="M471 328.5H510v62.7H471z"/><path fill="#e6e6e6" d="M527.5 285.8h39.2v105.4h-39.2z"/><path d="M584.2 236h39.2v155h-39.2z" class="E"/><path d="M636.5 393h-176v-182h1.7v180.4h174.3v1.7z" class="C"/><circle cx="594" cy="176.9" r="12" class="D"/><path d="M840.6 589h-187a1 1 0 1 1 0-2h187a1 1 0 1 1 0 2z" fill="#ccc"/><path d="M328.6 188.8H53c-.5 0-1-.4-1-1v-132c0-.5.4-1 1-1s1 .4 1 1V187h274.8c.3 0 .6.2.7.4s.2.6 0 1-.4.4-.7.4z" class="C"/><g class="E"><use xlink:href="#B"/><path d="M157.6 179.3h-25c-1.4 0-2.6-1-2.6-2.6v-67.3c0-1.4 1-2.6 2.6-2.6h25c1.4 0 2.6 1 2.6 2.6v67.3c0 1.4-1 2.6-2.6 2.6z"/><use xlink:href="#B" x="91.3"/><path d="M249 179.3h-25c-1.4 0-2.5-1-2.6-2.4V96.4c0-1.4 1.2-2.5 2.6-2.4h25c1.4 0 2.5 1 2.6 2.4V177c0 1.4-1.2 2.5-2.6 2.4zm45.7 0h-25c-1.4 0-2.6-1-2.6-2.6V73.2c0-1.4 1-2.6 2.6-2.6h25c1.4 0 2.6 1 2.6 2.6v103.6c0 1.4-1 2.6-2.6 2.6z"/></g><g class="C"><circle cx="99.4" cy="124.1" r="5.2"/><circle cx="145.1" cy="90.5" r="5.2"/><circle cx="190.8" cy="124.1" r="5.2"/><circle cx="236.5" cy="74.1" r="5.2"/><circle cx="282.2" cy="55.1" r="5.2"/><path d="M191 125.3L145 91l-45.2 34-1-1.4L145 88.8l45.6 34.2L236 73.4l.2-.1L282 55l.6 1.6L237 74.8l-46 50.5z"/></g><defs ><path id="B" d="M112 179.3h-25c-1.4 0-2.6-1-2.6-2.6v-34.6c0-1.4 1-2.6 2.6-2.6h25c1.4 0 2.6 1 2.6 2.6v34.6c0 1.4-1 2.6-2.6 2.6z"/></defs></svg>