<svg xmlns="http://www.w3.org/2000/svg" xmlns:xlink="http://www.w3.org/1999/xlink" width="1090" height="657.9" xmlns:v="https://vecta.io/nano"><path d="M574.2 0h0c-26.4 0-48 23.8-48 53v37.3h11.5l6.6-13.8-1.7 13.8h73.7l6-12.6-1.5 12.6h8.3V61.2c0-33.8-24.7-61.2-55-61.2z" fill="#2f2e41"/><g fill="#fbbebe"><path d="M563 75.5s5.7 18 0 20.4-11.3 60-11.3 60l45.3-11.3 9-45.3s-15.8-25-13.6-36.2zm130.3 238.8l6.8 12.5s40.7 12.5 29.4 32.8S690 337 690 337l-8-18zm-292-52l-10.2 8s-47.5 21.5-30.6 30.6 38.5-19.2 38.5-19.2l13.6-11.3z"/><use xlink:href="#B"/></g><use xlink:href="#B" opacity=".1"/><path d="M472.6 318.8s-95 40.7-69 75.8 83.8 81.5 83.8 81.5l10.2 15.8 15.8-18-26-39.6-34-43 82.6-49.8z" fill="#fbbebe"/><g fill="#2f2e41"><path d="M538.2 574.6L510 586s1 47.5-9 55.5-5.7 19.2 11.3 15.8 18-6.8 18-6.8l8-30.6-2.3 26 5.7-1 3.4-28.3s10.2-31.7-6.8-42zm-45.2-86s21.5 52 19.2 61S508.8 579 527 570s23.8-25 23.8-25l-6.8-39.6 17 22.6 4.5-3.4-17-27.2s-19.2-32.8-35-30.6z"/><path d="M114.3 655.6h904.4v2.3H114.3z"/></g><path d="M241 616.4c7 25.4 30.4 41 30.4 41s12.4-25.5 5.5-51-30.4-41-30.4-41-12.4 25.5-5.5 51z" fill="#372ac1"/><path d="M251 611c19 18.4 21.2 46.6 21.2 46.6s-28.3-1.5-47-20S204 591 204 591s28.3 1.5 47 20z" fill="#3f3d56"/><g fill="#f2f2f2"><path d="M358.8 28.5h34v34h-34z"/><circle cx="652" cy="451.8" r="17"/></g><circle cx="568.8" cy="51.7" r="32.8" fill="#fbbebe"/><g fill="#3f3d56"><path d="M559.7 140L603 94l13.3 11 35 18-53.2 96.2s-14.7 29.4-12.5 46.4-3.4 88.3-44 104c0 0-62.3-48.7-74.7-45.3s-13.6 6.8-13.6 6.8 12.5-86 48.7-111c0 0 20.4-19.2 17-34s-4.5-82.6-4.5-82.6L565 94z"/><path d="M634.4 119.6l17 3.4 20.4 109.8L699 321l-30.6 8L621 168.3l13.6-48.7zm-113.2-12.4l-6.8-3.4-54.3 90.6-63.4 69 26 21.5 102-125.6-3.4-52z"/></g><path d="M587.8 14.6A25 25 0 0 0 568 4.5h-1c-18 0-32.8 16.4-32.8 36.6h0 6l1-7.5 1.4 7.5h36l3-6.3-.8 6.3h7q5 24.6-14.3 49.3h12l6-12.6-1.5 12.6h23l4.5-29c0-21.8-12.6-40.2-30.2-46.7z" fill="#2f2e41"/><path d="M1089 518.6H920c-83.6 0-151.4-69-151.4-154h169c83.6 0 151.4 69 151.4 154z" fill="#f2f2f2"/><path d="M1090 519.7H892A178 178 0 0 1 714.2 342v-1h198A178 178 0 0 1 1090 518.6zM716.5 343.2c.6 96.2 79 174.3 175.4 174.3h195.8c-.6-96.2-79-174.3-175.4-174.3z" fill="#3f3d56"/><path d="M812.7 386.2h180v2.3h-180zm0 12.4h180v2.3h-180zm0 12.4h180v2.3h-180zm0 12.5h180v2.3h-180zm0 12.5h180v2.3h-180zm0 12.4h180v2.3h-180zm0 12.6h180v2.3h-180z" fill="#fff"/><circle cx="1036.8" cy="483.5" r="17" fill="#372ac1"/><path d="M374.7 296.8h-169c-83.6 0-151.4-69-151.4-154h169c83.6 0 151.4 69 151.4 154z" fill="#f2f2f2"/><path d="M375.8 298h-198A178 178 0 0 1 0 120.2v-1h198a178 178 0 0 1 177.7 177.7zM2.3 121.3c.6 96.2 79 174.3 175.4 174.3h195.8c-.6-96.2-79-174.3-175.4-174.3z" fill="#3f3d56"/><path d="M98.5 164.3h180v2.3h-180zm0 12.5h180v2.3h-180zm0 12.4h180v2.3h-180zm0 12.5h180v2.3h-180zm0 12.3h180v2.3h-180zm0 12.6h180v2.3h-180zm0 12.4h180v2.3h-180z" fill="#fff"/><circle cx="322.6" cy="261.7" r="17" fill="#372ac1"/><defs ><path id="B" d="M464.6 314.3l18.7 135.3s8.5 45.8 24.3 108l5.7 30.6 22.6-8s-5.7-51-4.5-75.8-3.4-53.2-3.4-53.2-10.2-92.8-3.4-113.2-60-23.8-60-23.8z"/></defs></svg>