<svg xmlns="http://www.w3.org/2000/svg" xmlns:xlink="http://www.w3.org/1999/xlink" width="932.4" height="646.2" xmlns:v="https://vecta.io/nano"><defs><linearGradient id="A" x1="401.2" y1="238.8" x2="401.2" y2="191.5" gradientUnits="userSpaceOnUse"><stop offset="0" stop-color="gray" stop-opacity=".3"/><stop offset=".5" stop-color="gray" stop-opacity=".1"/><stop offset="1" stop-color="gray" stop-opacity=".1"/></linearGradient><linearGradient id="B" x1="548.2" y1="175.4" x2="548.2" y2="144.9" xlink:href="#A"/><linearGradient id="C" x1="138.4" y1="143.7" x2="138.4" y2="9.7" xlink:href="#A"/><path id="D" d="M102 585.2c7.4-20 30.8-30.5 52.2-29.7s41.3 10.5 60.5 20 39 19.3 60.4 20.3c47.5 2.3 87.5-38 135-42.7 56.3-5.5 106.3 40.4 162.8 42.3a69 69 0 0 0 29.2-4.7c8-3.4 15-8.8 22.4-13 38-21.6 85.5-13.4 127.5-1.5s85.6 27.3 128.3 18"/><path id="E" d="M547.3 175.4l-4.4-.8c.1-1 .3-2.2.5-3.3.8-9.5-6-19.6-15.2-22l1.2-4.4a26 26 0 0 1 17.5 17.6c4.4-7.6 11.8-13 20.4-14.8l1 4.4c-9.7 2-18 10.2-20.3 20l-.6 3.3z"/><path id="F" d="M410.8 45.2l-3-.5c.1-.7.2-1.4.3-2 .5-6.2-3.8-12.7-9.8-14.4l.8-2.8c5.5 1.6 9.8 6 11.4 11.5 3-5 7.7-8.4 13.3-9.6l.6 3c-6.5 1.5-11.6 6.5-13.2 13l-.4 2.2z"/></defs><path fill="#0f0955" stroke="#0f0955" stroke-miterlimit="10" d="M172.2 163h11v147h-11z"/><path fill="#f55f44" d="M407.4 265.8h109.3V332H407.4z"/><path fill="#4d8af0" d="M516.7 265.8H626V332H516.7z"/><path fill="#3ad29f" d="M626 265.8h109.3V332H626z"/><path fill="#4d8af0" d="M406.6 332H516v66.2H406.6z"/><path fill="#f55f44" d="M298.2 332h109.3v66.2H298.2z"/><path fill="#3ad29f" d="M516.7 332H626v66.2H516.7z"/><path fill="#fdd835" d="M626 332h109.3v66.2H626z"/><path d="M427 265.4h14.4v66.2H427zm28 0h14.4v66.2H455zm27.8 0H497v66.2h-14.4z" opacity=".1"/><path d="M536.2 265.4h14.4v66.2h-14.4zm27.8 0h14.4v66.2H564zm28 0h14.4v66.2H592z" opacity=".1"/><path d="M645.5 265.4H660v66.2h-14.4zm28 0h14.4v66.2h-14.4zm28 0h14.4v66.2h-14.4z" opacity=".1"/><path d="M427 331.6h14.4v66.2H427zm28 0h14.4v66.2H455zm27.8 0H497v66.2h-14.4z" opacity=".1"/><path d="M317.7 331.6H332v66.2h-14.4zm28 0H360v66.2h-14.4zm28 0H388v66.2h-14.4z" opacity=".1"/><path d="M536.2 331.6h14.4v66.2h-14.4zm27.8 0h14.4v66.2H564zm28 0h14.4v66.2H592z" opacity=".1"/><path d="M645.5 331.6H660v66.2h-14.4zm28 0h14.4v66.2h-14.4zm28 0h14.4v66.2h-14.4z" opacity=".1"/><g fill="#0f0955" stroke="#0f0955" stroke-miterlimit="10"><path d="M21.7 475.6h846v26h-846z"/><path d="M790.7 372.6h-498a12 12 0 0 1-12-12v-73.3l-194-21.7v223h716v-128a12 12 0 0 1-12 12z"/></g><path fill="#fff" d="M86.7 289.6h73v42h-73z"/><circle cx="177.7" cy="162.6" r="21" fill="#0f0955" stroke="#0f0955"/><g fill="#4d8af0"><path d="M95.6 496.7c7.4-20 30.8-30.5 52.2-29.7s41.3 10.5 60.5 20 39 19.3 60.4 20.3c47.5 2.3 87.5-38 135-42.7C460 459.2 510 505 566.4 507a69 69 0 0 0 29.2-4.7c8-3.4 15-8.8 22.4-13 38-21.6 85.5-13.4 127.5-1.5S831.2 515 874 506M0 535.5c7.4-20 30.8-30.5 52.2-29.7s41.3 10.5 60.5 20 39 19.3 60.4 20.3c47.5 2.3 87.5-38 135-42.7 56.3-5.5 106.3 40.4 162.8 42.3A69 69 0 0 0 500 541c8-3.4 15-8.8 22.4-13 38-21.6 85.5-13.4 127.5-1.5s85.6 27.3 128.3 18"/><use xlink:href="#D"/><use xlink:href="#D" x="52" y="49"/></g><path d="M399.8 238.8l-7-1.2c.2-1.7.5-3.4.8-5a34 34 0 0 0-23.5-34.3l1.8-6.8c13 3.6 23.3 14.6 27 27.4 7-11.7 18.3-20 31.6-23l1.4 7c-15 3-28 16-31.5 31l-1 5.2z" transform="translate(-136.8 -124.9)" fill="url(#A)" opacity=".5"/><path d="M263.2 110.5l-6-1a38 38 0 0 1 .7-4.3 29 29 0 0 0-20.1-29.3l1.6-5.8c11.2 3 20 12.4 23.2 23.4 6-10 15.7-17.2 27-19.6l1.2 6c-13 2.6-24 13.6-27 26.4l-.8 4.4z" fill="#706a6a"/><g transform="translate(-136.8 -124.9)"><use xlink:href="#E" fill="url(#B)" opacity=".5"/><use xlink:href="#E" x="271" y="-20" fill="url(#B)" opacity=".5"/></g><g fill="#706a6a"><use xlink:href="#F"/><use xlink:href="#F" x="271" y="-20"/></g><circle cx="138.4" cy="76.7" r="67" fill="url(#C)" opacity=".5"/><circle cx="138.4" cy="76.7" r="62" fill="#fdd835"/></svg>