<svg xmlns="http://www.w3.org/2000/svg" xmlns:xlink="http://www.w3.org/1999/xlink" width="1099" height="797.7" xmlns:v="https://vecta.io/nano"><style><![CDATA[.B{stroke-width:2}.C{fill:#2f2e41}.D{stroke:#3f3d56}.E{stroke-miterlimit:10}.F{fill:none}.G{fill:#372ac1}.H{fill:#ffb9b9}.I{fill:#3f3d56}.J{fill:#9f616a}.K{fill:#d0cde1}.L{fill:#57b894}]]></style><g fill="#f2f2f2"><circle cx="471" cy="373" r="373"/><ellipse cx="148" cy="774" rx="148" ry="23.7"/><ellipse cx="870" cy="737" rx="229" ry="36.6"/></g><path d="M819 384.8s2 6.5-9 12.3-14.3 28-1.3 34.4 17 15 10.4 20.8-18.2 21.4-2.6 25.3 17.5 11.7 13 15 10.4-5.8 10.4-5.8 2.6 15.6 16.2 11.7 52-78 32.5-88.4-69.5-25.3-69.5-25.3z" class="C"/><use xlink:href="#B" class="H"/><use xlink:href="#B" opacity=".1"/><path d="M852.8 740.8l38.8 13.5 27 1.7-1.7-23.6-55.6-16.4-8.4 25z" class="H"/><path d="M902.5 735.7s0 23.6 3.4 23.6 49-5 62.4 0 33.7-13.5 23.6-23.6-26.6-25.3-37-22-52.4 11.8-52.4 11.8zm-124-22s-20.2 40.4-6.7 43.8 28.7-1.7 30.3-3.4 25.3-8.4 28.6-5 3.4-13.5 3.4-13.5z" fill="#575a89"/><use xlink:href="#C" class="C"/><use xlink:href="#C" opacity=".2"/><circle cx="856.2" cy="420.6" r="38.8" class="H"/><path d="M795.5 481.2l33.7-6.7s8.4 27 35.4 22 33.7-22 33.7-22l22 8.4c1.7 0 23.6 8.4 23.6 13.5S918.5 552 918.5 552l3.4 91-124.7-3.4 8.4-89.3z" class="G"/><path d="M777 525s-10 89.3-3.4 96a413 413 0 0 0 33.7 25.3V626l-13.5-25 13.5-59zm174.4-2.5l-6 95.2c0 3.4-15.2 15.2-20.2 15.2s-8.4-8.4-8.4-8.4l11.8-13.5-8.4-69z" class="H"/><path d="M935.4 651.5s75.8-42 77.5 0-38.8 59-38.8 59-104.5 31.3-108.7 20-12.6-30-6-31.7 15.2-5 18.5-1.7 45.5-25.3 45.5-25.3z" class="C"/><path d="M970.8 646.4s-15.2 6.7-20.2 11.8-27 13.5-27 13.5" stroke="#000" opacity=".2" class="B E F"/><path d="M805.6 484.6l-10-3.4s-37 38.8-25.3 49 18.5 13.5 22 17 20.2 5 20.2 5zm123 8.4l15.2 3.4L959 525c3.4 3.4-5 1.7-10 8.4S939 552 928.8 552s-23.6-17-23.6-17z" class="G"/><path d="M799 666.6s-64-45.5-86-11.8 94.4 79.2 111.2 86l32 13.5 15.2-43.8c0-6.7-11.8-6.7-15.2-6.7s-18.5-3.4-22-8.4-35.4-28.7-35.4-28.7z" class="C"/><path d="M763.5 654.8s17 13.5 32 17 20.2 11.8 20.2 11.8" stroke="#000" opacity=".2" class="B E F"/><path d="M787.2 591.5l1.3 71.4c.1 5 4 8.8 9 8.8l132.8-1.5c4.7-.1 8.5-3.7 8.8-8.4l4-70c.1-2.5-.7-5-2.4-6.6s-4-2.8-6.5-2.8H796.2c-2.4 0-4.7 1-6.4 2.7s-2.6 4-2.6 6.4z" fill="#575a89"/><g class="C"><path d="M858.2 372s2.2 7.2-10 13.7-15.8 31-1.4 38.2 18.7 16.6 11.5 23-20.2 23.8-3 28 19.4 13 14.4 16.6 11.5-6.5 11.5-6.5 3 17.3 18 13 30.2-82.8 13.4-103c-15.7-18.8-54.4-23-54.4-23z"/><path d="M853.6 364.5c0-10.5 31.6-3 45 11.8 9.4 10.2 23.6 25.5 11.7 36.4s20.4 25 29 29.3 25.8 17.4 10.3 26.3-15.2 17.7-9.4 19.8-12.8-3-12.8-3 2 17.4-13.8 17.3-60.8-86.5-50-110.5c10-22.3-10-27.2-10-27.2z"/><path d="M860.5 362.2c-42.2-2.5-46.4 29.2-46.4 29.2.3 18.4 29.5 9.4 37.6 12.2l42-30a64 64 0 0 0-33.3-11.5z"/></g><path d="M848.4 564.8s-38-177.4-274.8-306" class="B D E F"/><path d="M583.4 255l.5 2-9.6 2.3 3 9.4-2 .6-3.7-11.4 11.7-2.8z" class="I"/><path d="M68.5 746c0 22.5-13.4 30.3-29.8 30.3q-.6 0-1 0l-2.3-.1c-15-1-26.4-9.3-26.4-30.2 0-21.6 27.6-49 29.7-51h0l.1-.1s29.8 28.6 29.8 51z" class="G"/><path d="M37.6 773l11-15.2-11 17v1.8l-2.3-.1 1.2-22.5v-.2h0l.1-2-11-17 11 15.4v.5l1-17-9.4-17.5 9.5 14.5 1-35.2v-.1.1l-.2 27.8 9.3-11-9.4 13.4-.2 15.2 8.7-14.6-8.8 16.8v8.5L50.6 731 38 754.2z" class="I"/><g class="C"><path d="M210.8 740.3l6.4-4.7s4.2 23.6-.5 27-22.4 9.4-22.4 16.5-40 16.5-41.2 6 3.5-16.5 3.5-16.5l21.2-22.4c2.4-3.5 8.2-10.6 8.2-10.6z"/><path d="M116.5 447l.5 3 1 7 18.4 122c-1.2 3.5-9.4 16.5 0 20 1 .3 2 1.4 3 3.2a72 72 0 0 1 5 11.8c5.6 16.3 11.6 42.4 15 60.5l3 17.7c.1.8.1 1.6 0 2.3-1.2 4.7 7 21.2 10.6 26s9.4 9.4 8.2 14 29.5 17.7 33 9.4 3.5-13 4.7-15.3 2.4-19-3.5-21.2-2.4-43.6-8.2-52c-2-2.7-5-12-8-23.2l-3.7-13.7L186 580l1.2-138-64.8-8.2-1.7 3.7-3.3 7.3zM113 673s-9.4-9.4-14 0-9.4 46-17.7 54.2-19 49.5-7 52 24.7-3.5 26-10.6 26-43.6 26-47-16.5-16.5-16.5-16.5z"/><path d="M258 382L239 533c-3.5 13-22.4 62.5-28.3 70.7s-43.6 75.4-48.3 79-14 13-14 13-17.7 17.7-20 21.2-22.4-7-23.6-14 1.2-19 2.4-23.6-2.4-11.8 1.2-15.3 21.2-21.2 21.2-29.5S160 577.7 172 567s9.4-28.3 9.4-28.3v-72l-64.8-20s3.5-56.6 11.8-56.6S245 371.4 258 382z"/></g><g class="J"><circle cx="162.5" cy="146.3" r="38.9"/><path d="M175.4 177s4.7 17.7 10.6 22.4-15.3 24.7-15.3 24.7l-40 2.4-7-22.4s13-26 9.4-42.4 42.4 15.3 42.4 15.3z"/></g><path d="M192 197s-10.6 1.2-13 4.7-19 14-31.8 11.8-21.2-6-23.6-4.7-7 26-7 26l13 37.7L127 376l-3.5 28.3s-7-9.4 21.2-3.5 64.8-4.7 76.6-6 31.8-4.7 33-11.8-3.5-33-3.5-33l-19-79-11.8-42.4z" class="G"/><path d="M180.8 191.7s10-5.3 13.5-.6 48.3 11.8 48.3 15.3 9.4 99 7 107.2 4.7 17.7 4.7 17.7l8.2 35.4s22.4 67.2 13 69.5-17.7 0-21.2 0-2.4-44.8-11.8-56.6-22.4-41.2-24.7-47L187.2 236c1.2-9.4-6.4-44.2-6.4-44.2zm-49 5.3s-9.4 0-10.6 2.4a129 129 0 0 1-17.7 21.2c-4.7 3.5-21.2 19-21.2 22.4s34.2 29.5 34.2 29.5 14 69.5 7 93-17.7 80-13 83.7 15.3 4.7 15.3 0 7-55.4 13-66 23.6-77.8 16.5-96.6-23.6-89.6-23.6-89.6z" class="K"/><path d="M287.4 313.7s1.2 36.5-11.8 55.4-21.2 40-21.2 40-21.2-6-24.7-13-26-1.2-26-3.5 27-14 29.5-16.5 10.6-2.4 15.3-7 6-15.3 6-15.3L259 323z" class="J"/><path d="M189.2 122.4c3-.3 6-.6 8.7-2 6-3.2 7.5-12.3 3-17.3-1.2-1.3-2.6-2.4-4-3.3l-9-6c-4-2.7-8-5.4-12.6-6.7-4.2-1-8.6-1-13-.8-8.4.5-16.8 1.6-24.7 4.5s-15.3 7.8-20 14.7c-7.6 11-7.7 25.8-3.5 38.4s12 23.7 20 34.5l4-19.8c.4-1.8.8-3.7 2.3-4.7 3.6-2.6 8 2.7 12.6 2.7 3 0 5.3-2.4 6.4-5s1.2-5.6 1.4-8.5c.5-6 2.7-14.5 8.4-17.8 5.4-3 14.2-2.2 20.2-2.7z" class="C"/><path d="M187 447.8l-6.3 118.7c-2.4 3.5 0-119 0-119z" opacity=".1"/><path d="M233.2 206.4h9.4s40 54.2 35.4 57.7 0 13 0 13l9.4 17.7s11.8 10.6 8.2 13-8.2 11.8-8.2 11.8-23.6-3.5-30.6 10.6L241.4 311z" class="K"/><path d="M204 237.2l32.4-13.4 25 60.3-32.4 13.4z" class="C"/><ellipse cx="280.8" cy="304.5" rx="7" ry="6.4" transform="matrix(.92 -.38 .38 .92 -145.45 79.05)" class="G"/><path d="M209.6 300.7s-84.8 70.7-99 48.3 15.3-41.2 15.3-41.2 26 1.2 55.4-17.7l29.5-13s27-38.4 36-23.8-15.6 40-37.2 47.3z" class="J"/><path d="M95.3 238.3l-13 4.7v35.4l-4.7 7s1.2 14 4.7 17.7 10.6 2.4 8.2 10.6c-1.4 5.4-1.8 11-1.2 16.5 0 0 21.2 27 22.4 23.6l20-47c2.4 0-23.6-68.4-23.6-68.4z" class="K"/><path d="M250.3 416.8s12.2-11.8 6-12.4S229 392 225.5 398s24.7 19 24.7 19z" class="C"/><ellipse cx="482" cy="183" rx="17" ry="9" class="L"/><g class="F B D"><g class="E"><path d="M547 213q-57.5-21.7-115 0v-47a199 199 0 0 1 115 0z"/><path d="M531 203.3q-41.5-15.7-83 0v-34c27-8.2 56-8.2 83 0z"/></g><ellipse cx="488" cy="179" rx="17" ry="9"/></g><ellipse cx="543.2" cy="290.7" rx="17" ry="9" transform="matrix(.98 -.2 .2 .98 -97.66 63.34)" class="L"/><g class="F B D"><g class="E"><path d="M562.4 256q-60.7-9.8-112.7 23l-9.4-46a199 199 0 0 1 112.7-23z"/><path d="M544.8 249.6q-43.8-7-81.3 16.6l-6.8-33.2c25-13.4 53.2-19.2 81.3-16.6z"/></g><ellipse cx="548.3" cy="285.6" rx="17" ry="9" transform="matrix(.98 -.2 .2 .98 -96.54 64.25)"/></g><ellipse cx="539.7" cy="346.6" rx="9" ry="17" transform="matrix(.07 -1 1 .07 105.9 809.79)" class="L"/><g class="F B D"><g class="E"><path d="M552 330q-56-25.7-114.7-8l3.3-47a199 199 0 0 1 114.7 8z"/><path d="M536.6 319q-40.3-18.5-82.8-5.8l2.4-33.8c27.6-6.3 56.4-4.3 82.8 5.8z"/></g><ellipse cx="545.9" cy="343.1" rx="9" ry="17" transform="matrix(.07 -1 1 .07 115.3 812.72)"/><path d="M415 214s-73.5-10-126 20.7" class="E"/></g><path d="M290.7 224.5l2 .6-3 9.4 9.6 2.3-.5 2L287 236l3.6-11.4z" class="I"/><defs ><path id="B" d="M842.7 447.5s6.7 23.6-5 25.3a46 46 0 0 0-20.2 8.4l22 28.7h40.4l25.3-25.3s-33.7-25.3-27-40.4-35.4 3.4-35.4 3.4z"/><path id="C" d="M795.5 658.2s-32 43.8-8.4 55.6 136.5 11.8 145 0 11.8-49 0-52.2-136.5-3.4-136.5-3.4z"/></defs></svg>