<svg xmlns="http://www.w3.org/2000/svg" xmlns:xlink="http://www.w3.org/1999/xlink" viewBox="0 0 450.7 215.7" xmlns:v="https://vecta.io/nano"><defs><linearGradient id="A" y1="129.8" x2="450.7" y2="129.8" gradientUnits="userSpaceOnUse"><stop offset="0" stop-color="#94deef"/><stop offset="1" stop-color="#4b4cef"/></linearGradient><linearGradient id="B" x1="19.9" y1="74.3" x2="202.7" y2="74.3" gradientUnits="userSpaceOnUse"><stop offset="0" stop-color="#4b4cef"/><stop offset="1" stop-color="#94d5ef"/></linearGradient><linearGradient id="C" y1="108" y2="108" xlink:href="#B"/></defs><rect y="43.9" width="450.7" height="171.8" rx="7.2" fill="url(#A)"/><path d="M253.5 98v83.8c0 1.7.7 3.4 2 4.5s3 1.8 4.6 1.8h173.2c1.7 0 3.4-.6 4.6-1.8s2-2.8 2-4.6V98c0-1.7-.7-3.4-2-4.6s-3-1.8-4.6-1.8H260c-1.7 0-3.4.6-4.6 1.8s-2 2.8-2 4.5z" opacity=".1"/><rect x="12" y="74" width="198.7" height="132.4" rx="7.4" opacity=".1"/><path d="M417 73V14.7C417 11.2 130.6 34.4 64.4 0l-18 73z" fill="#fff"/><path d="M172.8 52.6h115.6M161 63.8h115.6" fill="none" stroke="#7a5bf5" stroke-miterlimit="10"/><path d="M23.6 60.2H199a3.7 3.7 0 0 1 3.7 3.6v24.5a0 0 0 0 1 0 0H20a0 0 0 0 1 0 0V64a3.7 3.7 0 0 1 3.6-3.6z" fill="url(#B)"/><path d="M23.6 75.7H199a3.7 3.7 0 0 1 3.7 3.7v28a0 0 0 0 1 0 0H20a0 0 0 0 1 0 0v-28a3.7 3.7 0 0 1 3.6-3.7z" fill="#fff"/><path d="M23.6 97.3H199a3.7 3.7 0 0 1 3.7 3.7v17.6a0 0 0 0 1 0 0H20a0 0 0 0 1 0 0V101a3.7 3.7 0 0 1 3.6-3.7z" fill="url(#C)"/><path d="M242 74h2.6v132.4H242zm-21.5 0h2.6v132.4h-2.6z" opacity=".1"/><path d="M63.4 60.2l8.2-40c15 16.4 308 18.2 334.2 9.3L404 73" fill="none" stroke="#7a5bf5" stroke-miterlimit="10"/></svg>