<svg id="Layer_1" data-name="Layer 1" xmlns="http://www.w3.org/2000/svg" xmlns:xlink="http://www.w3.org/1999/xlink" viewBox="0 0 339.57 267.46" width="406" height="306" class="illustration styles_illustrationTablet__1DWOa"><defs><linearGradient id="linear-gradient" x1="208.13" y1="159.3" x2="204.59" y2="-27.35" gradientTransform="matrix(1, 0, 0, -1, 0, 352)" gradientUnits="userSpaceOnUse"><stop offset="0.01"></stop><stop offset="0.13" stop-opacity="0.69"></stop><stop offset="0.25" stop-opacity="0.32"></stop><stop offset="1" stop-opacity="0"></stop></linearGradient><linearGradient id="linear-gradient-2" x1="288.64" y1="202.89" x2="13.93" y2="349.2" gradientTransform="matrix(0.99, 0.15, 0.15, -0.99, -62.69, 393.03)" xlink:href="#linear-gradient"></linearGradient><linearGradient id="linear-gradient-3" x1="248.05" y1="113.67" x2="-26.67" y2="259.99" gradientTransform="matrix(1, 0, 0, -1, 0.67, 351.09)" xlink:href="#linear-gradient"></linearGradient><linearGradient id="linear-gradient-4" x1="221.63" y1="112.89" x2="64.53" y2="226.45" xlink:href="#linear-gradient"></linearGradient><linearGradient id="linear-gradient-5" x1="156.58" y1="61.25" x2="328.35" y2="248.1" gradientTransform="matrix(1, 0, 0, -1, -37.28, 314.28)" xlink:href="#linear-gradient"></linearGradient><linearGradient id="linear-gradient-6" x1="361" y1="234.08" x2="97.8" y2="42.03" gradientTransform="matrix(1, 0, 0, -1, -37.28, 314.28)" xlink:href="#linear-gradient"></linearGradient><linearGradient id="linear-gradient-7" x1="266.16" y1="186.63" x2="271.3" y2="57.05" gradientTransform="matrix(1, 0, 0, -1, -37.28, 314.28)" xlink:href="#linear-gradient"></linearGradient><linearGradient id="linear-gradient-8" x1="226.07" y1="181.82" x2="280.64" y2="57.67" gradientTransform="matrix(1, 0, 0, -1, -37.28, 314.28)" xlink:href="#linear-gradient"></linearGradient><linearGradient id="linear-gradient-9" x1="160.3" y1="106.52" x2="69.87" y2="86.74" xlink:href="#linear-gradient"></linearGradient><linearGradient id="linear-gradient-10" x1="326.77" y1="266.36" x2="143.17" y2="2.75" gradientTransform="matrix(1, 0, 0, -1, 0, 352)" gradientUnits="userSpaceOnUse"><stop offset="0.01"></stop><stop offset="0.08" stop-opacity="0.69"></stop><stop offset="0.21" stop-opacity="0.32"></stop><stop offset="1" stop-opacity="0"></stop></linearGradient></defs><title>3. </title><path d="M375.26,235.44c-3.84-16.83-15.92-27.47-21.36-43.67-4.54-13.54-3.59-28.27-6.23-42.3-5.1-27.12-23.6-50.31-46-66.42S253,57.05,226.9,48.21c-10.32-3.49-20.81-6.87-31.5-8.81A99.23,99.23,0,0,0,179,37.73c-28.54-.37-54.65,14.49-73.8,34.83C96.57,81.76,85.11,94.69,81.31,107c-4.39,14.21-.3,30.51-4.44,45.21-3.35,11.88-11,22-17.81,32.26-15.34,23-27.73,51.59-18.75,77.74C48.13,285,71.18,300.17,95,304s48.13-2.09,70.59-10.79c14.68-5.68,29.43-12.69,45.17-12.62,14.62.06,28.41,6.22,42.34,10.65a183.38,183.38,0,0,0,76.55,7.31c10.26-1.21,20.76-3.43,29.21-9.38C375.06,277.7,379.68,254.81,375.26,235.44Z" transform="translate(-37.28 -37.72)" fill="#10569a" opacity="0.18" style="isolation: isolate;"></path><path d="M168.93,260.91a334.85,334.85,0,0,0-65.54,14.55c-2.42.8-5.14,1.93-5.9,4.36a342,342,0,0,0,69.64,1.72c15.24-1.18,30.39-3.38,45.63-4.48,32.11-2.32,64.48.26,96.49-3.22a10.48,10.48,0,0,0,4.55-1.23,3.68,3.68,0,0,0,1.78-4,4.8,4.8,0,0,0-2.63-2.46c-5.38-2.67-11.64-2.72-17.65-2.64-40.54.55-81.31,4.82-121.48-.68" transform="translate(-37.28 -37.72)" fill="url(#linear-gradient)"></path><path d="M232.14,152.74c-17-7.87-34.81-15.6-53.52-15.11-6.88.18-13.71,1.48-20.6,1.52a57,57,0,0,1-32.24-9.82q-7.71,26.58-15.28,53.2c-1.39,4.89-3.24,9.9-4.16,14.9-1.52,8.27,17.19,12.4,23.21,13.16,6.94.88,14,.2,21,.43a40.32,40.32,0,0,1,17.19,4c5.22,2.66,11.3,4.13,16.86,6.22,13.69,5.13,28.13,9.54,42.69,8.23s29.34-9.55,34.51-23.22c1.23-3.25,1.89-6.69,3-10,2.86-8.35,11.94-19.24,2.38-26.13C257,162.71,243.54,158,232.14,152.74Z" transform="translate(-37.28 -37.72)" fill="#10569a"></path><path d="M219.21,154.31c-7.27-3.31-14.52-6.82-22.29-8.69-18.61-4.45-38.59.89-57.09-4a8.12,8.12,0,0,1-10.71,4.13l-.05,0c-.85,3.33-.83,7.37-1.49,10.88q-1.24,6.52-2.93,12.95a196.37,196.37,0,0,1-8.3,24.78c1.66-.17,3.06,1.45,3.28,3.11a9.88,9.88,0,0,1-1,4.84c-.11.26,5.35,1.9,5.87,2a25.09,25.09,0,0,0,6,0c4.34-.35,8.56-1.6,12.87-2.2,16.27-2.26,32.17,4.78,48.06,9a139.63,139.63,0,0,0,16.21,3.25c3.92.55,7.94.92,11.8,0s7.61-3.11,11-5.48c6.49-4.56,12.52-10,16.75-16.67,3.37-5.34,9.76-19.52,3.46-24.72-3.76-3.1-10.87-4.4-15.4-6.27Q227.14,157.92,219.21,154.31Z" transform="translate(-37.28 -37.72)" fill="url(#linear-gradient-2)"></path><path d="M214.26,157c-18-5.12-36.82-10-55.22-6.57-6.78,1.26-13.32,3.61-20.11,4.73a57,57,0,0,1-33.39-4.68q-3.47,27.47-6.78,54.94c-.61,5.05-1.65,10.28-1.78,15.37-.21,8.4,18.91,9.56,25,9.37,7-.22,13.84-2,20.78-2.85a39.93,39.93,0,0,1,17.62,1.2c5.57,1.8,11.81,2.31,17.63,3.5,14.32,2.93,29.27,5,43.45,1.47s27.48-14,30.46-28.33c.7-3.4.82-6.9,1.42-10.32,1.53-8.7,8.8-20.87-1.73-26.18C240.33,163,226.34,160.46,214.26,157Z" transform="translate(-37.28 -37.72)" fill="#10569a"></path><path d="M201.73,160.59c-7.7-2.14-15.41-4.47-23.37-5.1-19.08-1.49-38,6.91-57,5a8.13,8.13,0,0,1-10,5.75h0c-.32,3.43.33,7.41.22,11-.14,4.42-.43,8.85-.87,13.25a195.22,195.22,0,0,1-4.33,25.77c1.62-.43,3.26,1,3.73,2.56a9.86,9.86,0,0,1-.27,4.94c-.07.28,5.58,1.05,6.11,1.05a25,25,0,0,0,5.89-.89c4.24-1,8.21-2.91,12.37-4.18,15.72-4.77,32.52-.3,48.86,1.34a140.17,140.17,0,0,0,16.52.68c4-.08,8-.33,11.66-1.8,3.83-1.52,7-4.26,10-7.13,5.69-5.52,10.81-11.79,13.94-19.08,2.49-5.79,6.6-20.8-.44-25-4.2-2.48-11.43-2.65-16.19-3.79Q210.1,162.92,201.73,160.59Z" transform="translate(-37.28 -37.72)" fill="url(#linear-gradient-3)"></path><path d="M143.77,218.63a49.49,49.49,0,0,1-.88-5.54,31.54,31.54,0,0,1,.57-5.48c.92-6.69,0-13.48-.4-20.23s-.44-13.72,2.1-20a15,15,0,0,1,4.75-6.62c2.58-1.88,5.85-2.49,9-2.86,4-.47,8.2-.64,12,.8a8,8,0,0,0-4,5,21.14,21.14,0,0,0-.6,6.58,121.61,121.61,0,0,0,2.45,21.09c1.41,6.91,3.37,14.21,1,20.85-1.33,3.7-3.9,6.79-5.85,10.21-1.29,2.27-2.88,5.07-5.5,5a10.26,10.26,0,0,1-2.39-.56,15.12,15.12,0,0,0-5.92,0c-1.3.18-4.11,1.13-5.29.43C142.77,226.18,144.08,220.64,143.77,218.63Z" transform="translate(-37.28 -37.72)" fill="url(#linear-gradient-4)"></path><rect x="115.65" y="120.56" width="146.87" height="113.13" rx="15.46" fill="#10569a"></rect><rect x="115.65" y="120.56" width="146.87" height="113.13" rx="15.46" fill="url(#linear-gradient-5)"></rect><rect x="115.65" y="145.86" width="146.87" height="65.16" fill="url(#linear-gradient-6)"></rect><rect x="191.89" y="170.82" width="78.6" height="29.97" rx="10.82" fill="url(#linear-gradient-7)"></rect><rect x="193.49" y="162.38" width="78.6" height="29.97" rx="10.82" fill="#10569a"></rect><circle cx="208.42" cy="177.12" r="9.97" fill="url(#linear-gradient-8)"></circle><circle cx="84.59" cy="213.41" r="21.56" fill="#f8c244"></circle><circle cx="84.6" cy="213.42" r="18.38" fill="#e8a825"></circle><path d="M120.19,262.71v-2.95a8.56,8.56,0,0,1-4.46-1.28l.7-2a7.72,7.72,0,0,0,4.17,1.25c2.09,0,3.48-1.19,3.48-2.85s-1.13-2.6-3.29-3.48c-3-1.17-4.82-2.51-4.82-5s1.72-4.26,4.41-4.7v-2.94h1.81v2.82a8,8,0,0,1,3.79,1l-.72,2a7,7,0,0,0-3.67-1c-2.25,0-3.09,1.35-3.09,2.51,0,1.52,1.08,2.27,3.61,3.33,3,1.22,4.52,2.74,4.52,5.33a5.06,5.06,0,0,1-4.6,5v3Z" transform="translate(-37.28 -37.72)" fill="#f8c244"></path><path d="M124.45,242.33a18.81,18.81,0,0,0-.64,12.32c.91,3.1,2.61,5.92,3.53,9a7.54,7.54,0,0,1,.38,2.79c-.19,1.89-1.53,3.44-2.8,4.85,1.71.35,3.44-.44,5-1.29a18.24,18.24,0,0,0,6.23-5,17,17,0,0,0,2.46-5.64,36.64,36.64,0,0,0,0-18.94c-.63-2.31-3.11-8.68-6.39-7.19S125.8,239,124.45,242.33Z" transform="translate(-37.28 -37.72)" fill="url(#linear-gradient-9)"></path><circle cx="110.92" cy="214" r="21.56" fill="#f8c244"></circle><circle cx="110.92" cy="214" r="18.38" fill="#e8a825"></circle><path d="M139.6,259.65l1.86-2.29a8.55,8.55,0,0,1-2.66-3.8l1.77-1.08a7.75,7.75,0,0,0,2.46,3.6c1.62,1.31,3.45,1.26,4.5,0s.75-2.73-.37-4.77c-1.58-2.79-2.16-5-.57-7s4-2.22,6.38-.87l1.85-2.29,1.41,1.14-1.78,2.19a8,8,0,0,1,2.31,3.18L155,248.74a7.07,7.07,0,0,0-2.23-3.08c-1.75-1.42-3.25-.9-4,0-1,1.18-.59,2.45.71,4.86,1.57,2.84,1.79,5,.16,7a5.08,5.08,0,0,1-6.7,1L141,260.83Z" transform="translate(-37.28 -37.72)" fill="#f8c244"></path><circle cx="241.75" cy="90.64" r="21.56" fill="#f8c244"></circle><circle cx="241.75" cy="90.63" r="18.38" fill="#e8a825"></circle><path d="M280.13,140l-.7-2.86a8.52,8.52,0,0,1-4.64-.19l.22-2.07a7.77,7.77,0,0,0,4.35.23c2-.49,3.1-2,2.71-3.59s-1.72-2.26-4-2.6c-3.17-.44-5.27-1.31-5.87-3.77s.66-4.54,3.17-5.6l-.7-2.86,1.76-.43.67,2.74a7.93,7.93,0,0,1,3.93.1l-.24,2.07a7,7,0,0,0-3.8-.1c-2.19.53-2.69,2-2.41,3.17.36,1.47,1.59,2,4.3,2.37,3.21.48,5,1.6,5.65,4.12a5.07,5.07,0,0,1-3.3,5.91l.72,3Z" transform="translate(-37.28 -37.72)" fill="#f8c244"></path><path d="M247.54,173.59a39.41,39.41,0,0,0,23.86,6,95.74,95.74,0,0,0-3.69,23.6,8.06,8.06,0,0,0,.6,4c.91,1.73,2.88,2.61,4.76,3.14a26.94,26.94,0,0,0,10.34.85,146.18,146.18,0,0,1-2.42-20c-.16-5.47.3-10.92.44-16.38.06-2.33.51-5.35,0-7.63s-3-3.52-4.56-5a20.62,20.62,0,0,1-5.38-8.66,10.61,10.61,0,0,1-.41-5.72c.58-2.24,2.22-4.06,3-6.23s.32-5.23-1.92-5.85c-1.7-.47-3.78.71-5.19-.37-.5-.39-.8-1-1.33-1.37a2.5,2.5,0,0,0-3,.54,9.82,9.82,0,0,0-1.68,2.84,24.2,24.2,0,0,1-9.63,9.89,44.77,44.77,0,0,1-8.11,3.66c-2.12.75-5.47.93-7.29,2.15-2.08,1.39-.37,4.9.55,7.14A30,30,0,0,0,247.54,173.59Z" transform="translate(-37.28 -37.72)" fill="url(#linear-gradient-10)"></path><path d="M278.33,209a1.83,1.83,0,0,0,.79.55c4.38,1.94,9.34,2,14.14,2a1.83,1.83,0,0,0,.92-.15,1.3,1.3,0,0,0,.39-1.65,3.5,3.5,0,0,0-1.31-1.28,30.79,30.79,0,0,0-4.4-2.41c-1.21-.53-2.57-1.11-3.06-2.33a9,9,0,0,1-.34-2c-.46-2.81-4.87-1.43-6.35,0C277.79,203.08,277.34,207.59,278.33,209Z" transform="translate(-37.28 -37.72)" fill="#fcab9a"></path><path d="M236,143.23s-2.74,14,9.32,19.86c8.36,4.06,18.48,4.8,27.62,5.15,1.61.06,3.41-.1,5,.12,3.18.41,2.26,2.42,1.88,5.09q-1.29,10.14-2.76,20.24a24.09,24.09,0,0,0,.15,10.62l9.61-1.29a177.65,177.65,0,0,1,5.49-29c1.14-4.12,2.72-9.25.36-13.18a21.85,21.85,0,0,0-9.51-8L259,141.57Z" transform="translate(-37.28 -37.72)" fill="#473f47"></path><path d="M269.05,105.71c2.7-1.1,5.78-2.12,8.47-1a3.13,3.13,0,0,1,1.62,1.36,3,3,0,0,1-1.1,3.47,9.32,9.32,0,0,1-3.67,1.39c-2.32.53-4.62,1.18-6.89,1.93a4.55,4.55,0,0,0-1.11.48,4.74,4.74,0,0,0-1,1,39.38,39.38,0,0,1-7.13,6.64c.72-.52.46-5.29.65-6.28a3.78,3.78,0,0,1,1.94-2.92C263.78,109.9,265.72,107.07,269.05,105.71Z" transform="translate(-37.28 -37.72)" fill="#fcab9a"></path><path d="M262.46,80.75c.36.84,1.25,1.42,1.46,2.33s-.62,2.06-1.14,3.09c-.69,1.38-.74,3-1.44,4.42a1.68,1.68,0,0,1-.61.76,2.15,2.15,0,0,1-.82.2,11.07,11.07,0,0,1-3.3-.23,1.06,1.06,0,0,0-.63-.08.87.87,0,0,0-.36.52,17.58,17.58,0,0,0-.94,8.38c.12.92.24,2.06-.51,2.62a1.72,1.72,0,0,1-.9.32c-2.15.24-4-1.56-5.16-3.34a24.52,24.52,0,0,1-2.57-5.18,4.53,4.53,0,0,1-.35-1.66,5.25,5.25,0,0,1,.5-1.94,36,36,0,0,0,2-6.82c.55-3,.79-6.14,2.22-8.78a4.86,4.86,0,0,1,2.13-2.1,6.08,6.08,0,0,1,3.25-.12,8.67,8.67,0,0,1,5.81,2.76C261.5,76.49,262,79.7,262.46,80.75Z" transform="translate(-37.28 -37.72)" fill="#fcab9a"></path><path d="M257.36,144a13,13,0,0,1-5.2,2,28.44,28.44,0,0,0-7.55,2.93c-1.42.85-2.38,2.3-3.63,3.38a8.83,8.83,0,0,1-7.27,1.95c-.12-.35-.25-.71-.37-1.07-4-12-3.36-25-2.17-37.41.57-5.88,5.19-24.71,14.06-22.52,0,0,8.41,5.81,10.66,9.78,2.05,3.67,5,6.62,4.49,11.15-.74,6.37-4.15,12-4.48,18.63a6,6,0,0,0,.34,2.84c.61,1.29,2.05,2.06,2.65,3.34A4.33,4.33,0,0,1,257.36,144Z" transform="translate(-37.28 -37.72)" fill="#fff"></path><path d="M243.93,133.8a8.37,8.37,0,0,0,1,2.55,8.12,8.12,0,0,0,5.16,3,61.1,61.1,0,0,0,7,1.27c3.48.44,6.27,2,9.9.64a18,18,0,0,0,6.49-4.72c.56-.59,1-1.71.3-2.08a1.57,1.57,0,0,0-.61-.1h-6.05c-.12-.48.23-.94.47-1.37s.34-1.09-.1-1.33-.81.07-1.15.31a12.85,12.85,0,0,1-11.75,1.39c-3.56-1.35-3.83-5.78-4.35-9.17a2.67,2.67,0,0,0-1.13-2.15,2.26,2.26,0,0,0-1.75.08,8.65,8.65,0,0,0-4.9,3.92C241.57,127.93,243.38,131.71,243.93,133.8Z" transform="translate(-37.28 -37.72)" fill="#fcab9a"></path><path d="M245.82,105.12s5.88,15.42,7,16.55-10.94,8.12-10.94,8.12-8.06-15-7.76-21.5S241.29,99,245.82,105.12Z" transform="translate(-37.28 -37.72)" fill="#fff"></path><path d="M263.1,75.93c-1.87,2.81-3.59,1.11-5.72-.77L258,77.8l-3.65,1.67-2-1.88c.48,2.23-.39,4.5-1.11,6.67-1.06,3.19-1.8,6.69-.72,9.87.88,2.6,2.94,4.9,2.87,7.64l-4.26-4a13.74,13.74,0,0,0-3.43-2.63,4.72,4.72,0,0,0-4.1-.14,7.55,7.55,0,0,0-1.55,1.27c-2.18,2.16-4.67,4.19-5.94,7.06-1.12,2.51-1.09,5.66-3,7.85-2.6,3.07-7.55,2.26-11.14.47a16.56,16.56,0,0,1-6.31-5,11.16,11.16,0,0,1,2.81-15.54,11.28,11.28,0,0,1,2.95-1.46c1.75-.56,3.8-.79,4.92-2.25,1.33-1.74.6-4.21.68-6.4a8.24,8.24,0,0,1,4.38-6.9c3.53-1.82,8.5-1.19,10.82-4.41A31.31,31.31,0,0,0,242,66c2.13-4,8.35-4.92,11.57-1.74a7.2,7.2,0,0,0,2.23,1.91,6.12,6.12,0,0,0,2.08.24,6.86,6.86,0,0,1,5.87,3.11c.93,1.65.52,4.55-.47,6.15Z" transform="translate(-37.28 -37.72)" fill="#fc682d"></path><path d="M277.61,206.05a5.9,5.9,0,0,0-.83,3.91,2.09,2.09,0,0,0,.48,1.19,2.43,2.43,0,0,0,1.07.52,53.62,53.62,0,0,0,15.4,2.38,5.21,5.21,0,0,0,2-.27,2,2,0,0,0,1.29-1.43,2.51,2.51,0,0,0-.24-1.32,6.25,6.25,0,0,0-8.18-3.32l-.18.08a9,9,0,0,1-1.65.73,5,5,0,0,1-1.72,0,26.8,26.8,0,0,1-4.35-.87A32.24,32.24,0,0,1,277.61,206.05Z" transform="translate(-37.28 -37.72)" fill="#473f47"></path></svg>