<svg xmlns="http://www.w3.org/2000/svg" xmlns:xlink="http://www.w3.org/1999/xlink" width="1049.6" height="678.6" xmlns:v="https://vecta.io/nano"><style><![CDATA[.B{opacity:.1}.C{fill:#464353}.D{fill:#372ac1}.E{fill:#8dd070}.F{fill:#3f3d56}.G{fill:#ffcdd3}.H{fill:#504f60}.I{fill:#514e7f}.J{fill:#a1616a}.K{fill:#fbbebe}]]></style><defs><linearGradient id="A" x1="790.7" y1="664.4" x2="790.7" y2="175.8" gradientUnits="userSpaceOnUse"><stop offset="0" stop-color="gray" stop-opacity=".3"/><stop offset=".5" stop-color="gray" stop-opacity=".1"/><stop offset="1" stop-color="gray" stop-opacity=".1"/></linearGradient><path id="B" d="M239 220s-1.4 87 14 115.4 22 153 22 153 161.4 16.7 274-20 352-51.7 352-51.7l-40.3-272S661 132 547.8 186.2 239 220 239 220z"/><path id="C" d="M179.8 262.3s25.3 83 48.7 105.6 67.8 138.8 67.8 138.8S455.2 473 551 403.6s319-157.2 319-157.2L748.2 0s-193.6 49-285 135.3-283.5 127-283.5 127z"/><path id="D" d="M826.4 421.8c1 9.2-6 18-4 27.2.4 2 1.3 3.8 1.6 5.7.8 5.4-2.4 10.4-5.4 15L792.3 508c-1 1.7-2.3 3.2-3.7 4.6-5 4.5-12.5 4-19 5.3-4.6 1-9 3-12.8 5.7-.3.3-.4.8-.1 1a11 11 0 0 0 9.5 4.5c.7 1 0 2.2-1 3-1.4 1-3.3 1.2-3.6 3.6-.1.8.1 1.7.5 2.4 1 1.6 2.7 2.8 4.6 3.2 9 2.8 19-2 25.7-8.7s11.7-15 18.3-21.7c3.7-3.7 8-7 11.7-10.5 7.6-7.2 13.5-16 19.2-24.8 1.7-2.6 3.4-5.4 4-8.4s.4-6.2 1.2-9c1-4 4-7 6.3-10.3a34 34 0 0 0 7.1-22.1c-.6-8-5.5-15.7-13-18.4-2.3-1-4.8-1-7.2-.4-3 1-5.3 3.5-7.4 6l-5 5.8c-1.2 1.3-2.2 2.8-3 4.4-.7 1.7-.3 3.6 1 5"/><path id="E" d="M846.3 659c-5.7 3.5-13 3.7-19.5 3-1-.1-2.3-.2-3 .6-1 1.2.2 3 1.4 4 4 3 8.5 4.8 13.4 5.5l13 1 35.8-1.3c.7-.1 1.4-.3 2-.6.8-.5 1.3-1.3 1.5-2.2.8-3-.7-6.4-3-8.5s-5.4-3.3-8.4-4.5l-10.4-4c-2.4-1-6.4-3.5-9-3.3-5 .4-9.7 8.2-13.8 10.6z"/></defs><path fill="#85848b" d="M0 671h1049.6v7.7H0z"/><path d="M831.5 535.5c0 6-34.4 23-75.2 23s-72.7-17.2-72.7-23 33-4 74-4 74-2 74 4z" class="H"/><path d="M831.5 535.5c0 6-34.4 23-75.2 23s-72.7-17.2-72.7-23" opacity=".2"/><path d="M420.2 427.2c6.6 1 13.5 1.4 20-.7 1-.3 2-1 2-2-.1-.4-.2-.7-.5-1a62 62 0 0 1-6-11.4 1 1 0 0 0-.4-.5c-.2-.1-.4-.1-.6 0-3 .8-5.5 2.7-8.4 3.5-1.5.4-3 .5-4.6.3-1.3-.1-3-1.2-4.3-1 .7 4.4 2.3 8.4 3 13zm125.3-11c4.4-3 9-6 11.5-10.8.2-.3.3-.6.3-1 0-.3-.2-.6-.4-1a37 37 0 0 0-9.3-10.1c-2 1.4-3.7 3-5.2 4.8-1 1.2-4 3-4.2 4.8 0 1 1.2 2.2 1.7 3l2 3.3c.4.5 4 6.6 3.5 6.8z" class="D"/><path d="M446 440.6c.1 1-.2 2-.8 3-.5.5-1 .8-1.7 1-9.3 3.3-20-.8-29.2 2.5-2 .7-3.7 1.6-5.6 2.3-2.3.7-4.6 1-7 1.2a147 147 0 0 1-9.8.6c-2.5.2-5 0-7.4-.6-2.5-.6-4.5-2.3-5.7-4.5-.5-1-.6-2-.3-3.2.1-.4.4-.7.6-1 .6-.7 1.4-1.3 2.2-1.8l3.4-2.2a23 23 0 0 1 5.2-2.7c1.4-.4 2.8-.6 4.2-1 4.8-1.4 8.4-5.2 12-9l4.6-5c.4-.5 1-1 1.6-1.3.6-.2 1.3-.3 2-.2 4.5.3 9 1.8 12.6 4.2 1 .7 2 1.3 3 1.8 2.7 1 6.2.3 8.7-1 1.2-.6 1-1 1.4-2s1.7-2 2.8-.8c.3.4.5.8.7 1.3 1 3.3.6 7 .6 10.3 0 .5 0 1 .2 1.6.3.5.6 1 1 1.5.1.1.1.2.2.4.6 1.5.8 3.2.7 4.8z" class="I"/><path d="M446 440.6c.1 1-.2 2-.8 3-.5.5-1 .8-1.7 1-9.3 3.3-20-.8-29.2 2.5-2 .7-3.7 1.6-5.6 2.3-2.3.7-4.6 1-7 1.2a147 147 0 0 1-9.8.6c-2.5.2-5 0-7.4-.6-2.5-.6-4.5-2.3-5.7-4.5-.5-1-.6-2-.3-3.2.1-.4.4-.7.6-1 .5 1 1 2.6 1.3 3.2 1 1.6 2.5 2.8 4.3 3 1.4.1 2.7-.1 4-.5 8.4-2 17.3-2 25.4-5.3l8.3-3.2c3-.7 6-.5 9-.7 4.7-.4 9.3-1.8 14-2.6.6 1.5.8 3.2.6 5z" class="C"/><path d="M566.8 415.6c-.4 3.5-2.7 6.5-5 9s-5.2 5-7.2 7.8c-2.4 3.7-3.5 8.2-6.6 11.3-1.2 1-2.5 2-4 3a28 28 0 0 1-5.1 2.4c-4.7 1.5-9.7 1.2-14.5.8-1.6 0-3-.3-4.6-1-.7-.3-1.3-.7-2-1.2-1.2-.8-2.2-1.8-3-3a3 3 0 0 1-.3-2.2c.3-.8.8-1.5 1.4-2a33 33 0 0 1 3.5-3.2 21 21 0 0 0 4.6-4c.8-1.2 1.4-2.6 1.8-4 .7-2.5 1-5 1.3-7.6 0-1.7.2-3.4.5-5 .7-2.6 2.7-5 2.5-7.7-.1-.4-.1-.8.1-1.2.2-.3.6-.5 1-.6 1.5-.6 3-1 4.8-1 1.7-.1 3.3.5 4.4 1.7.7.8 1 2 2 2.3.5.1 1 .2 1.5.1 2.5-.2 5-.6 7-2 1.8-1.6 3-4 3-6.4 0-1-.4-2 1-2 1-.1 2 1 2.4 1.7 2 2.6 4 5.3 4.7 8.5.3-.1.6-.2 1-.2 1.3 0 2.5.6 3.2 1.6.8 1.3 1 2.8 1 4.3z" class="I"/><path d="M566.8 415.6c-.4 3.5-2.7 6.5-5 9s-5.2 5-7.2 7.8c-2.4 3.7-3.5 8.2-6.6 11.3-1.2 1-2.5 2-4 3a28 28 0 0 1-5.1 2.4c-4.7 1.5-9.7 1.2-14.5.8-1.6 0-3-.3-4.6-1-.7-.3-1.3-.7-2-1.2-1.2-.8-2.2-1.8-3-3 1-.5 2-.7 3-.7 2.2.1 3.7 2.2 5.8 2.8 3 1 6-1.2 9-2 2-.5 4-.3 6-1 1.6-.6 3-1.5 4.4-2.7 1.8-1.3 3.4-2.8 4.7-4.5a29 29 0 0 0 2.8-5.5c1.6-3.7 3.4-7.2 5.6-10.6.3-.5.7-1 1-1.5.5-.4 1-.7 1.5-1 2-1.5 2.8-4 3.5-6.4.2-.7.5-1.5.8-2.2 1.3 0 2.5.6 3.2 1.6 1 1.3 1.2 3 1 4.5z" class="C"/><path d="M357 103.8c2.5 2 4.5 4.3 6 7 1.4 2.7 9.5 24 9 27 2.6-2.6 13-3 15.7-5.7l8-8c1-1.3 7.6-4 8.3-5.4 2.7-5-19.4-23.4-16.5-28.2.2-.2.2-.5.2-.8-.1-.2-.2-.4-.4-.6-1.8-1.8-4.2-3-6.4-4.4s-4.3-3.3-5-5.8a21 21 0 0 0-5.6 3.8q-6 5.2-12 10.6c-1.5 1.4-4.5 3.3-5.2 5.3-.8 2.2 2.3 3.7 3.8 5z" class="J"/><path d="M392.8 96l-9.5 7.7c-2.7 2.7-5.3 6-6 9.6-.3 1.5-.2 3-.5 4.5-1 6.6-6.7 11.4-9.2 17.5-.7 2-1.3 4-1.6 6a69 69 0 0 0-1.1 11.5c-.1 3.7 3.6 6.3 5 9.8s1.7 7 2.4 10.6a126 126 0 0 0 6 19.7l25.8 65c15-3.8 55.3-12.5 68.7-20.5 4.5-2.7-31-32.7-26.2-34.7.6-.1 1-.4 1.3-1s.3-1 0-1.6c-4.8-21-19.7-38-26.5-58.3-2.4-7-6.6-13-9.8-19.8-3-6-4.4-12.8-8-18.6-.7-1.2-1.5-2.3-2.5-3.2-1-.7-1.8-1.2-2.8-1.7-2-1-3.8-1.5-5.7-2.5z" class="I"/><circle cx="357.9" cy="77.8" r="23.7" class="J"/><path d="M382 89c2.4-2.2 6-2.7 9-1.3 1.6.8 3 2.5 2.6 4.3h11.7c2-.1 3.7.1 5.6.5 1.8.4 3.5 1.4 4.6 3 .1.2.3.4.5.4s.4-.1.5-.2a9 9 0 0 1 5.8-1c6.3.4 12.2 3.6 17.2 7.5 1 .6 1.6 1.5 2 2.5.4 1.3-.1 3 1 4 0 11 3.8 21.3 6.3 32 .5 2 2.3 3.6 3.5 5 1.6 1.7 3 3.6 3.8 5.7 2 5.6-.8 12 1.3 17.7 1 2.4 2.6 4.3 4 6.4 2 2.4 3 5.2 3.4 8.2.1 1.3-.1 2.7 0 4 .1 1.8.5 3.6 1 5.3q1.3 4.8 2.7 9.7c1.5 5.2 3.5 10.8 8.2 13.6-11.2 2-23 3.8-33.8-.1-1.5-.5-3-1.2-4.2-2-4-2.8-5.7-7.5-7.4-12-2-5-3.7-10-4-15.4 0-1.7-.2-3.4-.7-5-1-3-4-4.7-6.6-6.3a32 32 0 0 1-8-6.2c-2.3-2.5-3.5-6-3.2-9.3.2-1.6 1-3.2 1-5s-.7-3.6-2.3-4c-8.2-2.5-12-12.2-14-20.5a66 66 0 0 1-1.1-13.1l-.1-8.5c-2.3-2-3.6-5-3.7-8 .1-1 .1-1.8-.1-2.7-.4-1-1-2-2-2.8-1.8-2-3.3-4-4.5-6.3zm-25.2 27c-.3 2.6.3 5.3-.3 8-.2 1-.6 2-1 3-1 3.7-.5 7.6 1 11a62 62 0 0 0 5.7 9.8 16 16 0 0 1 1.8 3.4c.4 1.3.6 2.6.7 4a121 121 0 0 0 2.8 15.7 396 396 0 0 0 16.8 46.3c.5.8 1.4 1.3 2.3 1.6.7 0 1.3-.1 2-.4l6-2.3c.5-.2 1-.4 1.4-.8.6-.7 1-1.5 1-2.4.4-5-12.3-43.4-14-48-5-14-11.4-27.3-14.6-41.7-1-4-1.4-10.2-4.3-13.3-1.2-1.3-.8-.8-2.2-.1l-2 1a7 7 0 0 0-3 5.2z" class="C"/><path d="M375 142.3l5 25.5 23.5-6c.2-2.5-1-4.7-2-7-2-5.4-2.2-11.4-4-17-1.3-4.2-3.6-8-4.8-12.3-.7-2.5-1-5-1.8-7.5L388 111c-1.3-3.4-3-6.5-5-9.5-3 1-6.2 2.4-8 5-1 1.5-1.4 3.2-1.5 5-.4 5.3 1.5 10.6 1 15.8-.6 5-.5 10 .5 15z" class="D"/><path d="M403.8 255.5c1.3 5-.6 10.3-2 15.2a118 118 0 0 0-4.8 22.9c-.1 2-.5 4-1.2 5.8-.7 1.7-2 3-3 4.7-2.4 4.2-2.3 9.3-1.8 14 .3 3 1 6.3 1.5 9.4.8 3.8 1.7 7.8.6 11.4 2-.4 3 2 3 4s-.7 4 .2 5.6c2.3.8 2.3 4 2.3 6.4 0 4.2.6 8.5 1.6 12.6q5.2 25 11 50c8.4 2.6 18.3 5.4 26.4 1.7 1.5-.7 3-1.7 3.3-3.4.1-1 0-1.8-.3-2.6l-3.8-14c-1-3.4-2-6.8-1.4-10.3.4-2.6 1.5-5.3.2-7.6-.4-.8-1-1.4-1.6-2-2-3-1-7-.8-10.4.1-.8 0-1.6-.2-2.4l-1-2.6a40 40 0 0 1-4.4-19.9c.1-1 0-1.8-.3-2.6-.2-.3-.5-.7-.6-1-.1-.6-.1-1.3.2-2l-3-3c1-.7 2-2 2-3.2s-.3-2.6-1.3-3.5c.8-.2 1.5-.8 1.7-1.6s0-1.7-.7-2.3c-.5-.3-1-.5-1.5-1-.5-.7-.1-1.8.3-2.6l2.3-4.2c1.7-3 2-7 4-10a75 75 0 0 0 6.2-14.1l6.7-18.6 4.5 4c1.5 1.2 2.8 2.6 3.7 4.2.6 1.6 1 3.3 1.2 5 1.7 10 8 18.8 10.4 28.7.5 2.2 1 4.5 2 6.4a14 14 0 0 1 1.2 1.8c.3 1 .5 2 .5 3 .4 4 2.6 7.8 6 10.2 2.2 1.5 5 2.6 6.2 5 .2.7.6 1.5 1 2 1 1.3 3.4 1.4 4 3 .3 1-.2 2 .3 2.8.3.4.7.7 1 .8l6.5 3.3c7.3 3.6 11 12 16.4 18a39 39 0 0 1 4.9 6.5c2.3 4 3.4 9.4 7.3 12 1 .5 2 1.3 2.8 2 1.2 1.6.8 4 1 6s1.7 4.5 3.6 4c-.7 2.5-.7 5 0 7.5a38 38 0 0 0 23.1-9.3c2-1.7 3.7-3.8 3.8-6.3 0-.4-.1-1-.3-1.2-.4-.5-1-1-1.5-1-6-3.3-8-11-11-17.2-2.7-5.5-6.7-10.2-10-15.3-7.2-11-12.2-24.2-23-31.4-2.4-1.6-5.2-3-6.4-5.6-.7-1.5-.7-3-1.3-4.7s-1.8-3-3.4-3c1-2.2.7-5 .8-7.3.1-1-.1-2-.4-3-.4-1-1-2-1.6-3-3-4.8-4.3-10.4-4-16 .1-3 .6-6-.3-8.6-.4-1.4-1.2-2.7-1.7-4a25 25 0 0 1-1.2-7.5l-.6-9.6c-.1-3.2-.5-6.4-1.2-9.5-2-7.5-4-38.7-10.8-42.2s-18.6 20.5-26.3 21c-3.4.1-6.8.8-10 2-5 2-9.4 5.5-13.6 9l-14.2 12c-3 2.5-5.5 4.8-8.8 6.6zm-68-204c3-4.3 8.5-6.5 13.8-6.7a32 32 0 0 1 15.2 3.8c1.4.8 3 1.4 4.4 1.8 2.5.5 5.3-.2 7.5 1 3 1.6 3.6 5.6 3.3 9s-1 7 1 10c.6.8 1.2 1.7 1.7 2.6.8 1.7.3 3.7-.1 5.6-1.2-1-1.8-2.5-3-3.7s-3-2-4-1-1.3 2.4-1.3 4-.4 3-1.8 3.6c-1 .3-2.3-.2-3-1.2-2.3-2.8-1.4-7.3-3.6-10-1.3-1.6-3.4-2.4-4.6-4-1-1.3-1.2-3-2-4.4s-2.7-2.5-4-1.5c-.4.4-.8 1-1 1.4-1.6 2.3-4.7 3.2-7.3 2.2-1-.6-2-1-3.2-1.4-1.5-.1-3 .7-3.6 2-.7 1.3-1 2.7-1 4.2 0 2 .4 4-.8 5.7-.4.6-1 1-1.6 1.5-1.7 1-4 1.8-5.5.6-1-1-1.5-2.5-1.2-4 .3-1.4.7-2.8 1.2-4 1-3-.3-6.6.7-9.5a38 38 0 0 1 4-7.4z" class="C"/><path d="M348.4 122c-.2.7-.1 1.5.2 2.2.3.5.7 1 1.2 1 3.4 2 7.2 3.3 11 3.6.5 0 1 .1 1.5.4 1 .6 1 2 .6 3-.5 1-.7 2.2-.7 3.3.3 2 2.8 3 5 3.3 3 .4 6 .2 8.5-1.6 1.6-1.4 2.8-3.2 3.5-5.2 5.7-13.2 7.8-27.8 13.6-41 .4-1 .7-1.8 1-2.7.1-1-.3-2-1-2.5-1-.7-2.8-.3-3.5-1.3-.4-.5-.3-1.2-.6-1.8-.7-1.2-2.4-1-3.6-1.7-1-.5-1.6-1.5-2.6-1.7-1-.1-2 .4-2.7 1.2-3.4 3.2-5.2 7.7-7 12a140 140 0 0 1-10.2 18.8c.4-.7-2.2-6-3.2-6.2-1.8-.4-4 2.8-5 4-3 3.7-5 8.2-5.6 13z" class="D"/><path d="M384.7 82c-1.5 0-2.8.7-3.7 2-1 1.4-1.3 3.2-1.6 5-1 5.6-3 11-6 15.8M389.8 86c-2 0-4 1.2-5 3-.7 1.6-1 3.2-1.2 5a27 27 0 0 1-4.9 10.4" class="B"/><path d="M627.4 281.6v-12.4c0-19-15.4-34.5-34.5-34.5H102.5c-19 0-34.5 15.4-34.5 34.5v23z" fill="#33323d"/><use xlink:href="#B" class="E"/><use xlink:href="#B" class="B"/><path d="M274.7 252s-5 71.7 7.6 94.6 13.3 125 13.3 125 145.3 6.7 248.6-28.4 320.5-58 320.5-58L840 162.8s-179.7-2-284.6 47.7S274.7 252 274.7 252z" class="E"/><ellipse cx="628.3" cy="440.3" rx="37.7" ry="80.9" transform="matrix(.99 -.12 .12 .99 -134.09 -37.14)" class="B"/><path d="M751.2 12.4s-193.6 49-285 135.3-283.5 127-283.5 127 25.3 83 48.7 105.6S299.3 519 299.3 519 458 485.5 554 416s319-157.2 319-157.2z" opacity=".2"/><use xlink:href="#C" class="E"/><use xlink:href="#C" class="B"/><path d="M223.5 281.6s17.2 69.8 36.3 87.7 51 115 51 115S451.2 446 538.7 381 826 227.4 826 227.4l-91.7-204S562.7 76.6 478 156 223.5 281.6 223.5 281.6z" class="E"/><ellipse cx="585.8" cy="384" rx="37.7" ry="80.9" transform="matrix(.91 -.42 .42 .91 -191.82 165.02)" class="B"/><path d="M640.7 293.8v345c0 8-3 15.5-8.7 21s-13.2 8.7-21 8.7h-513c-16.5 0-29.8-13.4-29.8-29.8V259c14.7 5.5 14.7 5.5 29.8 5h513c16.5 0 29.8 13.3 29.8 29.8z" class="B"/><path d="M640.7 298.2v345c0 16.5-13.4 29.8-29.8 29.8h-513C81.4 673 68 659.6 68 643.2V263.4c14.7 5.4 14.7 5.4 29.8 5h513c16.5 0 29.8 13.3 29.8 29.8z" class="H"/><path d="M639.2 425.7V536h-107a55 55 0 0 1-54.4-55.2 55 55 0 0 1 54.4-55.2z" class="B"/><path d="M640.7 422.8V533h-107a55 55 0 0 1-54.4-55.2 55 55 0 0 1 54.4-55.2z" fill="#33323d"/><circle cx="538.8" cy="480.9" r="21.5" class="B"/><circle cx="540.3" cy="478" r="21.5" class="D"/><use xlink:href="#D" class="K"/><use xlink:href="#D" class="B"/><use xlink:href="#E" class="F"/><use xlink:href="#E" class="B"/><path d="M853.5 521c-4.3 5.8-8.8 12.4-7.7 19.5.6 3.8 2.7 7.2 4.3 10.8a76 76 0 0 1 4.4 15.2l4.2 22.8c1 8.6-4.2 33.7-4.7 42.4-.1 2-.4 4.4-1.8 6-.6.6-1.3 1-1.6 2-.2.8 0 1.5.3 2.2 2.4 5.5 7.4 9.6 13 12A103 103 0 0 0 889 660a5 5 0 0 0 2.4-.3c.8-.5 1.4-1.2 1.8-2 4.4-8.3.2-38 .2-47.3.1-7.8 2-15.6 1.6-23.4-.3-6.3-2-12.4-2.6-18.7-1-10.3 1-20.6 2.8-30.7l4.7-23.2c1-4.7 2.4-9.4 5-13.5 2-3.2 4.8-6 7-9 6.5-8.5 9.3-19.2 8-29.7a78 78 0 0 0-16.3 4.3 51 51 0 0 0-14.5 9.4c-3.4 3.3-6 7.7-9.2 11.3q-6.4 7.8-12.6 15.7-7 9-14 18.2z" class="C"/><path d="M853.5 520.5c-4.3 5.8-8.8 12.4-7.7 19.5.6 4 2.7 7.2 4.3 10.8a76 76 0 0 1 4.4 15.1l4.2 22.8c1 8.7-4.2 33.7-4.7 42.4-.1 2-.4 4.4-1.8 6-.6.6-1.3 1-1.6 2-.2.8 0 1.5.4 2.2 2.4 5.5 7.4 9.6 13 12s19 4.5 25 4.7a5 5 0 0 0 2.4-.3c.8-.5 1.4-1.2 1.8-2 4.4-8.3.2-36 .2-45.4.1-7.8 2-15.6 1.6-23.4-.3-6.3-2-12.4-2.6-18.7-1-10.3 1-20.6 2.8-30.7L900 514c1-4.7 2.4-9.4 5-13.5 2-3.2 4.8-6 7-9 6.5-8.5 9.3-19.2 8-29.7a78 78 0 0 0-16.3 4.3 51 51 0 0 0-14.5 9.4c-3.4 3.3-6.2 7.6-9.2 11.3q-6.4 7.8-12.6 15.7-7 9-14 18z" class="B"/><g class="K"><circle cx="805.4" cy="369.7" r="24.3"/><path d="M827.2 368.7c4.5 7.2 11.8 12.3 20.2 14l-1.8 6.6c-3.2 11.4-6.7 23.5-15.5 31.4 1-4-.3-8-2.5-11.4s-5.2-6-8.2-8.6l-14-12c-.4-.3-.7-.7-1-1.2-.3-1-.3-1.8 0-2.7 1.8-5.5 7-9 11-12.7a38 38 0 0 0 5.5-6.4c2.8-4 4.5 0 6.4 3z"/></g><path d="M773.4 345.3l-.6-4.6c3.8 1 7.5-2.3 10-5.6s4.7-7.3 8.5-8.7c4.5-1.7 9.3 1 13.7 3.3a43 43 0 0 0 15.7 5.1c1 0 1.7.2 2.6.4 2.8 1 4.2 4.5 4.6 7.7s.3 6.6 1.7 9.5c1 2.2 3 3.8 4 6 3 5.7.1 13.6 3.2 19.2l-7.8-7c-.7-.6-1.7-1.3-2.5-.8-.6.4-.7 1.4-1 2-.7 2.2-3.5 3-5.5 2s-3.5-2.8-5-4.5c-3.4-4-7.5-7.6-12.3-9.4-4.3-1.6-9-1.3-13 1-3.6 2-6.3 6.8-10.7 7-6 .2-8.6-11-11.5-15.6 2-1.6 2.8-4.5 1.6-7 .4-.2 4.4-.6 4.5.1z" class="C"/><path d="M473.2 203.4a47 47 0 0 0-5.4 5.7c-1.6 2-2.5 4.6-2.5 7.3 0 .8.3 1.5.7 2 .5.6 1.3 1 2 .6.4-.2.7-.5 1-1 1-1.3 2.2-2.5 3.4-3.6.4-.4 1-1 1.6-.7.3.1.5.2.7.5.7.6 1.2 1.3 1.4 2.2.3 1.5-.5 3-1.6 4.3s-2.2 2.4-2.6 4c-.2.4-.2.8 0 1.2.2.3.5.5.8.7 3 1.6 6.4 1.8 9.4.6 2-.8 3.8-2.2 5.8-3 1-.2 1.8-.6 2.6-1 1.2-.8 2-2 2.3-3.4.3-1.4.3-2.8.1-4.2-.2-5.4-1.4-10.8-3.4-15.8a2 2 0 0 0-.6-.8c-.3-.2-.6-.3-1-.3-2.6-.3-6.8-1.6-9.2-.6-1 .5-1.6 1-2.2 2-.5.5-3.4 2.8-3.4 3.5z" class="J"/><path d="M472.4 201.2c0-2.4-3-8.3 1.8-8.7 0-2.6-3.7-4.2-3-7 .2-1 1-1.7 1-2.6.3-2.7-4.5-4-3.7-6.7.3-1 1.4-1.6 1.6-2.6.5-2.3-3.6-3.3-3.7-5.7 0-.8.5-1.6.4-2.4 0-1-1-1.8-1.4-2.6-1.2-2.2-.6-5.7-3-6.8 1.5.1 2-2 1.4-3.5s-2-2.6-2-4c.1-.6.1-1 0-1.7-.4-1.5-2.8-1.6-3.2-3-.1-.5-.1-1 0-1.6-.2-1-1.3-2-2.4-2.2-1-.2-2.2-.6-3.2-1-.7-.5-1.5-1.4-2.3-1-.3.2-.4.5-.6.7-1 1-2.6.6-3.7-.2-3.3-2.3-5-6.3-5.7-10.3l-1.6-12c-.3-1.2-.6-2.4-1-3.6-.4-1-1.6-2.6-1.7-3.6-.2-2.3 4.6-.7 6.4-.5 1.8.2 3.5.5 5.2 1l5.3 2.3c7.2 3.2 16 3.6 21.7 9 2 1.8 3.5 4 6 5 1 .2 2.3.5 3.4 1 2.8 1.3 3.2 5 4.7 7.6.5.7 1 1.4 1.2 2.2.3 1 .4 2 .4 2.8l.2 7c.3 11.6.7 23.3-.6 34.8-.4 3.8-1 7.7.1 11.4.3 1 .7 2 1 3a18 18 0 0 1 .4 3.6v4.5c.1.3 0 .7-.2 1-.3.3-.8.4-1.2.3-6.2-.6-12.6-4-18.5-2" class="C"/><ellipse cx="757.6" cy="535.5" rx="74" ry="10.7" class="H"/><path d="M905.7 654.2l-2-10.5s.3-6-2.4-10.6v-1.5h0v-11.2a38 38 0 0 1 2.8-5.9c2-3.5 0-16.4 0-16.4s-7.5-18.2-5.7-29.7-15.3-51.2-15.3-51.2c.1-3.8.6-7.6 1.6-11.3.2-.8.3-1.6.2-2.4v-.3c0-.1 0 .1 0 .1-.3-7.6-6.3-22-6.3-22l.8-27.2s3.8-16-2.4-37.6a200 200 0 0 1-4.5-18.2l-.3-1.5 22.7-3.6s-7.5-31.3-12.5-36.8-9-22.7-9-22.7-2.6-22 1.6-28.6 5-17.6 5-17.6 9.7-7 11-10.2a52 52 0 0 0 3.2-13.9c0-3.7-1.2-7-.8-9s-2.8-9.4-1.2-13c.4-1 .6-2.2.6-3.4 0 0 0-.1 0-.1 0-3-.3-6.2-1-9.2a26 26 0 0 0-9.6-5.1l-.2-.8-.5-2.2-1-.6v-.8l-.1-3.2 1.5-7c3-12.4-13.6-14.3-13.6-14.3-1-2-2.7-3.4-4.7-4-3.3-1.2-.5 18.7 1 20 1.2 1 4.8 7.2 6.5 10.2h0l.3.5a7 7 0 0 0-.8.8l.6 4.3.1.7c-1 1.4-2 3-2.6 4.5 0 0 3 3.3 2.4 7s1 8.3 1 8.6c-.2-.2-2.3-2.5-4.4-2l-8 2.3s-4.4.8-4 1.8-3 5.3-3 5.3l-12-11.3-.4-1c-.5-1.6-.8-3.3-1-5 1.3-.3 2.6-.7 3.8-1.2 1.3-.4 2.4-1.2 3.3-2 1.2-1.4 1.4-3.4 2-5.2 1-3.5 3-6.6 4.4-10a32 32 0 0 0 2.3-17.8c-.2-2-.8-3.6-1.8-5.2-2-2.7-5.5-3.8-8-6s-4.2-5.4-7.2-7c-2.7-1.4-6-1.3-9-.8a49 49 0 0 0-16.9 6.2c-1.7 1-3.7 2.2-5.7 2-1.7-.3-3-1.7-4-3a1 1 0 0 1 0-.2 1 1 0 0 1-.1-.2 21 21 0 0 0-1.9 8.9c0 .5 0 1 .1 1.4v.5.4h0c0 .2 0 .4-.1.6-.3.6-.6 1.2-1 1.6-.4.4-.7 1-1 1.3 0-.2.1-.3.2-.5-.8 1-1.2 2.4-1.2 3.8-.1 1 .3 2 1 2.7a13 13 0 0 0 2 1.6l-.4 4a23 23 0 0 0 11.3 19.7l.4 1c1.5 4 2.7 8.7 2.2 13 0 .3-.1.6-.1 1s-.3.3-.4.5h0s-19.7.2-24.4-4-11.7 10.3-11.7 10.3-7 1.4-8.5 0-9.7-.2-9.7-.2c-3.4-3-7.8-4.6-12.3-4.5-2.7-2-5.8-3.8-9-5h0v-.1h0c-1.4-.5-3-.7-4.5-.6 0 0-9.7-8-12.5-12.3l-16.4-20.3v-.8l-.1-2.3c-.4.1-.8.1-1.2.1l-.3-.8c-.8-2.3-1.7-4.5-3-6.6 0 0 0-3 .8-3.7s-.4-11.5-.4-11.5-8.7-20.4-16.6-5.2c0 0-14.8 10-2.4 21.4 0 0 5 2.4 5.7 4.3.5 1.2 2 4.7 3.3 7l.5 1v.1 2l.1.7c-2.3 1.3-4 2.7-3.5 3.6.7 1.7 1.2 3.5 1.4 5.3 0 0 17.2 21.5 19.4 30.7 0 0 46 27.4 61.2 29.3l-2.7 13.6a109 109 0 0 0-.6 11.1c.2 3-1.8 16.2-1.8 16.2s-2.6 19.6-5 22.3-1.8 14.5-1.8 14.5l-3 16.6c-2.2 7.4-.6 16.6-.6 16.6s-7.7 17.6 10.7 5.7c0 0 9-.6 19.4-1v1 4.3l.3 34.5 6.5 55.4v18.5c-.4 1.7-.5 3.5-.5 5.3-.1 6.5 1.6 13 5 18.5l1.4 12.3a48 48 0 0 0 3.4 13c0 .4-.1.8-.1 1.2-.1.6-.2 1.3-.2 2-.2 5.6 3.2 19 3.2 19s.2 13.5 2.2 14.3c1.7.7-2.3 7.8-3.5 9.8v-.4l-.2.4c-.4 1-.6 2.3-.6 3.4-.2 2 .6 3.7 2.2 4.7 3.8 2.4 6 4.3 2.6 5a34 34 0 0 0-3.6.8c0-.1-.1-.3-.2-.5-1 .4-1.5 1.4-1.3 2.4a10 10 0 0 0 1.2 4.5c3.2 7.2 5.5 10 5.5 10l1.5-.2c-.2.6-.5 1.2-1 1.7-.6.8-1.4 1.5-2.3 2-.8.5-1.8.8-2.8 1-2.2.1-4.3 1-5.7 2.8-2 2.6-3.3 6.2.7 9.3l14.5 5s25 3.2 23.5-2.4l-2-10.5a22 22 0 0 0-2-9.9c-.3-.5-.6-1-1-1.5h1s1.8-12.3 4.2-14.7c.6-.5.7-1 .6-1.3.3-.7-.4-1-1.2-1.3l-.2.5c-.8-.2-1.6-.3-2.4-.3 0 0-.8-6.5 1.8-8.8.4-.5.6-1.2.5-2 0-1-.1-1.8-.3-2.6 0 .1-.1.1-.1.2-1.3-6-5.8-15.2-5.8-15.2s-.2-6 1.4-8.2-.2-32-.2-32 .6-14.3-1.2-21 2.2-14.5 2.2-14.5v-.4h0l-.2-2.2c0 0 0 .1 0 .1l-1.7-13.8c-.8-4.5.2-26 .2-26l3.6-9.2 6.5 16 7 21s3.4 4.5 3.5 9v.7c-.1.5-.1 1-.1 1.4-.1 2.7.6 5.3 2 7.5 0 0 1.8 10 4.6 12.5s2.8 7.4 2.8 7.4l5 17c1.4 2 1.4 8 1.4 9.8h0v.5l.5 9.5v1.5c0 0 0-.1 0-.1a15 15 0 0 1-.4 3.5l-.1.2c0-.2 0-.5.1-.7-.7 3-1 6-1 9-.1 5.2.7 11.4 4 15 5.5 6.3 9 5.5 9 5.5s-2.6 7.8-6 9.4c-.1.1-.2.1-.3.2 0-.2-.1-.3-.1-.5-.7.8-1 1.8-1 3a21 21 0 0 0 4 11.6c.8.7 1.7 1.3 2.7 1.6-.2.1-.3.2-.5.3-.4.2-.7.4-1 .5-.5.2-1 .4-1.7.4-2.2.1-4.3 1-5.7 2.8-2 2.6-3.3 6 .7 9.3l14.5 5s24.7 3.2 23.4-2.4z" transform="translate(-84.5 -118.2)" fill="url(#A)"/><path d="M726.3 545.3l-14-5c-4-3-2.6-6.7-.7-9.3 1.4-1.7 3.4-2.7 5.5-2.8 1-.1 2-.4 2.7-1 1-.5 1.6-1.2 2.2-2 1-1.6 1.6-3.5 1.6-5.4 0 0 15.4-4.5 19.6 0l2 2.7c1.4 3 2 6.5 2 10l2 10.5c1.3 5.6-22.8 2.3-22.8 2.3zm68.5-7l-14-5c-4-3-2.6-6.7-.7-9.3 1.3-1.7 3.4-2.7 5.5-2.8l1.6-.4c.4-.2.7-.3 1-.5 4-2 3.8-7.4 3.8-7.4s15.4-4.5 19.6 0c.6.6 1 1.3 1.5 2 2.6 4.5 2.3 10.6 2.3 10.6l2 10.5c1.2 5.6-22.7 2.4-22.7 2.4z" fill="#2d293d"/><path d="M743.2 519.8l2 2.7h0l-23 2.7c1-1.6 1.6-3.5 1.6-5.4 0 0 15.4-4.5 19.6 0zm70-4.8v4.3c-3.6 6-21 4.6-26 1.6.4-.2.7-.3 1-.5 4-2 3.8-7.4 3.8-7.4s15.4-4.5 19.6 0c.6.6 1 1.3 1.5 2z" class="B"/><path d="M816 496.4c-1 2-2 3.8-2.7 6v15.4c-4 6.5-24.2 4.3-27 .8s-5.6-12.7-2.5-14.3 5.7-9.4 5.7-9.4-3.3.8-8.6-5.5-3.7-20-2.7-23.5 0-14.5 0-14.5.2-7.8-1.4-10.4-5-17-5-17 0-5-2.7-7.4-4.5-12.5-4.5-12.5c-1.6-2.5-2.3-5.5-2-8.4.6-5-3.3-10.2-3.3-10.2l-6.6-21-6.3-15.8-3.5 9.2-.2 26 2 16.4s-4 7.8-2 14.5 1 21 1 21 1.8 29.5.2 32-1.4 8.2-1.4 8.2 8 17.2 5.5 19.5-1.8 8.8-1.8 8.8 5.5 0 3 2.4-4 14.7-4 14.7l-23.7 2.8s-2.2-2.7-5.3-10 .6-6.5 3.7-7.2 1.2-2.7-2.6-5-1.6-7.6-1.6-7.6 5.7-9.6 3.7-10.4-2-14.3-2-14.3-4-16-3-20.3-3-14.7-3-14.7L710 422a34 34 0 0 1-4.3-23.3v-19l-6.3-55.3-.2-38.3c.1-5.7.2-9.4.2-9.4l84.5-8.8s-.1 4 1.5 12.6c1 4.6 2.2 10.6 4.3 18.2 6 21.5 2.4 37.5 2.4 37.5l-.8 27.2s7.4 18.2 6 24.4a52 52 0 0 0-1.6 11.4s16.6 39.7 15 51.2S816 480 816 480a45 45 0 0 0 0 16.4z" class="C"/><path d="M767.6 394.5l25.7-3.4s-14.6 15-25.7 3.4zm22-28.5s1 9-4.7 12.5c0 0 10-1.6 4.7-12.5zm-1.6-29s-21.5 17.7-29.3 16.2S788 337 788 337zm-52.3 65.8s-16.3 3.7-16.8 10.3 16.8-10.3 16.8-10.3zm3.6 81.5s-23 4.3-16.5 7.2a112 112 0 0 0 17.3 5.3s7.5.4-.8-12.5z" class="B"/><path d="M718 496.2c-1.2-.7-2-2-2-3.3l-.2.4s-2 5.3 1.6 7.6l1.2.8 2-.4c3-.8 1.2-2.7-2.6-5zm29.8-1.5c.6-.6.6-2 .2-4-1 1.5-1.3 4-1.3 5.7.2-.6.6-1.2 1-1.7zm-3.5-97.3a29 29 0 0 0-1.6 7.2 29 29 0 0 1 1.8-4.9zM797 387c.2-.7.2-1.4.2-2a57 57 0 0 0-.6 4c.1-.6.3-1.2.4-2zm-53.3 80c.3-.5.5-2 .6-4.4-.7 1.7-1 3.6-1 5.5.1-.4.3-.8.5-1zm4.8 36.8c-1.2 4-2 8-2.7 12l-23.6 2.7s-2.2-2.7-5.3-10l-.7-1.7c-1.4.6-2 2-.1 6.4a50 50 0 0 0 5.3 10l23.6-2.7s1.8-12.3 4-14.7c1.2-1 .5-1.7-.6-2zm-31.2-35s.2 13.5 2 14.3h0c1-2.2 1.6-4.4.8-4.7-2-.8-2-14.3-2-14.3s-4-16-3-20.3-3-14.7-3-14.7l-1.4-12.3a34 34 0 0 1-4.3-23.3v-19L700 319v-38.3-4.8h-.7l-.2 9.4.2 38.3 6.3 55.4v19a34 34 0 0 0 4.3 23.3l1.4 12.3s4 10.4 3 14.7 3 20.4 3 20.4zm69.7 44.5c-2-2.8-3.2-6-3.7-9.3-2.4 2.2.4 10.6 3 14 2.7 3.5 23 5.7 27-.8v-3.7c-5.3 5.2-23.7 3-26.2-.2zm29.7-22.2c-1 2-2 3.8-2.7 6v2.8l2-4a12 12 0 0 0 .9-4.9l-.1.1zm-28.5 3.2a64 64 0 0 0 2-4.6s-3.3.8-8.6-5.5c-3.8-4.5-4-13-3.5-18.8-1 3.3-2.5 17.2 2.7 23.5 3.5 4 6 5.2 7.5 5.4zM778 451l.4 11.6.4-1.8c1-3.3 0-14.5 0-14.5s.2-7.8-1.4-10.4-4.8-17-4.8-17 0-5-2.7-7.4-4.5-12.5-4.5-12.5c-1.6-2.5-2.3-5.5-2-8.4.6-5-3.3-10.2-3.3-10.2l-6.6-21-6.3-15.8-3.5 9.2-.1 3 3-7.5L753 364l6.6 21s4 5.3 3.3 10.2c-.3 3 .4 6 2 8.4a34 34 0 0 0 4.5 12.5c2.7 2.5 2.7 7.4 2.7 7.4l5 17c1.6 2.5 1.3 10.4 1.3 10.4z" class="B"/><path d="M794.4 91l-1.5 7v3.2 2.3l-8.2.8-1-1.7h0l-6.3-10.2c-1.5-1.3-4.2-21-1-20 2 .8 3.6 2.2 4.5 4 0 0 16 1.8 13.2 14.3z" class="G"/><path d="M793 103.7l-8.2.8-1-1.7h0c2.3-2.6 6-3.2 9-1.5z" class="B"/><path d="M795 107.6l-10.8 2.5-.2-1.6-.6-4.3s4.3-5.7 10.4-1.4l.5 2.2z" class="D"/><path d="M620.8 91.8L609.3 98l-1-2.2-3.2-7c-.7-2-5.5-4.3-5.5-4.3-12-11.5 2.3-21.4 2.3-21.4 7.6-15.2 16 5.2 16 5.2l.4 11.5c-.8.7-.8 3.7-.8 3.7a45 45 0 0 1 2.8 6.6l.5 1.8z" class="G"/><path d="M620.8 91.8L609.3 98l-1-2.2c1.6-1.4 7.4-6 9.3-5.8 1 .1 1.8.1 2.7.1l.5 1.7z" class="B"/><path d="M622 95.3l-13 6.4-.3-2.8-.2-2s7.5-6.4 9.7-6.2c1 .2 2.3.2 3.4 0l.2 2.3z" class="D"/><path d="M763 138.5s-56.3 6.4-45.8 3c7.3-2.4 10.2-7 10.8-12.2.5-4.3-.6-9-2-13-1.3-3.5-3-7-5-10.2 0 0 43-23.7 34.4-2.2-1.3 3.3-2 6.7-2.4 10.2-.3 3.5.1 7 1 10.3 1.6 5.4 4.7 10.3 9 14z" class="G"/><path d="M755.5 104c-1.3 3.3-2 6.7-2.4 10.2-4 3.4-8.5 3.2-14.2 3.2-4.4 0-9.2 1-12.7-1-1.3-3.5-3-7-5-10.2 0 0 43-23.7 34.4-2.2z" class="B"/><circle cx="738.1" cy="95.5" r="23.3" class="G"/><path d="M763 138.5s-56.3 6.4-45.8 3c7.3-2.4 10.2-7 10.8-12.2 2.8-3 8.4-5.2 12-6.4 3.3-1 7-1.2 10.2-.2 1.3.4 2.6 1 3.7 1.7 1.6 5.4 4.8 10.3 9 14zm32-31l-10.8 2.5-.2-1.6c2.4-3.2 6.5-4.7 10.4-3.5zM622 95.3l-13 6.4-.3-2.8a94 94 0 0 1 13-5.8zm163.3 185l-57.7 6.4a155 155 0 0 0-28.5-.7c.1-5.7.2-9.4.2-9.4l84.5-8.8s-.1 4 1.5 12.6z" class="B"/><path d="M807 275.2l-79.5 10c-7.7-2.3-47.2.2-47.2.2-17.8 12-10.4-5.7-10.4-5.7s-1.6-9.2.6-16.6c1.4-5.5 2.4-11 3-16.6 0 0-.4-11.7 1.8-14.5s4.7-22.3 4.7-22.3 2-13.3 1.8-16.2.6-11 .6-11l2.5-13.7c-14.7-2-59.3-29.3-59.3-29.3-2-9.2-18.8-30.7-18.8-30.7-.2-1.8-.7-3.6-1.4-5.3-1.2-3 16.4-9.4 16.4-9.4l15.8 20.3c2.7 4.3 12 12.3 12 12.3 1.5-.1 3 0 4.3.6l.2.1h0a35 35 0 0 1 8.8 5 17 17 0 0 1 11.9 4.5c0 0 8-1.2 9.4.2s8.2 0 8.2 0 6.8-14.5 11.3-10.3 23.6 4 23.6 4c2.5-3.4 8.7-5.8 12.6-7 3.3-1 7-1.2 10.2-.2a13 13 0 0 1 4 2l11.6 11.3s3.3-4.3 3-5.3 4-1.8 4-1.8l7.8-2.4c2.2-.6 4 1.7 4.3 2-.1-.2-1.5-5-1-8.6s-2.4-7-2.4-7C788.5 97 804 111 804 111s1.8 9.2.2 12.7 1.6 11 1.2 13 .8 5.3.8 9a55 55 0 0 1-3.1 13.9c-1 3-10.6 10.2-10.6 10.2s-.6 11-4.7 17.6-1.5 28.5-1.5 28.5 4 17.2 8.8 22.7 12 36.7 12 36.7z" class="F"/><path d="M702.5 146.5s-2-6.4-4-7c-2-.7-3.8-1.6-5.7-2.5l1.3-2.4s7.3 2 8.5 4.2 0 7.8 0 7.8zm-39.3-14.3c-.4 2-17.8 3.7-17.8 3.7l8.8-8.8h0l.2.1h0a35 35 0 0 1 8.8 5z" class="B"/><g fill="#575988"><circle cx="612.8" cy="105.4" r="1.6"/><circle cx="614.8" cy="108.5" r="1.6"/><circle cx="616.8" cy="111.4" r="1.6"/><circle cx="618.8" cy="114.5" r="1.6"/><circle cx="803.2" cy="114.4" r="1.3"/><circle cx="803.4" cy="117.2" r="1.3"/><circle cx="803.5" cy="120.1" r="1.3"/></g><path d="M702.5 199.5c-.2-.2 44 55.4 78 23.3 0 0-54 7.3-78-23.3zm-25.3 29s26.4.7 29 8.3v8c-1.5.8-3.4.8-5 0-2.7-1.4-18.6-9.5-24.2-5.6z" class="B"/><path d="M677.7 228.4s25.2.7 28 8v7.5c-1.5.8-3.2.8-4.7 0-2.5-1.4-17.8-9-23.2-5.4z" class="F"/><path d="M691.6 171a85 85 0 0 0 10.2 17.5 69 69 0 0 0 16 15.5s-25.8-29.4-26.2-33zm-8.6-30.5s4.4 19 15.7 25.4zm-6.7 2c-.1-.4-4 15 14.6 23.5 0 0-8-2.7-14.6-23.5zm115-12.7c-.3 0 9 6 11.7 8.8 0 0-6-9.2-11.7-8.8z" class="B"/><path d="M731.8 116.6c0 1 .4 2 1.2 2.7s1.8 1 2.8 1c7 .4 14.5.8 21-2a8 8 0 0 0 3.2-2.1c1.2-1.4 1.4-3.4 2-5.2 1-3.5 3-6.6 4.3-10a33 33 0 0 0 2.3-17.7 12 12 0 0 0-1.8-5.2c-2-2.7-5.3-3.8-7.8-6s-4-5.4-7-7c-2.6-1.5-5.8-1.3-8.8-.8a46 46 0 0 0-16.4 6.2c-1.7 1-3.5 2.2-5.5 2-1.7-.3-3-1.7-4-3-1.4 3.2-2 6.7-1.7 10 .1.5.1 1 0 1.5-.2.6-.6 1.2-1 1.6-1.7 2-2.8 5.3-1 7.3.8 1 2 1.4 2.6 2.3 1.3 1.6 1 4 .8 6-.1.7.1 1.5.5 2a3 3 0 0 0 2.9.7c1-.3 2-.4 3-.3 1 .4 2 1 2.7 2 3.2 4.2 4.5 8.8 6 13.8z" fill="#2d293d"/><g class="B"><path d="M760.8 114.3a8 8 0 0 1-3.2 2.1 48 48 0 0 1-21 2c-.8 0-1.5-.2-2.2-.5-1-.6-1.5-2-1.8-3.2-1.4-5-2.6-9.6-6-13.8-.6-1-1.6-1.7-2.7-2-1-.1-2 0-3 .3a3 3 0 0 1-2.9-.7c-.4-.6-.6-1.3-.5-2 0-2 .5-4.4-.8-6-.7-1-2-1.4-2.6-2.3-1-1.4-1.2-3-.5-4.7-1.2 2-1.8 4.5-.3 6.2.8 1 2 1.4 2.6 2.3 1.3 1.6 1 4 .8 6-.1.7.1 1.5.5 2a3 3 0 0 0 2.9.7c1-.3 2-.4 3-.3 1 .4 2 1 2.7 2a37 37 0 0 1 6 13.8 5 5 0 0 0 1.7 3.2c.7.3 1.4.5 2.2.5 7 .4 14.5.8 21-2 1.2-.4 2.3-1.2 3.2-2 .4-.6.8-1.2 1-2 0 .1-.1.2-.1.3zm-45.3-34c.3-.3.6-.7.7-1.2s.1-1 0-1.5c-.2-3 .2-5.7 1-8.4l-.1-.1c-1.4 3.2-2 6.7-1.7 10v1z"/><path d="M727.6 130.6s29 4 31.7-.5m24.7-11.5s16.2 0 19.7 6"/></g><path d="M874.5 658.8c-4.8 4.3-11 6.6-17.5 6.5-1.6 0-4 .3-4 2 0 .5.2 1 .5 1.3a16 16 0 0 0 9 7.1c3.5 1 7.2 1 11 .7l10.6-.5 6-.5c2-.2 4.2-.7 6.3-1a82 82 0 0 1 15.5-.7c1.4 0 3 0 3.8-1s.4-3 .1-4.4c-.6-3 0-6.3-.6-9.4-1-5.4-5.7-9.6-11-11.6-4.8-1.8-13.3-4-17.8-1-4.8 3.2-7.7 8.5-12 12.4z" class="F"/><path d="M885 476.5c1 4.5 5.3 8 5.4 12.5.1 3.7-2.5 6.7-4.4 10a66 66 0 0 0-4.5 10.1c-3.5 9-8 17.8-13 26-2.5 4-5.3 8.3-4.7 13 .4 2.2 1.2 4.3 2.3 6.2l7.5 15a43 43 0 0 1 3.8 9.4c.7 2.8.7 5.8 1 8.6 1.2 9 5.5 18.3 3 27.2-.2.8-1 1.7-1.6 1 2.5 4.6 4.5 9.3 4.3 14.5-.1 2.8-1 5.6.1 8.2.4 1 1.2 2 1.2 3.2 0 .8-.4 1.5-.4 2.2-.2 2 1.7 4 3.7 4.5s4.2.6 6.2 1.2c4 1.2 6.7 4.5 10 7 3.4 2.3 7.4 3.6 11.5 3.8.6.1 1.2-.1 1.7-.3.6-.5 1-1.3 1-2 .4-3.8-1.2-7.5-4-10-.6-.4-1.2-1-1.5-1.6-.2-.6-.2-1.2-.1-1.8a135 135 0 0 0-.4-24.6c-.4-2.6-.5-5.2-.4-7.8.2-2.2 1-4.3.6-6.5s-1.4-4-2-6.2c-1.2-3.7-.8-7.7-1-11.6-.2-6.8-1.7-13.4-3.3-20-.6-2.6-1.3-5.3-3-7.2-1.6-1.6-4-3.2-3.5-5.4.3-.8.8-1.5 1.4-2 1.5-1.8 2-4.2 1.8-6.5 1.4.3 2.8-.3 3.4-1.6 12.2-5.7 22-17.2 26.4-30 .3-1 .7-2 1.2-2.7 1-1.6 3-2.3 4.8-3 5.5-2.7 9.2-8 12.7-13a31 31 0 0 0 4.9-9.4c.5-2.2.7-4.5.7-6.8l.3-11.7c.1-.8 0-1.6-.2-2.3-.3-.7-.7-1.3-1.3-2-3.3-3.5-7.7-6-12.5-6.7-3.2-.6-6.5-.5-9.7-.7-6.3-.5-12.5-2.5-18.8-2a30 30 0 0 0-23.3 16.3c-1.6 3-3.4 5.8-7 5.8z" class="C"/><path d="M830.3 400c.1 1.8-.1 3.6-.7 5.4-.8 1.6-2.7 3-4.4 2.3.5-1-.8-2.5-2-2.3-1.3.3-2.3 1.2-2.8 2.4-.8 1.7-1 3.6-.8 5.4.4 2.3 1.7 4.5 1.4 6.8-.3 2-1.7 3.8-1 5.6.5.8 1 1.5 1.8 2.2 2 2.5 1.8 6.2-.6 8.4l19 .4c-.7 3.2.7 6.4 2.4 9.2a58 58 0 0 0 43.2 28.2c-1 .6-1.6 1.5-1.8 2.7s.2 2.2 1 3c1.5 1.5 4 1.3 6 .4s3.4-2.6 5.2-4a16 16 0 0 1 10.7-2.9c2.4.2 4.7 1 7 1 7 .4 13-4.7 19.7-6.7 5-1.5 10.5-1.5 14.6-4.6 1.8-1.3 3.2-3.5 2.7-5.6-.4-1.2-1-2.4-2-3.3-2.4-3-3.8-6.8-5.5-10.2-3.4-7-8-13-13.7-18.3-4.3-3.7-8.8-7.2-13.6-10.3-1-.8-2.4-1.6-3.7-2.2-1.7-.7-3.5-1-5-2-2.2-1.4-3.5-4-5.2-6-3.7-4.4-9.5-6.4-14-9.8-3-2.3-5.8-5.4-9.5-6.5-1.8-.6-3.7-.6-5.5-1-4-1.2-7-5-11-6.3-3.2-1.2-6.7-1-10-1.3-3.8-.5-7.3-1.8-10.5-4-1-.8-2-1.5-3.3-2-5-1.5-5.5 8-6 11.2-.7 5-2 9.7-2 14.6z" class="D"/><path d="M835.3 431.8c1 9.2-6 18-4 27.2.4 2 1.3 3.8 1.6 5.7 1 5.4-2.4 10.4-5.4 15L801 518c-1 1.7-2.3 3.2-3.7 4.6-5 4.5-12.5 4-19 5.3a33 33 0 0 0-12.8 5.7c-.4.3-.4.8-.2 1a11 11 0 0 0 9.5 4.5c.7 1 0 2.2-1 3-1.4 1-3.3 1.2-3.6 3.6a4 4 0 0 0 .5 2.4c1 1.6 2.7 2.8 4.6 3.2 9 2.8 19-2 25.7-8.7s11.7-15 18.3-21.7c3.7-3.7 8-7 11.7-10.5 7.6-7.2 13.5-16 19.2-24.8 1.7-2.6 3.4-5.4 4-8.4s.4-6.2 1.2-9c1-4 4-7 6.3-10.3a34 34 0 0 0 7.1-22.1c-.6-8-5.5-15.7-13-18.4-2.3-1-4.8-1-7.2-.4-3 1-5.3 3.5-7.4 6l-5 5.7c-1.2 1.3-2.2 2.8-2.8 4.4-.7 1.7-.3 3.6 1 5" class="K"/><path d="M848.5 394c-3.4.2-7.2.5-9.7 3-1 1-1.8 2.4-2.4 3.8a38 38 0 0 0-4.8 15.2c-.1 4.3 1 8.5 1.8 12.7.5 3.5-.8 7-1 10.7A74 74 0 0 0 846 434c2.6-1.5 5.2-3.2 8-4.2 4-1.4 11 1 15 3 .2-2.7-2-7.5-1.6-10.3 0-1.2.2-2.3.6-3.4.6-1.2 1.3-2.3 2-3.3 3-5 2.6-11.3-1.2-15.8-3.5-4-9-5.4-14-6a61 61 0 0 0-9.8-.3" class="D"/></svg>